<?xml version="1.0" encoding="UTF-8" standalone="no"?>
<!DOCTYPE svg PUBLIC "-//W3C//DTD SVG 1.1//EN"
 "http://www.w3.org/Graphics/SVG/1.1/DTD/svg11.dtd">
<!-- Generated by graphviz version 14.0.2 (20251019.1705)
 -->
<!-- Pages: 1 -->
<svg width="512pt" height="232pt"
 viewBox="0.00 0.00 512.00 232.00" xmlns="http://www.w3.org/2000/svg" xmlns:xlink="http://www.w3.org/1999/xlink">
<g id="graph0" class="graph" transform="scale(1 1) rotate(0) translate(4 228)">
<polygon fill="white" stroke="none" points="-4,4 -4,-228 508.25,-228 508.25,4 -4,4"/>
<g id="clust2" class="cluster">
<title>cluster_associated</title>
</g>
<!-- NetworkElement -->
<g id="node1" class="node">
<title>NetworkElement</title>
<g id="a_node1"><a xlink:href="../_counters/transportnetwork__NetworkElement.md" xlink:title="&lt;TABLE&gt;">
<polygon fill="lightgray" stroke="none" points="124.75,-124.88 124.75,-141.12 215.25,-141.12 215.25,-124.88 124.75,-124.88"/>
<text xml:space="preserve" text-anchor="start" x="125.75" y="-128.72" font-family="Arial" font-size="12.00">NetworkElement</text>
<polygon fill="none" stroke="black" points="123.75,-123.88 123.75,-142.12 216.25,-142.12 216.25,-123.88 123.75,-123.88"/>
</a>
</g>
</g>
<!-- NetworkElement&#45;&gt;NetworkElement -->
<g id="edge6" class="edge">
<title>NetworkElement&#45;&gt;NetworkElement</title>
<path fill="none" stroke="black" d="M216.2,-136.34C226.63,-136.04 234.25,-134.92 234.25,-133 234.25,-131.89 231.7,-131.05 227.54,-130.48"/>
<polygon fill="black" stroke="black" points="227.94,-127 217.71,-129.77 227.44,-133.98 227.94,-127"/>
<text xml:space="preserve" text-anchor="middle" x="299.12" y="-136.05" font-family="Arial" font-size="11.00"> partwhole::hasProperPart </text>
<text xml:space="preserve" text-anchor="middle" x="299.12" y="-122.55" font-family="Arial" font-size="11.00"> «only» &#160;</text>
</g>
<!-- NetworkElement&#45;&gt;NetworkElement -->
<g id="edge7" class="edge">
<title>NetworkElement&#45;&gt;NetworkElement</title>
<path fill="none" stroke="black" d="M216.04,-138.36C274.64,-141.47 364,-139.68 364,-133 364,-126.73 285.46,-124.77 227.36,-127.11"/>
<polygon fill="black" stroke="black" points="227.38,-123.61 217.55,-127.56 227.71,-130.6 227.38,-123.61"/>
<text xml:space="preserve" text-anchor="middle" x="425.12" y="-136.05" font-family="Arial" font-size="11.00"> partwhole::properPartOf </text>
<text xml:space="preserve" text-anchor="middle" x="425.12" y="-122.55" font-family="Arial" font-size="11.00"> «only» &#160;</text>
</g>
<!-- geo__Feature -->
<g id="node2" class="node">
<title>geo__Feature</title>
<polygon fill="lightgray" stroke="none" points="94.25,-197.88 94.25,-214.12 163.75,-214.12 163.75,-197.88 94.25,-197.88"/>
<text xml:space="preserve" text-anchor="start" x="95.25" y="-201.72" font-family="Arial" font-size="12.00">geo::Feature</text>
<polygon fill="none" stroke="black" points="93.25,-196.88 93.25,-215.12 164.75,-215.12 164.75,-196.88 93.25,-196.88"/>
</g>
<!-- NetworkElement&#45;&gt;geo__Feature -->
<g id="edge1" class="edge">
<title>NetworkElement&#45;&gt;geo__Feature</title>
<path fill="none" stroke="black" d="M160.35,-150.71C155.62,-158.91 149.79,-169 144.45,-178.24"/>
<polygon fill="none" stroke="black" points="141.44,-176.45 139.47,-186.86 147.51,-179.95 141.44,-176.45"/>
</g>
<!-- ITSThing -->
<g id="node3" class="node">
<title>ITSThing</title>
<g id="a_node3"><a xlink:href="../_counters/transportnetwork__ITSThing.md" xlink:title="&lt;TABLE&gt;">
<polygon fill="lightgray" stroke="none" points="184.25,-197.88 184.25,-214.12 235.75,-214.12 235.75,-197.88 184.25,-197.88"/>
<text xml:space="preserve" text-anchor="start" x="185.25" y="-201.72" font-family="Arial" font-size="12.00">ITSThing</text>
<polygon fill="none" stroke="black" points="183.25,-196.88 183.25,-215.12 236.75,-215.12 236.75,-196.88 183.25,-196.88"/>
</a>
</g>
</g>
<!-- NetworkElement&#45;&gt;ITSThing -->
<g id="edge2" class="edge">
<title>NetworkElement&#45;&gt;ITSThing</title>
<path fill="none" stroke="black" d="M179.41,-150.71C184.03,-158.91 189.72,-169 194.92,-178.24"/>
<polygon fill="none" stroke="black" points="191.82,-179.86 199.78,-186.86 197.92,-176.42 191.82,-179.86"/>
</g>
<!-- Invis -->
<!-- NetworkElement&#45;&gt;Invis -->
<!-- ScheduledCode -->
<g id="node5" class="node">
<title>ScheduledCode</title>
<g id="a_node5"><a xlink:href="../_counters/transportnetwork__ScheduledCode.md" xlink:title="&lt;TABLE&gt;">
<polygon fill="lightgray" stroke="none" points="17.5,-25.88 17.5,-42.12 106.5,-42.12 106.5,-25.88 17.5,-25.88"/>
<text xml:space="preserve" text-anchor="start" x="18.5" y="-29.73" font-family="Arial" font-size="12.00">ScheduledCode</text>
<polygon fill="none" stroke="black" points="16.5,-24.88 16.5,-43.12 107.5,-43.12 107.5,-24.88 16.5,-24.88"/>
</a>
</g>
</g>
<!-- NetworkElement&#45;&gt;ScheduledCode -->
<g id="edge5" class="edge">
<title>NetworkElement&#45;&gt;ScheduledCode</title>
<path fill="none" stroke="black" d="M151.19,-115.1C134,-99.66 108.38,-76.66 89.01,-59.26"/>
<polygon fill="black" stroke="black" points="91.5,-56.79 81.72,-52.71 86.82,-62 91.5,-56.79"/>
<text xml:space="preserve" text-anchor="middle" x="149.1" y="-86.55" font-family="Arial" font-size="11.00"> status </text>
<text xml:space="preserve" text-anchor="middle" x="149.1" y="-73.05" font-family="Arial" font-size="11.00"> «only» &#160;</text>
</g>
<!-- Invis&#45;&gt;ScheduledCode -->
</g>
</svg>
