<?xml version="1.0" encoding="UTF-8" standalone="no"?>
<!DOCTYPE svg PUBLIC "-//W3C//DTD SVG 1.1//EN"
 "http://www.w3.org/Graphics/SVG/1.1/DTD/svg11.dtd">
<!-- Generated by graphviz version 14.0.2 (20251019.1705)
 -->
<!-- Pages: 1 -->
<svg width="551pt" height="404pt"
 viewBox="0.00 0.00 551.00 404.00" xmlns="http://www.w3.org/2000/svg" xmlns:xlink="http://www.w3.org/1999/xlink">
<g id="graph0" class="graph" transform="scale(1 1) rotate(0) translate(4 400)">
<polygon fill="white" stroke="none" points="-4,4 -4,-400 546.75,-400 546.75,4 -4,4"/>
<g id="clust2" class="cluster">
<title>cluster_associated</title>
</g>
<!-- FootpathSegment -->
<g id="node1" class="node">
<title>FootpathSegment</title>
<g id="a_node1"><a xlink:href="../classes/transportnetwork__FootpathSegment.md" xlink:title="&lt;TABLE&gt;">
<polygon fill="lightgray" stroke="none" points="150.38,-270.88 150.38,-287.12 247.62,-287.12 247.62,-270.88 150.38,-270.88"/>
<text xml:space="preserve" text-anchor="start" x="151.38" y="-274.73" font-family="Arial" font-size="12.00">FootpathSegment</text>
<polygon fill="none" stroke="black" points="149.38,-269.88 149.38,-288.12 248.62,-288.12 248.62,-269.88 149.38,-269.88"/>
</a>
</g>
</g>
<!-- TravelledWaySegment -->
<g id="node2" class="node">
<title>TravelledWaySegment</title>
<g id="a_node2"><a xlink:href="../_counters/transportnetwork__TravelledWaySegment.md" xlink:title="&lt;TABLE&gt;">
<polygon fill="lightgray" stroke="none" points="137.25,-369.88 137.25,-386.12 260.75,-386.12 260.75,-369.88 137.25,-369.88"/>
<text xml:space="preserve" text-anchor="start" x="138.25" y="-373.73" font-family="Arial" font-size="12.00">TravelledWaySegment</text>
<polygon fill="none" stroke="black" points="136.25,-368.88 136.25,-387.12 261.75,-387.12 261.75,-368.88 136.25,-368.88"/>
</a>
</g>
</g>
<!-- FootpathSegment&#45;&gt;TravelledWaySegment -->
<g id="edge1" class="edge">
<title>FootpathSegment&#45;&gt;TravelledWaySegment</title>
<path fill="none" stroke="black" d="M199,-296.7C199,-310.97 199,-331.8 199,-348.67"/>
<polygon fill="none" stroke="black" points="195.5,-348.59 199,-358.59 202.5,-348.59 195.5,-348.59"/>
</g>
<!-- Invis -->
<!-- FootpathSegment&#45;&gt;Invis -->
<!-- FootpathLane -->
<g id="node4" class="node">
<title>FootpathLane</title>
<g id="a_node4"><a xlink:href="../_counters/transportnetwork__FootpathLane.md" xlink:title="&lt;TABLE&gt;">
<polygon fill="lightgray" stroke="none" points="16.88,-171.88 16.88,-188.12 93.12,-188.12 93.12,-171.88 16.88,-171.88"/>
<text xml:space="preserve" text-anchor="start" x="17.88" y="-175.72" font-family="Arial" font-size="12.00">FootpathLane</text>
<polygon fill="none" stroke="black" points="15.88,-170.88 15.88,-189.12 94.12,-189.12 94.12,-170.88 15.88,-170.88"/>
</a>
</g>
</g>
<!-- FootpathSegment&#45;&gt;FootpathLane -->
<g id="edge6" class="edge">
<title>FootpathSegment&#45;&gt;FootpathLane</title>
<path fill="none" stroke="black" stroke-dasharray="5,2" d="M149.69,-267.39C103.98,-257.49 42.87,-244.09 42,-243 34.15,-233.21 35.88,-219.83 40.21,-208.01"/>
<polygon fill="black" stroke="black" points="43.29,-209.69 44.11,-199.12 36.88,-206.88 43.29,-209.69"/>
<text xml:space="preserve" text-anchor="middle" x="136.5" y="-232.55" font-family="Arial" font-size="11.00"> onProperty: partwhole::hasProperPart </text>
<text xml:space="preserve" text-anchor="middle" x="136.5" y="-219.05" font-family="Arial" font-size="11.00"> «min 1, only» &#160;</text>
</g>
<!-- FootpathLink -->
<g id="node5" class="node">
<title>FootpathLink</title>
<g id="a_node5"><a xlink:href="../_counters/transportnetwork__FootpathLink.md" xlink:title="&lt;TABLE&gt;">
<polygon fill="lightgray" stroke="none" points="31.12,-98.88 31.12,-115.12 102.88,-115.12 102.88,-98.88 31.12,-98.88"/>
<text xml:space="preserve" text-anchor="start" x="32.12" y="-102.72" font-family="Arial" font-size="12.00">FootpathLink</text>
<polygon fill="none" stroke="black" points="30.12,-97.88 30.12,-116.12 103.88,-116.12 103.88,-97.88 30.12,-97.88"/>
</a>
</g>
</g>
<!-- FootpathSegment&#45;&gt;FootpathLink -->
<g id="edge10" class="edge">
<title>FootpathSegment&#45;&gt;FootpathLink</title>
<path fill="none" stroke="black" stroke-dasharray="5,2" d="M218.87,-261.29C223.78,-256 228.38,-249.75 231,-243 235.34,-231.81 236.69,-226.56 231,-216 206.46,-170.46 153.4,-140.96 114.24,-124.49"/>
<polygon fill="black" stroke="black" points="115.59,-121.26 105.01,-120.75 112.96,-127.75 115.59,-121.26"/>
<text xml:space="preserve" text-anchor="middle" x="308.93" y="-183.05" font-family="Arial" font-size="11.00"> onProperty: partwhole::properPartOf </text>
<text xml:space="preserve" text-anchor="middle" x="308.93" y="-169.55" font-family="Arial" font-size="11.00"> «min 1» &#160;</text>
</g>
<!-- Nd76692a1b23649d4a208928e441b178f -->
<g id="node7" class="node">
<title>Nd76692a1b23649d4a208928e441b178f</title>
<polygon fill="lightyellow" stroke="none" points="418.25,-368.88 418.25,-387.12 477.75,-387.12 477.75,-368.88 418.25,-368.88"/>
<text xml:space="preserve" text-anchor="start" x="420.25" y="-373.73" font-family="Arial" font-size="12.00">«unionOf»</text>
<polygon fill="none" stroke="black" points="418.25,-368.88 418.25,-387.12 477.75,-387.12 477.75,-368.88 418.25,-368.88"/>
</g>
<!-- FootpathSegment&#45;&gt;Nd76692a1b23649d4a208928e441b178f -->
<g id="edge9" class="edge">
<title>FootpathSegment&#45;&gt;Nd76692a1b23649d4a208928e441b178f</title>
<path fill="none" stroke="black" stroke-dasharray="5,2" d="M208.83,-296.8C218.18,-311.19 233.6,-331.23 252.5,-342 300.73,-369.49 365.61,-376.24 407.13,-377.47"/>
<polygon fill="black" stroke="black" points="406.87,-380.97 416.93,-377.66 407,-373.97 406.87,-380.97"/>
<text xml:space="preserve" text-anchor="middle" x="343.25" y="-331.55" font-family="Arial" font-size="11.00"> onProperty: partwhole::properPartOf </text>
<text xml:space="preserve" text-anchor="middle" x="343.25" y="-318.05" font-family="Arial" font-size="11.00"> «only» &#160;</text>
</g>
<!-- Invis&#45;&gt;FootpathLane -->
<!-- FootpathLane&#45;&gt;FootpathLink -->
<!-- FootpathSection -->
<g id="node6" class="node">
<title>FootpathSection</title>
<g id="a_node6"><a xlink:href="../_counters/transportnetwork__FootpathSection.md" xlink:title="&lt;TABLE&gt;">
<polygon fill="lightgray" stroke="none" points="17.12,-25.88 17.12,-42.12 106.88,-42.12 106.88,-25.88 17.12,-25.88"/>
<text xml:space="preserve" text-anchor="start" x="18.12" y="-29.73" font-family="Arial" font-size="12.00">FootpathSection</text>
<polygon fill="none" stroke="black" points="16.12,-24.88 16.12,-43.12 107.88,-43.12 107.88,-24.88 16.12,-24.88"/>
</a>
</g>
</g>
<!-- FootpathLink&#45;&gt;FootpathSection -->
<!-- Nd76692a1b23649d4a208928e441b178f&#45;&gt;FootpathLink -->
<g id="edge7" class="edge">
<title>Nd76692a1b23649d4a208928e441b178f&#45;&gt;FootpathLink</title>
<path fill="none" stroke="black" stroke-dasharray="1,5" d="M450.3,-360.05C454.79,-319.35 459.85,-215.5 404,-162 363.43,-123.14 198.06,-112.22 115.03,-109.17"/>
<polygon fill="black" stroke="black" points="115.27,-105.68 105.16,-108.83 115.03,-112.67 115.27,-105.68"/>
<text xml:space="preserve" text-anchor="middle" x="465.48" y="-225.8" font-family="Arial" font-size="11.00">member</text>
</g>
<!-- Nd76692a1b23649d4a208928e441b178f&#45;&gt;FootpathSection -->
<g id="edge8" class="edge">
<title>Nd76692a1b23649d4a208928e441b178f&#45;&gt;FootpathSection</title>
<path fill="none" stroke="black" stroke-dasharray="1,5" d="M464.8,-360.05C480.98,-341.87 503,-311.36 503,-280 503,-280 503,-280 503,-106 503,-67.54 238.14,-46.05 118.94,-38.32"/>
<polygon fill="black" stroke="black" points="119.25,-34.84 109.04,-37.69 118.8,-41.82 119.25,-34.84"/>
<text xml:space="preserve" text-anchor="middle" x="522.88" y="-176.3" font-family="Arial" font-size="11.00">member</text>
</g>
</g>
</svg>
