<?xml version="1.0" encoding="UTF-8" standalone="no"?>
<!DOCTYPE svg PUBLIC "-//W3C//DTD SVG 1.1//EN"
 "http://www.w3.org/Graphics/SVG/1.1/DTD/svg11.dtd">
<!-- Generated by graphviz version 14.0.2 (20251019.1705)
 -->
<!-- Pages: 1 -->
<svg width="158pt" height="132pt"
 viewBox="0.00 0.00 158.00 132.00" xmlns="http://www.w3.org/2000/svg" xmlns:xlink="http://www.w3.org/1999/xlink">
<g id="graph0" class="graph" transform="scale(1 1) rotate(0) translate(4 128)">
<polygon fill="white" stroke="none" points="-4,4 -4,-128 153.5,-128 153.5,4 -4,4"/>
<g id="clust2" class="cluster">
<title>cluster_associated</title>
</g>
<!-- ITSPattern -->
<g id="node1" class="node">
<title>ITSPattern</title>
<g id="a_node1"><a xlink:href="../classes/transportnetwork__ITSPattern.md" xlink:title="&lt;TABLE&gt;">
<polygon fill="lightgray" stroke="none" points="1,-25.88 1,-42.12 60,-42.12 60,-25.88 1,-25.88"/>
<text xml:space="preserve" text-anchor="start" x="2" y="-29.73" font-family="Arial" font-size="12.00">ITSPattern</text>
<polygon fill="none" stroke="black" points="0,-24.88 0,-43.12 61,-43.12 61,-24.88 0,-24.88"/>
</a>
</g>
</g>
<!-- ITSThing -->
<g id="node2" class="node">
<title>ITSThing</title>
<g id="a_node2"><a xlink:href="../_counters/transportnetwork__ITSThing.md" xlink:title="&lt;TABLE&gt;">
<polygon fill="lightgray" stroke="none" points="4.75,-97.88 4.75,-114.12 56.25,-114.12 56.25,-97.88 4.75,-97.88"/>
<text xml:space="preserve" text-anchor="start" x="5.75" y="-101.72" font-family="Arial" font-size="12.00">ITSThing</text>
<polygon fill="none" stroke="black" points="3.75,-96.88 3.75,-115.12 57.25,-115.12 57.25,-96.88 3.75,-96.88"/>
</a>
</g>
</g>
<!-- ITSPattern&#45;&gt;ITSThing -->
<g id="edge1" class="edge">
<title>ITSPattern&#45;&gt;ITSThing</title>
<path fill="none" stroke="black" d="M30.5,-51.79C30.5,-59.25 30.5,-68.24 30.5,-76.69"/>
<polygon fill="none" stroke="black" points="27,-76.54 30.5,-86.54 34,-76.54 27,-76.54"/>
</g>
<!-- Invis -->
</g>
</svg>
