<?xml version="1.0" encoding="UTF-8" standalone="no"?>
<!DOCTYPE svg PUBLIC "-//W3C//DTD SVG 1.1//EN"
 "http://www.w3.org/Graphics/SVG/1.1/DTD/svg11.dtd">
<!-- Generated by graphviz version 14.0.2 (20251019.1705)
 -->
<!-- Pages: 1 -->
<svg width="440pt" height="305pt"
 viewBox="0.00 0.00 440.00 305.00" xmlns="http://www.w3.org/2000/svg" xmlns:xlink="http://www.w3.org/1999/xlink">
<g id="graph0" class="graph" transform="scale(1 1) rotate(0) translate(4 301)">
<polygon fill="white" stroke="none" points="-4,4 -4,-301 436.04,-301 436.04,4 -4,4"/>
<g id="clust2" class="cluster">
<title>cluster_associated</title>
</g>
<!-- TravelledWay -->
<g id="node1" class="node">
<title>TravelledWay</title>
<g id="a_node1"><a xlink:href="../classes/transportnetwork__TravelledWay.md" xlink:title="&lt;TABLE&gt;">
<polygon fill="lightgray" stroke="none" points="132.75,-206 132.75,-222.25 343.25,-222.25 343.25,-206 132.75,-206"/>
<text xml:space="preserve" text-anchor="start" x="201.25" y="-209.85" font-family="Arial" font-size="12.00">TravelledWay</text>
<text xml:space="preserve" text-anchor="start" x="133.75" y="-193.6" font-family="Arial" font-size="12.00">designator: xsd::string «exactly 1, only»</text>
<polygon fill="none" stroke="black" points="131.75,-188.75 131.75,-223.25 344.25,-223.25 344.25,-188.75 131.75,-188.75"/>
</a>
</g>
</g>
<!-- NetworkElement -->
<g id="node2" class="node">
<title>NetworkElement</title>
<g id="a_node2"><a xlink:href="../_counters/transportnetwork__NetworkElement.md" xlink:title="&lt;TABLE&gt;">
<polygon fill="lightgray" stroke="none" points="125.75,-270.88 125.75,-287.12 216.25,-287.12 216.25,-270.88 125.75,-270.88"/>
<text xml:space="preserve" text-anchor="start" x="126.75" y="-274.73" font-family="Arial" font-size="12.00">NetworkElement</text>
<polygon fill="none" stroke="black" points="124.75,-269.88 124.75,-288.12 217.25,-288.12 217.25,-269.88 124.75,-269.88"/>
</a>
</g>
</g>
<!-- TravelledWay&#45;&gt;NetworkElement -->
<g id="edge1" class="edge">
<title>TravelledWay&#45;&gt;NetworkElement</title>
<path fill="none" stroke="black" d="M222.24,-223.71C213.99,-232.44 203.74,-243.31 194.57,-253.02"/>
<polygon fill="none" stroke="black" points="192.23,-250.4 187.92,-260.07 197.33,-255.2 192.23,-250.4"/>
</g>
<!-- transinfras__TravelledWay -->
<g id="node3" class="node">
<title>transinfras__TravelledWay</title>
<polygon fill="lightgray" stroke="none" points="236.5,-270.88 236.5,-287.12 373.5,-287.12 373.5,-270.88 236.5,-270.88"/>
<text xml:space="preserve" text-anchor="start" x="237.5" y="-274.73" font-family="Arial" font-size="12.00">transinfras::TravelledWay</text>
<polygon fill="none" stroke="black" points="235.5,-269.88 235.5,-288.12 374.5,-288.12 374.5,-269.88 235.5,-269.88"/>
</g>
<!-- TravelledWay&#45;&gt;transinfras__TravelledWay -->
<g id="edge2" class="edge">
<title>TravelledWay&#45;&gt;transinfras__TravelledWay</title>
<path fill="none" stroke="black" d="M253.76,-223.71C262.01,-232.44 272.26,-243.31 281.43,-253.02"/>
<polygon fill="none" stroke="black" points="278.67,-255.2 288.08,-260.07 283.77,-250.4 278.67,-255.2"/>
</g>
<!-- Invis -->
<!-- TravelledWay&#45;&gt;Invis -->
<!-- TransportNetwork -->
<g id="node5" class="node">
<title>TransportNetwork</title>
<g id="a_node5"><a xlink:href="../_counters/transportnetwork__TransportNetwork.md" xlink:title="&lt;TABLE&gt;">
<polygon fill="lightgray" stroke="none" points="17.75,-98.88 17.75,-115.12 114.25,-115.12 114.25,-98.88 17.75,-98.88"/>
<text xml:space="preserve" text-anchor="start" x="18.75" y="-102.72" font-family="Arial" font-size="12.00">TransportNetwork</text>
<polygon fill="none" stroke="black" points="16.75,-97.88 16.75,-116.12 115.25,-116.12 115.25,-97.88 16.75,-97.88"/>
</a>
</g>
</g>
<!-- TravelledWay&#45;&gt;TransportNetwork -->
<g id="edge7" class="edge">
<title>TravelledWay&#45;&gt;TransportNetwork</title>
<path fill="none" stroke="black" stroke-dasharray="5,2" d="M136.7,-188.04C106.25,-182.02 79.51,-175.4 74.5,-170 66.19,-161.04 63.54,-147.98 63.18,-136.16"/>
<polygon fill="black" stroke="black" points="66.67,-136.54 63.43,-126.46 59.67,-136.36 66.67,-136.54"/>
<text xml:space="preserve" text-anchor="middle" x="165.25" y="-159.55" font-family="Arial" font-size="11.00"> onProperty: partwhole::properPartOf </text>
<text xml:space="preserve" text-anchor="middle" x="165.25" y="-146.05" font-family="Arial" font-size="11.00"> «min 1, only» &#160;</text>
</g>
<!-- TravelledWayLink -->
<g id="node6" class="node">
<title>TravelledWayLink</title>
<g id="a_node6"><a xlink:href="../_counters/transportnetwork__TravelledWayLink.md" xlink:title="&lt;TABLE&gt;">
<polygon fill="lightgray" stroke="none" points="17,-25.88 17,-42.12 115,-42.12 115,-25.88 17,-25.88"/>
<text xml:space="preserve" text-anchor="start" x="18" y="-29.73" font-family="Arial" font-size="12.00">TravelledWayLink</text>
<polygon fill="none" stroke="black" points="16,-24.88 16,-43.12 116,-43.12 116,-24.88 16,-24.88"/>
</a>
</g>
</g>
<!-- TravelledWay&#45;&gt;TravelledWayLink -->
<g id="edge6" class="edge">
<title>TravelledWay&#45;&gt;TravelledWayLink</title>
<path fill="none" stroke="black" stroke-dasharray="5,2" d="M249.83,-188.06C257.31,-175.07 264.17,-157.05 256,-143 228.32,-95.43 171.02,-67.1 126.54,-51.47"/>
<polygon fill="black" stroke="black" points="127.85,-48.22 117.26,-48.34 125.62,-54.85 127.85,-48.22"/>
<text xml:space="preserve" text-anchor="middle" x="337.54" y="-110.05" font-family="Arial" font-size="11.00"> onProperty: partwhole::hasProperPart </text>
<text xml:space="preserve" text-anchor="middle" x="337.54" y="-96.55" font-family="Arial" font-size="11.00"> «only» &#160;</text>
</g>
<!-- Invis&#45;&gt;TransportNetwork -->
<!-- TransportNetwork&#45;&gt;TravelledWayLink -->
</g>
</svg>
