<?xml version="1.0" encoding="UTF-8" standalone="no"?>
<!DOCTYPE svg PUBLIC "-//W3C//DTD SVG 1.1//EN"
 "http://www.w3.org/Graphics/SVG/1.1/DTD/svg11.dtd">
<!-- Generated by graphviz version 14.0.2 (20251019.1705)
 -->
<!-- Pages: 1 -->
<svg width="367pt" height="232pt"
 viewBox="0.00 0.00 367.00 232.00" xmlns="http://www.w3.org/2000/svg" xmlns:xlink="http://www.w3.org/1999/xlink">
<g id="graph0" class="graph" transform="scale(1 1) rotate(0) translate(4 228)">
<polygon fill="white" stroke="none" points="-4,4 -4,-228 362.78,-228 362.78,4 -4,4"/>
<g id="clust2" class="cluster">
<title>cluster_associated</title>
</g>
<!-- MicromobilityLane -->
<g id="node1" class="node">
<title>MicromobilityLane</title>
<g id="a_node1"><a xlink:href="../classes/transportnetwork__MicromobilityLane.md" xlink:title="&lt;TABLE&gt;">
<polygon fill="lightgray" stroke="none" points="181.25,-124.88 181.25,-141.12 280.75,-141.12 280.75,-124.88 181.25,-124.88"/>
<text xml:space="preserve" text-anchor="start" x="182.25" y="-128.72" font-family="Arial" font-size="12.00">MicromobilityLane</text>
<polygon fill="none" stroke="black" points="180.25,-123.88 180.25,-142.12 281.75,-142.12 281.75,-123.88 180.25,-123.88"/>
</a>
</g>
</g>
<!-- RoadLane -->
<g id="node2" class="node">
<title>RoadLane</title>
<g id="a_node2"><a xlink:href="../_counters/transportnetwork__RoadLane.md" xlink:title="&lt;TABLE&gt;">
<polygon fill="lightgray" stroke="none" points="201.88,-197.88 201.88,-214.12 260.12,-214.12 260.12,-197.88 201.88,-197.88"/>
<text xml:space="preserve" text-anchor="start" x="202.88" y="-201.72" font-family="Arial" font-size="12.00">RoadLane</text>
<polygon fill="none" stroke="black" points="200.88,-196.88 200.88,-215.12 261.12,-215.12 261.12,-196.88 200.88,-196.88"/>
</a>
</g>
</g>
<!-- MicromobilityLane&#45;&gt;RoadLane -->
<g id="edge1" class="edge">
<title>MicromobilityLane&#45;&gt;RoadLane</title>
<path fill="none" stroke="black" d="M231,-150.71C231,-158.47 231,-167.92 231,-176.74"/>
<polygon fill="none" stroke="black" points="227.5,-176.66 231,-186.66 234.5,-176.66 227.5,-176.66"/>
</g>
<!-- Invis -->
<!-- MicromobilityLane&#45;&gt;Invis -->
<!-- MicromobilityPathSegment -->
<g id="node4" class="node">
<title>MicromobilityPathSegment</title>
<g id="a_node4"><a xlink:href="../_counters/transportnetwork__MicromobilityPathSegment.md" xlink:title="&lt;TABLE&gt;">
<polygon fill="lightgray" stroke="none" points="17.38,-25.88 17.38,-42.12 162.62,-42.12 162.62,-25.88 17.38,-25.88"/>
<text xml:space="preserve" text-anchor="start" x="18.38" y="-29.73" font-family="Arial" font-size="12.00">MicromobilityPathSegment</text>
<polygon fill="none" stroke="black" points="16.38,-24.88 16.38,-43.12 163.62,-43.12 163.62,-24.88 16.38,-24.88"/>
</a>
</g>
</g>
<!-- MicromobilityLane&#45;&gt;MicromobilityPathSegment -->
<g id="edge4" class="edge">
<title>MicromobilityLane&#45;&gt;MicromobilityPathSegment</title>
<path fill="none" stroke="black" stroke-dasharray="5,2" d="M206.44,-115.1C183.49,-99.32 149.04,-75.62 123.56,-58.09"/>
<polygon fill="black" stroke="black" points="125.75,-55.34 115.53,-52.56 121.78,-61.11 125.75,-55.34"/>
<text xml:space="preserve" text-anchor="middle" x="268.03" y="-86.55" font-family="Arial" font-size="11.00"> onProperty: partwhole::properPartOf </text>
<text xml:space="preserve" text-anchor="middle" x="268.03" y="-73.05" font-family="Arial" font-size="11.00"> «min 1, only» &#160;</text>
</g>
<!-- Invis&#45;&gt;MicromobilityPathSegment -->
</g>
</svg>
