<?xml version="1.0" encoding="UTF-8" standalone="no"?>
<!DOCTYPE svg PUBLIC "-//W3C//DTD SVG 1.1//EN"
 "http://www.w3.org/Graphics/SVG/1.1/DTD/svg11.dtd">
<!-- Generated by graphviz version 14.0.2 (20251019.1705)
 -->
<!-- Pages: 1 -->
<svg width="732pt" height="649pt"
 viewBox="0.00 0.00 732.00 649.00" xmlns="http://www.w3.org/2000/svg" xmlns:xlink="http://www.w3.org/1999/xlink">
<g id="graph0" class="graph" transform="scale(1 1) rotate(0) translate(4 645)">
<polygon fill="white" stroke="none" points="-4,4 -4,-645 727.75,-645 727.75,4 -4,4"/>
<g id="clust2" class="cluster">
<title>cluster_associated</title>
</g>
<!-- TravelledWayLink -->
<g id="node1" class="node">
<title>TravelledWayLink</title>
<g id="a_node1"><a xlink:href="../classes/transportnetwork__TravelledWayLink.md" xlink:title="&lt;TABLE&gt;">
<polygon fill="lightgray" stroke="none" points="171,-515.88 171,-532.12 269,-532.12 269,-515.88 171,-515.88"/>
<text xml:space="preserve" text-anchor="start" x="172" y="-519.73" font-family="Arial" font-size="12.00">TravelledWayLink</text>
<polygon fill="none" stroke="black" points="170,-514.88 170,-533.12 270,-533.12 270,-514.88 170,-514.88"/>
</a>
</g>
</g>
<!-- NetworkElement -->
<g id="node2" class="node">
<title>NetworkElement</title>
<g id="a_node2"><a xlink:href="../_counters/transportnetwork__NetworkElement.md" xlink:title="&lt;TABLE&gt;">
<polygon fill="lightgray" stroke="none" points="29.75,-614.88 29.75,-631.12 120.25,-631.12 120.25,-614.88 29.75,-614.88"/>
<text xml:space="preserve" text-anchor="start" x="30.75" y="-618.73" font-family="Arial" font-size="12.00">NetworkElement</text>
<polygon fill="none" stroke="black" points="28.75,-613.88 28.75,-632.12 121.25,-632.12 121.25,-613.88 28.75,-613.88"/>
</a>
</g>
</g>
<!-- TravelledWayLink&#45;&gt;NetworkElement -->
<g id="edge1" class="edge">
<title>TravelledWayLink&#45;&gt;NetworkElement</title>
<path fill="none" stroke="black" d="M195.03,-541.7C171.43,-557.49 135.8,-581.33 109.49,-598.93"/>
<polygon fill="none" stroke="black" points="107.88,-595.79 101.52,-604.26 111.77,-601.61 107.88,-595.79"/>
</g>
<!-- transinfras__TravelledWayLink -->
<g id="node3" class="node">
<title>transinfras__TravelledWayLink</title>
<polygon fill="lightgray" stroke="none" points="140.25,-614.88 140.25,-631.12 299.75,-631.12 299.75,-614.88 140.25,-614.88"/>
<text xml:space="preserve" text-anchor="start" x="141.25" y="-618.73" font-family="Arial" font-size="12.00">transinfras::TravelledWayLink</text>
<polygon fill="none" stroke="black" points="139.25,-613.88 139.25,-632.12 300.75,-632.12 300.75,-613.88 139.25,-613.88"/>
</g>
<!-- TravelledWayLink&#45;&gt;transinfras__TravelledWayLink -->
<g id="edge2" class="edge">
<title>TravelledWayLink&#45;&gt;transinfras__TravelledWayLink</title>
<path fill="none" stroke="black" d="M220,-541.7C220,-555.97 220,-576.8 220,-593.67"/>
<polygon fill="none" stroke="black" points="216.5,-593.59 220,-603.59 223.5,-593.59 216.5,-593.59"/>
</g>
<!-- Invis -->
<!-- TravelledWayLink&#45;&gt;Invis -->
<!-- code__Code -->
<g id="node5" class="node">
<title>code__Code</title>
<polygon fill="lightgray" stroke="none" points="17.25,-416.88 17.25,-433.12 80.75,-433.12 80.75,-416.88 17.25,-416.88"/>
<text xml:space="preserve" text-anchor="start" x="18.25" y="-420.73" font-family="Arial" font-size="12.00">code::Code</text>
<polygon fill="none" stroke="black" points="16.25,-415.88 16.25,-434.12 81.75,-434.12 81.75,-415.88 16.25,-415.88"/>
</g>
<!-- TravelledWayLink&#45;&gt;code__Code -->
<g id="edge10" class="edge">
<title>TravelledWayLink&#45;&gt;code__Code</title>
<path fill="none" stroke="black" d="M170.01,-509.67C164.62,-508.37 159.21,-507.12 154,-506 131.12,-501.08 65.5,-505.75 50.25,-488 42.36,-478.81 41.16,-465.73 42.3,-453.94"/>
<polygon fill="black" stroke="black" points="45.72,-454.7 43.82,-444.28 38.81,-453.62 45.72,-454.7"/>
<text xml:space="preserve" text-anchor="middle" x="95.62" y="-477.55" font-family="Arial" font-size="11.00"> allowedDirections </text>
<text xml:space="preserve" text-anchor="middle" x="95.62" y="-464.05" font-family="Arial" font-size="11.00"> «max 1, only» &#160;</text>
</g>
<!-- TransportNetwork -->
<g id="node6" class="node">
<title>TransportNetwork</title>
<g id="a_node6"><a xlink:href="../_counters/transportnetwork__TransportNetwork.md" xlink:title="&lt;TABLE&gt;">
<polygon fill="lightgray" stroke="none" points="44.75,-317.88 44.75,-334.12 141.25,-334.12 141.25,-317.88 44.75,-317.88"/>
<text xml:space="preserve" text-anchor="start" x="45.75" y="-321.73" font-family="Arial" font-size="12.00">TransportNetwork</text>
<polygon fill="none" stroke="black" points="43.75,-316.88 43.75,-335.12 142.25,-335.12 142.25,-316.88 43.75,-316.88"/>
</a>
</g>
</g>
<!-- TravelledWayLink&#45;&gt;TransportNetwork -->
<g id="edge18" class="edge">
<title>TravelledWayLink&#45;&gt;TransportNetwork</title>
<path fill="none" stroke="black" stroke-dasharray="5,2" d="M195.72,-506.21C176.17,-491.56 149.29,-468.67 132.5,-443 114.69,-415.76 104.06,-379.66 98.39,-355.01"/>
<polygon fill="black" stroke="black" points="101.85,-354.43 96.31,-345.4 95,-355.91 101.85,-354.43"/>
<text xml:space="preserve" text-anchor="middle" x="223.25" y="-428.05" font-family="Arial" font-size="11.00"> onProperty: partwhole::properPartOf </text>
<text xml:space="preserve" text-anchor="middle" x="223.25" y="-414.55" font-family="Arial" font-size="11.00"> «min 1» &#160;</text>
</g>
<!-- TransportNode -->
<g id="node7" class="node">
<title>TransportNode</title>
<g id="a_node7"><a xlink:href="../_counters/transportnetwork__TransportNode.md" xlink:title="&lt;TABLE&gt;">
<polygon fill="lightgray" stroke="none" points="59.25,-244.88 59.25,-261.12 140.75,-261.12 140.75,-244.88 59.25,-244.88"/>
<text xml:space="preserve" text-anchor="start" x="60.25" y="-248.72" font-family="Arial" font-size="12.00">TransportNode</text>
<polygon fill="none" stroke="black" points="58.25,-243.88 58.25,-262.12 141.75,-262.12 141.75,-243.88 58.25,-243.88"/>
</a>
</g>
</g>
<!-- TravelledWayLink&#45;&gt;TransportNode -->
<g id="edge11" class="edge">
<title>TravelledWayLink&#45;&gt;TransportNode</title>
<path fill="none" stroke="black" d="M269.81,-522.21C295.71,-518.93 325.36,-510.09 342,-488 363.66,-459.25 349.47,-442.22 342,-407 327.79,-340.03 303.31,-321.4 243,-289 215.2,-274.06 180.94,-265.39 152.93,-260.42"/>
<polygon fill="black" stroke="black" points="153.67,-256.99 143.23,-258.81 152.53,-263.9 153.67,-256.99"/>
<text xml:space="preserve" text-anchor="middle" x="381.65" y="-378.55" font-family="Arial" font-size="11.00"> from </text>
<text xml:space="preserve" text-anchor="middle" x="381.65" y="-365.05" font-family="Arial" font-size="11.00"> «exactly 1, only» &#160;</text>
</g>
<!-- TravelledWayLink&#45;&gt;TransportNode -->
<g id="edge12" class="edge">
<title>TravelledWayLink&#45;&gt;TransportNode</title>
<path fill="none" stroke="black" d="M250.77,-506.17C287.96,-483.66 342.26,-442.48 314,-407 291.7,-379 266.84,-406.3 235.5,-389 222.25,-381.68 159.1,-316.27 123.88,-279.26"/>
<polygon fill="black" stroke="black" points="126.46,-276.89 117.03,-272.04 121.38,-281.71 126.46,-276.89"/>
<text xml:space="preserve" text-anchor="middle" x="279.75" y="-378.55" font-family="Arial" font-size="11.00"> to </text>
<text xml:space="preserve" text-anchor="middle" x="279.75" y="-365.05" font-family="Arial" font-size="11.00"> «exactly 1, only» &#160;</text>
</g>
<!-- TravelledWaySegment -->
<g id="node10" class="node">
<title>TravelledWaySegment</title>
<g id="a_node10"><a xlink:href="../_counters/transportnetwork__TravelledWaySegment.md" xlink:title="&lt;TABLE&gt;">
<polygon fill="lightgray" stroke="none" points="17.25,-25.88 17.25,-42.12 140.75,-42.12 140.75,-25.88 17.25,-25.88"/>
<text xml:space="preserve" text-anchor="start" x="18.25" y="-29.73" font-family="Arial" font-size="12.00">TravelledWaySegment</text>
<polygon fill="none" stroke="black" points="16.25,-24.88 16.25,-43.12 141.75,-43.12 141.75,-24.88 16.25,-24.88"/>
</a>
</g>
</g>
<!-- TravelledWayLink&#45;&gt;TravelledWaySegment -->
<g id="edge13" class="edge">
<title>TravelledWayLink&#45;&gt;TravelledWaySegment</title>
<path fill="none" stroke="black" stroke-dasharray="5,2" d="M269.95,-519.51C298.94,-515.45 334.96,-506.71 362,-488 443.91,-431.32 467,-389.61 467,-290 467,-290 467,-290 467,-106 467,-74.39 265.12,-51.44 152.6,-41.1"/>
<polygon fill="black" stroke="black" points="153.12,-37.64 142.85,-40.22 152.49,-44.61 153.12,-37.64"/>
<text xml:space="preserve" text-anchor="middle" x="561.5" y="-256.05" font-family="Arial" font-size="11.00"> onProperty: partwhole::hasProperPart </text>
<text xml:space="preserve" text-anchor="middle" x="561.5" y="-242.55" font-family="Arial" font-size="11.00"> «only» &#160;</text>
</g>
<!-- Nec0f31cb6fe749fb991abcd58e75865b -->
<g id="node11" class="node">
<title>Nec0f31cb6fe749fb991abcd58e75865b</title>
<polygon fill="lightyellow" stroke="none" points="447.25,-613.88 447.25,-632.12 506.75,-632.12 506.75,-613.88 447.25,-613.88"/>
<text xml:space="preserve" text-anchor="start" x="449.25" y="-618.73" font-family="Arial" font-size="12.00">«unionOf»</text>
<polygon fill="none" stroke="black" points="447.25,-613.88 447.25,-632.12 506.75,-632.12 506.75,-613.88 447.25,-613.88"/>
</g>
<!-- TravelledWayLink&#45;&gt;Nec0f31cb6fe749fb991abcd58e75865b -->
<g id="edge17" class="edge">
<title>TravelledWayLink&#45;&gt;Nec0f31cb6fe749fb991abcd58e75865b</title>
<path fill="none" stroke="black" stroke-dasharray="5,2" d="M224.76,-541.79C229.74,-556.17 239.05,-576.21 254.5,-587 269.12,-597.2 375.79,-610.63 435.97,-617.51"/>
<polygon fill="black" stroke="black" points="435.51,-620.98 445.84,-618.63 436.3,-614.02 435.51,-620.98"/>
<text xml:space="preserve" text-anchor="middle" x="345.25" y="-576.55" font-family="Arial" font-size="11.00"> onProperty: partwhole::properPartOf </text>
<text xml:space="preserve" text-anchor="middle" x="345.25" y="-563.05" font-family="Arial" font-size="11.00"> «only» &#160;</text>
</g>
<!-- Invis&#45;&gt;code__Code -->
<!-- code__Code&#45;&gt;TransportNetwork -->
<!-- TransportNetwork&#45;&gt;TransportNode -->
<!-- TravelledWay -->
<g id="node8" class="node">
<title>TravelledWay</title>
<g id="a_node8"><a xlink:href="../_counters/transportnetwork__TravelledWay.md" xlink:title="&lt;TABLE&gt;">
<polygon fill="lightgray" stroke="none" points="62.25,-171.88 62.25,-188.12 137.75,-188.12 137.75,-171.88 62.25,-171.88"/>
<text xml:space="preserve" text-anchor="start" x="63.25" y="-175.72" font-family="Arial" font-size="12.00">TravelledWay</text>
<polygon fill="none" stroke="black" points="61.25,-170.88 61.25,-189.12 138.75,-189.12 138.75,-170.88 61.25,-170.88"/>
</a>
</g>
</g>
<!-- TransportNode&#45;&gt;TravelledWay -->
<!-- TravelledWaySection -->
<g id="node9" class="node">
<title>TravelledWaySection</title>
<g id="a_node9"><a xlink:href="../_counters/transportnetwork__TravelledWaySection.md" xlink:title="&lt;TABLE&gt;">
<polygon fill="lightgray" stroke="none" points="25,-98.88 25,-115.12 141,-115.12 141,-98.88 25,-98.88"/>
<text xml:space="preserve" text-anchor="start" x="26" y="-102.72" font-family="Arial" font-size="12.00">TravelledWaySection</text>
<polygon fill="none" stroke="black" points="24,-97.88 24,-116.12 142,-116.12 142,-97.88 24,-97.88"/>
</a>
</g>
</g>
<!-- TravelledWay&#45;&gt;TravelledWaySection -->
<!-- TravelledWaySection&#45;&gt;TravelledWaySegment -->
<!-- Nec0f31cb6fe749fb991abcd58e75865b&#45;&gt;TransportNetwork -->
<g id="edge14" class="edge">
<title>Nec0f31cb6fe749fb991abcd58e75865b&#45;&gt;TransportNetwork</title>
<path fill="none" stroke="black" stroke-dasharray="1,5" d="M469.08,-605.1C444.09,-552.49 365.77,-393.26 319,-362 292.58,-344.34 210.83,-335.08 153.28,-330.62"/>
<polygon fill="black" stroke="black" points="153.86,-327.15 143.63,-329.9 153.34,-334.14 153.86,-327.15"/>
<text xml:space="preserve" text-anchor="middle" x="428.24" y="-470.8" font-family="Arial" font-size="11.00">member</text>
</g>
<!-- Nec0f31cb6fe749fb991abcd58e75865b&#45;&gt;TravelledWay -->
<g id="edge15" class="edge">
<title>Nec0f31cb6fe749fb991abcd58e75865b&#45;&gt;TravelledWay</title>
<path fill="none" stroke="black" stroke-dasharray="1,5" d="M484.95,-605.25C493.23,-586.24 505,-554.1 505,-525 505,-525 505,-525 505,-374.5 505,-296.51 257.4,-222.18 149.39,-193.47"/>
<polygon fill="black" stroke="black" points="150.49,-190.14 139.93,-190.98 148.71,-196.91 150.49,-190.14"/>
<text xml:space="preserve" text-anchor="middle" x="524.88" y="-371.8" font-family="Arial" font-size="11.00">member</text>
</g>
<!-- Nec0f31cb6fe749fb991abcd58e75865b&#45;&gt;TravelledWaySection -->
<g id="edge16" class="edge">
<title>Nec0f31cb6fe749fb991abcd58e75865b&#45;&gt;TravelledWaySection</title>
<path fill="none" stroke="black" stroke-dasharray="1,5" d="M506.66,-621.28C563.9,-618.16 684,-602.39 684,-525 684,-525 684,-525 684,-289 684,-262.74 680.35,-251.61 660,-235 582.62,-171.83 288.98,-131.27 152.95,-115.48"/>
<polygon fill="black" stroke="black" points="153.69,-112.04 143.36,-114.38 152.89,-119 153.69,-112.04"/>
<text xml:space="preserve" text-anchor="middle" x="703.88" y="-322.3" font-family="Arial" font-size="11.00">member</text>
</g>
</g>
</svg>
