<?xml version="1.0" encoding="UTF-8" standalone="no"?>
<!DOCTYPE svg PUBLIC "-//W3C//DTD SVG 1.1//EN"
 "http://www.w3.org/Graphics/SVG/1.1/DTD/svg11.dtd">
<!-- Generated by graphviz version 14.0.2 (20251019.1705)
 -->
<!-- Pages: 1 -->
<svg width="212pt" height="132pt"
 viewBox="0.00 0.00 212.00 132.00" xmlns="http://www.w3.org/2000/svg" xmlns:xlink="http://www.w3.org/1999/xlink">
<g id="graph0" class="graph" transform="scale(1 1) rotate(0) translate(4 128)">
<polygon fill="white" stroke="none" points="-4,4 -4,-128 207.88,-128 207.88,4 -4,4"/>
<g id="clust2" class="cluster">
<title>cluster_associated</title>
</g>
<!-- RoadNetworkPattern -->
<g id="node1" class="node">
<title>RoadNetworkPattern</title>
<g id="a_node1"><a xlink:href="../classes/transportnetwork__RoadNetworkPattern.md" xlink:title="&lt;TABLE&gt;">
<polygon fill="lightgray" stroke="none" points="1,-25.88 1,-42.12 114.75,-42.12 114.75,-25.88 1,-25.88"/>
<text xml:space="preserve" text-anchor="start" x="2" y="-29.73" font-family="Arial" font-size="12.00">RoadNetworkPattern</text>
<polygon fill="none" stroke="black" points="0,-24.88 0,-43.12 115.75,-43.12 115.75,-24.88 0,-24.88"/>
</a>
</g>
</g>
<!-- ITSPattern -->
<g id="node2" class="node">
<title>ITSPattern</title>
<g id="a_node2"><a xlink:href="../_counters/transportnetwork__ITSPattern.md" xlink:title="&lt;TABLE&gt;">
<polygon fill="lightgray" stroke="none" points="28.38,-97.88 28.38,-114.12 87.38,-114.12 87.38,-97.88 28.38,-97.88"/>
<text xml:space="preserve" text-anchor="start" x="29.38" y="-101.72" font-family="Arial" font-size="12.00">ITSPattern</text>
<polygon fill="none" stroke="black" points="27.38,-96.88 27.38,-115.12 88.38,-115.12 88.38,-96.88 27.38,-96.88"/>
</a>
</g>
</g>
<!-- RoadNetworkPattern&#45;&gt;ITSPattern -->
<g id="edge1" class="edge">
<title>RoadNetworkPattern&#45;&gt;ITSPattern</title>
<path fill="none" stroke="black" d="M57.88,-51.79C57.88,-59.25 57.88,-68.24 57.88,-76.69"/>
<polygon fill="none" stroke="black" points="54.38,-76.54 57.88,-86.54 61.38,-76.54 54.38,-76.54"/>
</g>
<!-- Invis -->
</g>
</svg>
