<?xml version="1.0" encoding="UTF-8" standalone="no"?>
<!DOCTYPE svg PUBLIC "-//W3C//DTD SVG 1.1//EN"
 "http://www.w3.org/Graphics/SVG/1.1/DTD/svg11.dtd">
<!-- Generated by graphviz version 14.0.2 (20251019.1705)
 -->
<!-- Pages: 1 -->
<svg width="240pt" height="132pt"
 viewBox="0.00 0.00 240.00 132.00" xmlns="http://www.w3.org/2000/svg" xmlns:xlink="http://www.w3.org/1999/xlink">
<g id="graph0" class="graph" transform="scale(1 1) rotate(0) translate(4 128)">
<polygon fill="white" stroke="none" points="-4,4 -4,-128 236.12,-128 236.12,4 -4,4"/>
<g id="clust2" class="cluster">
<title>cluster_associated</title>
</g>
<!-- PedestrianNetworkPattern -->
<g id="node1" class="node">
<title>PedestrianNetworkPattern</title>
<g id="a_node1"><a xlink:href="../classes/transportnetwork__PedestrianNetworkPattern.md" xlink:title="&lt;TABLE&gt;">
<polygon fill="lightgray" stroke="none" points="1,-25.88 1,-42.12 143.25,-42.12 143.25,-25.88 1,-25.88"/>
<text xml:space="preserve" text-anchor="start" x="2" y="-29.73" font-family="Arial" font-size="12.00">PedestrianNetworkPattern</text>
<polygon fill="none" stroke="black" points="0,-24.88 0,-43.12 144.25,-43.12 144.25,-24.88 0,-24.88"/>
</a>
</g>
</g>
<!-- ITSPattern -->
<g id="node2" class="node">
<title>ITSPattern</title>
<g id="a_node2"><a xlink:href="../_counters/transportnetwork__ITSPattern.md" xlink:title="&lt;TABLE&gt;">
<polygon fill="lightgray" stroke="none" points="42.62,-97.88 42.62,-114.12 101.62,-114.12 101.62,-97.88 42.62,-97.88"/>
<text xml:space="preserve" text-anchor="start" x="43.62" y="-101.72" font-family="Arial" font-size="12.00">ITSPattern</text>
<polygon fill="none" stroke="black" points="41.62,-96.88 41.62,-115.12 102.62,-115.12 102.62,-96.88 41.62,-96.88"/>
</a>
</g>
</g>
<!-- PedestrianNetworkPattern&#45;&gt;ITSPattern -->
<g id="edge1" class="edge">
<title>PedestrianNetworkPattern&#45;&gt;ITSPattern</title>
<path fill="none" stroke="black" d="M72.12,-51.79C72.12,-59.25 72.12,-68.24 72.12,-76.69"/>
<polygon fill="none" stroke="black" points="68.63,-76.54 72.13,-86.54 75.63,-76.54 68.63,-76.54"/>
</g>
<!-- Invis -->
</g>
</svg>
