<?xml version="1.0" encoding="UTF-8" standalone="no"?>
<!DOCTYPE svg PUBLIC "-//W3C//DTD SVG 1.1//EN"
 "http://www.w3.org/Graphics/SVG/1.1/DTD/svg11.dtd">
<!-- Generated by graphviz version 14.0.2 (20251019.1705)
 -->
<!-- Pages: 1 -->
<svg width="569pt" height="404pt"
 viewBox="0.00 0.00 569.00 404.00" xmlns="http://www.w3.org/2000/svg" xmlns:xlink="http://www.w3.org/1999/xlink">
<g id="graph0" class="graph" transform="scale(1 1) rotate(0) translate(4 400)">
<polygon fill="white" stroke="none" points="-4,4 -4,-400 564.75,-400 564.75,4 -4,4"/>
<g id="clust2" class="cluster">
<title>cluster_associated</title>
</g>
<!-- MicromobilityPathSegment -->
<g id="node1" class="node">
<title>MicromobilityPathSegment</title>
<g id="a_node1"><a xlink:href="../classes/transportnetwork__MicromobilityPathSegment.md" xlink:title="&lt;TABLE&gt;">
<polygon fill="lightgray" stroke="none" points="173.38,-270.88 173.38,-287.12 318.62,-287.12 318.62,-270.88 173.38,-270.88"/>
<text xml:space="preserve" text-anchor="start" x="174.38" y="-274.73" font-family="Arial" font-size="12.00">MicromobilityPathSegment</text>
<polygon fill="none" stroke="black" points="172.38,-269.88 172.38,-288.12 319.62,-288.12 319.62,-269.88 172.38,-269.88"/>
</a>
</g>
</g>
<!-- RoadSegment -->
<g id="node2" class="node">
<title>RoadSegment</title>
<g id="a_node2"><a xlink:href="../_counters/transportnetwork__RoadSegment.md" xlink:title="&lt;TABLE&gt;">
<polygon fill="lightgray" stroke="none" points="196.38,-369.88 196.38,-386.12 275.62,-386.12 275.62,-369.88 196.38,-369.88"/>
<text xml:space="preserve" text-anchor="start" x="197.38" y="-373.73" font-family="Arial" font-size="12.00">RoadSegment</text>
<polygon fill="none" stroke="black" points="195.38,-368.88 195.38,-387.12 276.62,-387.12 276.62,-368.88 195.38,-368.88"/>
</a>
</g>
</g>
<!-- MicromobilityPathSegment&#45;&gt;RoadSegment -->
<g id="edge1" class="edge">
<title>MicromobilityPathSegment&#45;&gt;RoadSegment</title>
<path fill="none" stroke="black" d="M244.28,-296.7C242.81,-310.97 240.66,-331.8 238.92,-348.67"/>
<polygon fill="none" stroke="black" points="235.44,-348.29 237.9,-358.6 242.4,-349.01 235.44,-348.29"/>
</g>
<!-- Invis -->
<!-- MicromobilityPathSegment&#45;&gt;Invis -->
<!-- MicromobilityLane -->
<g id="node4" class="node">
<title>MicromobilityLane</title>
<g id="a_node4"><a xlink:href="../_counters/transportnetwork__MicromobilityLane.md" xlink:title="&lt;TABLE&gt;">
<polygon fill="lightgray" stroke="none" points="17.25,-171.88 17.25,-188.12 116.75,-188.12 116.75,-171.88 17.25,-171.88"/>
<text xml:space="preserve" text-anchor="start" x="18.25" y="-175.72" font-family="Arial" font-size="12.00">MicromobilityLane</text>
<polygon fill="none" stroke="black" points="16.25,-170.88 16.25,-189.12 117.75,-189.12 117.75,-170.88 16.25,-170.88"/>
</a>
</g>
</g>
<!-- MicromobilityPathSegment&#45;&gt;MicromobilityLane -->
<g id="edge6" class="edge">
<title>MicromobilityPathSegment&#45;&gt;MicromobilityLane</title>
<path fill="none" stroke="black" stroke-dasharray="5,2" d="M172.54,-261.86C171.01,-261.57 169.5,-261.28 168,-261 142.57,-256.24 69.82,-262.65 53,-243 44.82,-233.44 46.71,-220.08 51.32,-208.22"/>
<polygon fill="black" stroke="black" points="54.44,-209.81 55.47,-199.27 48.09,-206.86 54.44,-209.81"/>
<text xml:space="preserve" text-anchor="middle" x="147.5" y="-232.55" font-family="Arial" font-size="11.00"> onProperty: partwhole::hasProperPart </text>
<text xml:space="preserve" text-anchor="middle" x="147.5" y="-219.05" font-family="Arial" font-size="11.00"> «min 1, only» &#160;</text>
</g>
<!-- MicromobilityLink -->
<g id="node5" class="node">
<title>MicromobilityLink</title>
<g id="a_node5"><a xlink:href="../_counters/transportnetwork__MicromobilityLink.md" xlink:title="&lt;TABLE&gt;">
<polygon fill="lightgray" stroke="none" points="54.5,-98.88 54.5,-115.12 149.5,-115.12 149.5,-98.88 54.5,-98.88"/>
<text xml:space="preserve" text-anchor="start" x="55.5" y="-102.72" font-family="Arial" font-size="12.00">MicromobilityLink</text>
<polygon fill="none" stroke="black" points="53.5,-97.88 53.5,-116.12 150.5,-116.12 150.5,-97.88 53.5,-97.88"/>
</a>
</g>
</g>
<!-- MicromobilityPathSegment&#45;&gt;MicromobilityLink -->
<g id="edge10" class="edge">
<title>MicromobilityPathSegment&#45;&gt;MicromobilityLink</title>
<path fill="none" stroke="black" stroke-dasharray="5,2" d="M248.52,-261.2C249.66,-248.11 249.4,-229.9 242,-216 221.48,-177.44 180.52,-148.38 148.19,-130.18"/>
<polygon fill="black" stroke="black" points="150.24,-127.31 139.79,-125.6 146.89,-133.46 150.24,-127.31"/>
<text xml:space="preserve" text-anchor="middle" x="319.86" y="-183.05" font-family="Arial" font-size="11.00"> onProperty: partwhole::properPartOf </text>
<text xml:space="preserve" text-anchor="middle" x="319.86" y="-169.55" font-family="Arial" font-size="11.00"> «min 1» &#160;</text>
</g>
<!-- N75b4e6bf504044e796bfb4e670b7e362 -->
<g id="node7" class="node">
<title>N75b4e6bf504044e796bfb4e670b7e362</title>
<polygon fill="lightyellow" stroke="none" points="436.25,-368.88 436.25,-387.12 495.75,-387.12 495.75,-368.88 436.25,-368.88"/>
<text xml:space="preserve" text-anchor="start" x="438.25" y="-373.73" font-family="Arial" font-size="12.00">«unionOf»</text>
<polygon fill="none" stroke="black" points="436.25,-368.88 436.25,-387.12 495.75,-387.12 495.75,-368.88 436.25,-368.88"/>
</g>
<!-- MicromobilityPathSegment&#45;&gt;N75b4e6bf504044e796bfb4e670b7e362 -->
<g id="edge9" class="edge">
<title>MicromobilityPathSegment&#45;&gt;N75b4e6bf504044e796bfb4e670b7e362</title>
<path fill="none" stroke="black" stroke-dasharray="5,2" d="M248.1,-296.87C250.8,-311.09 256.89,-330.86 270.5,-342 293.6,-360.9 374.86,-370.24 425.06,-374.31"/>
<polygon fill="black" stroke="black" points="424.74,-377.8 434.98,-375.08 425.28,-370.82 424.74,-377.8"/>
<text xml:space="preserve" text-anchor="middle" x="361.25" y="-331.55" font-family="Arial" font-size="11.00"> onProperty: partwhole::properPartOf </text>
<text xml:space="preserve" text-anchor="middle" x="361.25" y="-318.05" font-family="Arial" font-size="11.00"> «only» &#160;</text>
</g>
<!-- Invis&#45;&gt;MicromobilityLane -->
<!-- MicromobilityLane&#45;&gt;MicromobilityLink -->
<!-- MicromobilityPathSection -->
<g id="node6" class="node">
<title>MicromobilityPathSection</title>
<g id="a_node6"><a xlink:href="../_counters/transportnetwork__MicromobilityPathSection.md" xlink:title="&lt;TABLE&gt;">
<polygon fill="lightgray" stroke="none" points="17.12,-25.88 17.12,-42.12 154.88,-42.12 154.88,-25.88 17.12,-25.88"/>
<text xml:space="preserve" text-anchor="start" x="18.12" y="-29.73" font-family="Arial" font-size="12.00">MicromobilityPathSection</text>
<polygon fill="none" stroke="black" points="16.12,-24.88 16.12,-43.12 155.88,-43.12 155.88,-24.88 16.12,-24.88"/>
</a>
</g>
</g>
<!-- MicromobilityLink&#45;&gt;MicromobilityPathSection -->
<!-- N75b4e6bf504044e796bfb4e670b7e362&#45;&gt;MicromobilityLink -->
<g id="edge7" class="edge">
<title>N75b4e6bf504044e796bfb4e670b7e362&#45;&gt;MicromobilityLink</title>
<path fill="none" stroke="black" stroke-dasharray="1,5" d="M467.66,-360.01C470.61,-319.22 471.86,-215.21 415,-162 379.21,-128.51 242.21,-115.5 161.81,-110.67"/>
<polygon fill="black" stroke="black" points="162.07,-107.17 151.89,-110.1 161.67,-114.16 162.07,-107.17"/>
<text xml:space="preserve" text-anchor="middle" x="478.69" y="-225.8" font-family="Arial" font-size="11.00">member</text>
</g>
<!-- N75b4e6bf504044e796bfb4e670b7e362&#45;&gt;MicromobilityPathSection -->
<g id="edge8" class="edge">
<title>N75b4e6bf504044e796bfb4e670b7e362&#45;&gt;MicromobilityPathSection</title>
<path fill="none" stroke="black" stroke-dasharray="1,5" d="M482.8,-360.05C498.98,-341.87 521,-311.36 521,-280 521,-280 521,-280 521,-106 521,-70.52 292.7,-49.18 166.88,-40.12"/>
<polygon fill="black" stroke="black" points="167.14,-36.63 156.92,-39.41 166.65,-43.61 167.14,-36.63"/>
<text xml:space="preserve" text-anchor="middle" x="540.88" y="-176.3" font-family="Arial" font-size="11.00">member</text>
</g>
</g>
</svg>
