<?xml version="1.0" encoding="UTF-8" standalone="no"?>
<!DOCTYPE svg PUBLIC "-//W3C//DTD SVG 1.1//EN"
 "http://www.w3.org/Graphics/SVG/1.1/DTD/svg11.dtd">
<!-- Generated by graphviz version 14.0.2 (20251019.1705)
 -->
<!-- Pages: 1 -->
<svg width="308pt" height="232pt"
 viewBox="0.00 0.00 308.00 232.00" xmlns="http://www.w3.org/2000/svg" xmlns:xlink="http://www.w3.org/1999/xlink">
<g id="graph0" class="graph" transform="scale(1 1) rotate(0) translate(4 228)">
<polygon fill="white" stroke="none" points="-4,4 -4,-228 304.12,-228 304.12,4 -4,4"/>
<g id="clust2" class="cluster">
<title>cluster_associated</title>
</g>
<!-- RoadLane -->
<g id="node1" class="node">
<title>RoadLane</title>
<g id="a_node1"><a xlink:href="../_counters/transportnetwork__RoadLane.md" xlink:title="&lt;TABLE&gt;">
<polygon fill="lightgray" stroke="none" points="117.88,-124.88 117.88,-141.12 176.12,-141.12 176.12,-124.88 117.88,-124.88"/>
<text xml:space="preserve" text-anchor="start" x="118.88" y="-128.72" font-family="Arial" font-size="12.00">RoadLane</text>
<polygon fill="none" stroke="black" points="116.88,-123.88 116.88,-142.12 177.12,-142.12 177.12,-123.88 116.88,-123.88"/>
</a>
</g>
</g>
<!-- RoadLane&#45;&gt;RoadLane -->
<g id="edge4" class="edge">
<title>RoadLane&#45;&gt;RoadLane</title>
<path fill="none" stroke="black" d="M177.08,-136.42C187.1,-136.42 195.12,-135.28 195.12,-133 195.12,-131.68 192.44,-130.74 188.25,-130.19"/>
<polygon fill="black" stroke="black" points="188.77,-126.71 178.59,-129.66 188.38,-133.7 188.77,-126.71"/>
<text xml:space="preserve" text-anchor="middle" x="215.38" y="-136.05" font-family="Arial" font-size="11.00"> next </text>
<text xml:space="preserve" text-anchor="middle" x="215.38" y="-122.55" font-family="Arial" font-size="11.00"> «only» &#160;</text>
</g>
<!-- RoadLane&#45;&gt;RoadLane -->
<g id="edge5" class="edge">
<title>RoadLane&#45;&gt;RoadLane</title>
<path fill="none" stroke="black" d="M176.87,-138.84C203.8,-141.26 235.62,-139.31 235.62,-133 235.62,-127.55 211.9,-125.36 188.09,-126.41"/>
<polygon fill="black" stroke="black" points="188.12,-122.9 178.38,-127.06 188.59,-129.89 188.12,-122.9"/>
<text xml:space="preserve" text-anchor="middle" x="258.88" y="-136.05" font-family="Arial" font-size="11.00"> previous </text>
<text xml:space="preserve" text-anchor="middle" x="258.88" y="-122.55" font-family="Arial" font-size="11.00"> «only» &#160;</text>
</g>
<!-- TravelledWayLane -->
<g id="node2" class="node">
<title>TravelledWayLane</title>
<g id="a_node2"><a xlink:href="../_counters/transportnetwork__TravelledWayLane.md" xlink:title="&lt;TABLE&gt;">
<polygon fill="lightgray" stroke="none" points="95.75,-197.88 95.75,-214.12 198.25,-214.12 198.25,-197.88 95.75,-197.88"/>
<text xml:space="preserve" text-anchor="start" x="96.75" y="-201.72" font-family="Arial" font-size="12.00">TravelledWayLane</text>
<polygon fill="none" stroke="black" points="94.75,-196.88 94.75,-215.12 199.25,-215.12 199.25,-196.88 94.75,-196.88"/>
</a>
</g>
</g>
<!-- RoadLane&#45;&gt;TravelledWayLane -->
<g id="edge1" class="edge">
<title>RoadLane&#45;&gt;TravelledWayLane</title>
<path fill="none" stroke="black" d="M147,-150.71C147,-158.47 147,-167.92 147,-176.74"/>
<polygon fill="none" stroke="black" points="143.5,-176.66 147,-186.66 150.5,-176.66 143.5,-176.66"/>
</g>
<!-- Invis -->
<!-- RoadLane&#45;&gt;Invis -->
<!-- RoadSegment -->
<g id="node4" class="node">
<title>RoadSegment</title>
<g id="a_node4"><a xlink:href="../_counters/transportnetwork__RoadSegment.md" xlink:title="&lt;TABLE&gt;">
<polygon fill="lightgray" stroke="none" points="17.38,-25.88 17.38,-42.12 96.62,-42.12 96.62,-25.88 17.38,-25.88"/>
<text xml:space="preserve" text-anchor="start" x="18.38" y="-29.73" font-family="Arial" font-size="12.00">RoadSegment</text>
<polygon fill="none" stroke="black" points="16.38,-24.88 16.38,-43.12 97.62,-43.12 97.62,-24.88 16.38,-24.88"/>
</a>
</g>
</g>
<!-- RoadLane&#45;&gt;RoadSegment -->
<g id="edge6" class="edge">
<title>RoadLane&#45;&gt;RoadSegment</title>
<path fill="none" stroke="black" stroke-dasharray="5,2" d="M131.32,-115.1C117.13,-99.8 96.04,-77.07 79.94,-59.73"/>
<polygon fill="black" stroke="black" points="82.89,-57.76 73.53,-52.81 77.76,-62.52 82.89,-57.76"/>
<text xml:space="preserve" text-anchor="middle" x="203.46" y="-86.55" font-family="Arial" font-size="11.00"> onProperty: partwhole::properPartOf </text>
<text xml:space="preserve" text-anchor="middle" x="203.46" y="-73.05" font-family="Arial" font-size="11.00"> «min 1, only» &#160;</text>
</g>
<!-- Invis&#45;&gt;RoadSegment -->
</g>
</svg>
