<?xml version="1.0" encoding="UTF-8" standalone="no"?>
<!DOCTYPE svg PUBLIC "-//W3C//DTD SVG 1.1//EN"
 "http://www.w3.org/Graphics/SVG/1.1/DTD/svg11.dtd">
<!-- Generated by graphviz version 14.0.2 (20251019.1705)
 -->
<!-- Pages: 1 -->
<svg width="389pt" height="305pt"
 viewBox="0.00 0.00 389.00 305.00" xmlns="http://www.w3.org/2000/svg" xmlns:xlink="http://www.w3.org/1999/xlink">
<g id="graph0" class="graph" transform="scale(1 1) rotate(0) translate(4 301)">
<polygon fill="white" stroke="none" points="-4,4 -4,-301 384.58,-301 384.58,4 -4,4"/>
<g id="clust2" class="cluster">
<title>cluster_associated</title>
</g>
<!-- TransportNode -->
<g id="node1" class="node">
<title>TransportNode</title>
<g id="a_node1"><a xlink:href="../classes/transportnetwork__TransportNode.md" xlink:title="&lt;TABLE&gt;">
<polygon fill="lightgray" stroke="none" points="171.25,-197.88 171.25,-214.12 252.75,-214.12 252.75,-197.88 171.25,-197.88"/>
<text xml:space="preserve" text-anchor="start" x="172.25" y="-201.72" font-family="Arial" font-size="12.00">TransportNode</text>
<polygon fill="none" stroke="black" points="170.25,-196.88 170.25,-215.12 253.75,-215.12 253.75,-196.88 170.25,-196.88"/>
</a>
</g>
</g>
<!-- NetworkElement -->
<g id="node2" class="node">
<title>NetworkElement</title>
<g id="a_node2"><a xlink:href="../_counters/transportnetwork__NetworkElement.md" xlink:title="&lt;TABLE&gt;">
<polygon fill="lightgray" stroke="none" points="166.75,-270.88 166.75,-287.12 257.25,-287.12 257.25,-270.88 166.75,-270.88"/>
<text xml:space="preserve" text-anchor="start" x="167.75" y="-274.73" font-family="Arial" font-size="12.00">NetworkElement</text>
<polygon fill="none" stroke="black" points="165.75,-269.88 165.75,-288.12 258.25,-288.12 258.25,-269.88 165.75,-269.88"/>
</a>
</g>
</g>
<!-- TransportNode&#45;&gt;NetworkElement -->
<g id="edge1" class="edge">
<title>TransportNode&#45;&gt;NetworkElement</title>
<path fill="none" stroke="black" d="M212,-223.71C212,-231.47 212,-240.92 212,-249.74"/>
<polygon fill="none" stroke="black" points="208.5,-249.66 212,-259.66 215.5,-249.66 208.5,-249.66"/>
</g>
<!-- Invis -->
<!-- TransportNode&#45;&gt;Invis -->
<!-- TransportNetwork -->
<g id="node4" class="node">
<title>TransportNetwork</title>
<g id="a_node4"><a xlink:href="../_counters/transportnetwork__TransportNetwork.md" xlink:title="&lt;TABLE&gt;">
<polygon fill="lightgray" stroke="none" points="16.75,-98.88 16.75,-115.12 113.25,-115.12 113.25,-98.88 16.75,-98.88"/>
<text xml:space="preserve" text-anchor="start" x="17.75" y="-102.72" font-family="Arial" font-size="12.00">TransportNetwork</text>
<polygon fill="none" stroke="black" points="15.75,-97.88 15.75,-116.12 114.25,-116.12 114.25,-97.88 15.75,-97.88"/>
</a>
</g>
</g>
<!-- TransportNode&#45;&gt;TransportNetwork -->
<g id="edge7" class="edge">
<title>TransportNode&#45;&gt;TransportNetwork</title>
<path fill="none" stroke="black" stroke-dasharray="5,2" d="M170.43,-196.42C124.4,-186.82 56.35,-172.31 54.5,-170 46.79,-160.38 47.92,-147.19 51.6,-135.44"/>
<polygon fill="black" stroke="black" points="54.83,-136.79 55.15,-126.2 48.3,-134.28 54.83,-136.79"/>
<text xml:space="preserve" text-anchor="middle" x="145.25" y="-159.55" font-family="Arial" font-size="11.00"> onProperty: partwhole::properPartOf </text>
<text xml:space="preserve" text-anchor="middle" x="145.25" y="-146.05" font-family="Arial" font-size="11.00"> «min 1, only» &#160;</text>
</g>
<!-- TravelledWayLink -->
<g id="node5" class="node">
<title>TravelledWayLink</title>
<g id="a_node5"><a xlink:href="../_counters/transportnetwork__TravelledWayLink.md" xlink:title="&lt;TABLE&gt;">
<polygon fill="lightgray" stroke="none" points="17,-25.88 17,-42.12 115,-42.12 115,-25.88 17,-25.88"/>
<text xml:space="preserve" text-anchor="start" x="18" y="-29.73" font-family="Arial" font-size="12.00">TravelledWayLink</text>
<polygon fill="none" stroke="black" points="16,-24.88 16,-43.12 116,-43.12 116,-24.88 16,-24.88"/>
</a>
</g>
</g>
<!-- TransportNode&#45;&gt;TravelledWayLink -->
<g id="edge5" class="edge">
<title>TransportNode&#45;&gt;TravelledWayLink</title>
<path fill="none" stroke="black" d="M226.36,-188.15C235.41,-175.36 244,-157.57 236,-143 212.74,-100.66 165.07,-72.57 126.12,-55.67"/>
<polygon fill="black" stroke="black" points="127.88,-52.62 117.3,-51.99 125.18,-59.08 127.88,-52.62"/>
<text xml:space="preserve" text-anchor="middle" x="259.98" y="-110.05" font-family="Arial" font-size="11.00"> egress </text>
<text xml:space="preserve" text-anchor="middle" x="259.98" y="-96.55" font-family="Arial" font-size="11.00"> «min 1, only» &#160;</text>
</g>
<!-- TransportNode&#45;&gt;TravelledWayLink -->
<g id="edge6" class="edge">
<title>TransportNode&#45;&gt;TravelledWayLink</title>
<path fill="none" stroke="black" d="M240.82,-188.1C276.01,-165.35 327.62,-123.72 300,-89 278.77,-62.32 189.14,-47.69 127.18,-40.6"/>
<polygon fill="black" stroke="black" points="127.79,-37.14 117.47,-39.53 127.02,-44.1 127.79,-37.14"/>
<text xml:space="preserve" text-anchor="middle" x="344.2" y="-110.05" font-family="Arial" font-size="11.00"> ingress </text>
<text xml:space="preserve" text-anchor="middle" x="344.2" y="-96.55" font-family="Arial" font-size="11.00"> «min 1, only» &#160;</text>
</g>
<!-- Invis&#45;&gt;TransportNetwork -->
<!-- TransportNetwork&#45;&gt;TravelledWayLink -->
</g>
</svg>
