<?xml version="1.0" encoding="UTF-8" standalone="no"?>
<!DOCTYPE svg PUBLIC "-//W3C//DTD SVG 1.1//EN"
 "http://www.w3.org/Graphics/SVG/1.1/DTD/svg11.dtd">
<!-- Generated by graphviz version 14.0.2 (20251019.1705)
 -->
<!-- Pages: 1 -->
<svg width="350pt" height="404pt"
 viewBox="0.00 0.00 350.00 404.00" xmlns="http://www.w3.org/2000/svg" xmlns:xlink="http://www.w3.org/1999/xlink">
<g id="graph0" class="graph" transform="scale(1 1) rotate(0) translate(4 400)">
<polygon fill="white" stroke="none" points="-4,4 -4,-400 346.35,-400 346.35,4 -4,4"/>
<g id="clust2" class="cluster">
<title>cluster_associated</title>
</g>
<!-- PublicTransportRoute -->
<g id="node1" class="node">
<title>PublicTransportRoute</title>
<g id="a_node1"><a xlink:href="../classes/transportnetwork__PublicTransportRoute.md" xlink:title="&lt;TABLE&gt;">
<polygon fill="lightgray" stroke="none" points="144.88,-296.88 144.88,-313.12 263.12,-313.12 263.12,-296.88 144.88,-296.88"/>
<text xml:space="preserve" text-anchor="start" x="145.88" y="-300.73" font-family="Arial" font-size="12.00">PublicTransportRoute</text>
<polygon fill="none" stroke="black" points="143.88,-295.88 143.88,-314.12 264.12,-314.12 264.12,-295.88 143.88,-295.88"/>
</a>
</g>
</g>
<!-- PublicTransportElement -->
<g id="node2" class="node">
<title>PublicTransportElement</title>
<g id="a_node2"><a xlink:href="../_counters/transportnetwork__PublicTransportElement.md" xlink:title="&lt;TABLE&gt;">
<polygon fill="lightgray" stroke="none" points="138.88,-369.88 138.88,-386.12 269.12,-386.12 269.12,-369.88 138.88,-369.88"/>
<text xml:space="preserve" text-anchor="start" x="139.88" y="-373.73" font-family="Arial" font-size="12.00">PublicTransportElement</text>
<polygon fill="none" stroke="black" points="137.88,-368.88 137.88,-387.12 270.12,-387.12 270.12,-368.88 137.88,-368.88"/>
</a>
</g>
</g>
<!-- PublicTransportRoute&#45;&gt;PublicTransportElement -->
<g id="edge1" class="edge">
<title>PublicTransportRoute&#45;&gt;PublicTransportElement</title>
<path fill="none" stroke="black" d="M204,-322.71C204,-330.47 204,-339.92 204,-348.74"/>
<polygon fill="none" stroke="black" points="200.5,-348.66 204,-358.66 207.5,-348.66 200.5,-348.66"/>
</g>
<!-- Invis -->
<!-- PublicTransportRoute&#45;&gt;Invis -->
<!-- code__Code -->
<g id="node4" class="node">
<title>code__Code</title>
<polygon fill="lightgray" stroke="none" points="48.25,-197.88 48.25,-214.12 111.75,-214.12 111.75,-197.88 48.25,-197.88"/>
<text xml:space="preserve" text-anchor="start" x="49.25" y="-201.72" font-family="Arial" font-size="12.00">code::Code</text>
<polygon fill="none" stroke="black" points="47.25,-196.88 47.25,-215.12 112.75,-215.12 112.75,-196.88 47.25,-196.88"/>
</g>
<!-- PublicTransportRoute&#45;&gt;code__Code -->
<g id="edge6" class="edge">
<title>PublicTransportRoute&#45;&gt;code__Code</title>
<path fill="none" stroke="black" d="M143.97,-287.15C117.27,-279.4 91.32,-271.4 89.25,-269 81.34,-259.82 78.56,-246.9 77.94,-235.23"/>
<polygon fill="black" stroke="black" points="81.44,-235.25 77.96,-225.24 74.44,-235.23 81.44,-235.25"/>
<text xml:space="preserve" text-anchor="middle" x="125.62" y="-258.55" font-family="Arial" font-size="11.00"> direction </text>
<text xml:space="preserve" text-anchor="middle" x="125.62" y="-245.05" font-family="Arial" font-size="11.00"> «min 1, only» &#160;</text>
</g>
<!-- PointOnRoute -->
<g id="node5" class="node">
<title>PointOnRoute</title>
<g id="a_node5"><a xlink:href="../_counters/transportnetwork__PointOnRoute.md" xlink:title="&lt;TABLE&gt;">
<polygon fill="lightgray" stroke="none" points="41.12,-98.88 41.12,-115.12 118.88,-115.12 118.88,-98.88 41.12,-98.88"/>
<text xml:space="preserve" text-anchor="start" x="42.12" y="-102.72" font-family="Arial" font-size="12.00">PointOnRoute</text>
<polygon fill="none" stroke="black" points="40.12,-97.88 40.12,-116.12 119.88,-116.12 119.88,-97.88 40.12,-97.88"/>
</a>
</g>
</g>
<!-- PublicTransportRoute&#45;&gt;PointOnRoute -->
<g id="edge7" class="edge">
<title>PublicTransportRoute&#45;&gt;PointOnRoute</title>
<path fill="none" stroke="black" d="M193.43,-287.29C171.88,-253.24 122.75,-175.58 96.79,-134.54"/>
<polygon fill="black" stroke="black" points="99.83,-132.81 91.53,-126.23 93.92,-136.55 99.83,-132.81"/>
<text xml:space="preserve" text-anchor="middle" x="188.67" y="-209.05" font-family="Arial" font-size="11.00"> points </text>
<text xml:space="preserve" text-anchor="middle" x="188.67" y="-195.55" font-family="Arial" font-size="11.00"> «min 2, only» &#160;</text>
</g>
<!-- PublicTransportLine -->
<g id="node6" class="node">
<title>PublicTransportLine</title>
<g id="a_node6"><a xlink:href="../_counters/transportnetwork__PublicTransportLine.md" xlink:title="&lt;TABLE&gt;">
<polygon fill="lightgray" stroke="none" points="17.38,-25.88 17.38,-42.12 126.62,-42.12 126.62,-25.88 17.38,-25.88"/>
<text xml:space="preserve" text-anchor="start" x="18.38" y="-29.73" font-family="Arial" font-size="12.00">PublicTransportLine</text>
<polygon fill="none" stroke="black" points="16.38,-24.88 16.38,-43.12 127.62,-43.12 127.62,-24.88 16.38,-24.88"/>
</a>
</g>
</g>
<!-- PublicTransportRoute&#45;&gt;PublicTransportLine -->
<g id="edge8" class="edge">
<title>PublicTransportRoute&#45;&gt;PublicTransportLine</title>
<path fill="none" stroke="black" d="M213.68,-287.29C225.71,-264.22 243.04,-221.65 229,-188 205.09,-130.69 147.88,-84.28 109.53,-58.15"/>
<polygon fill="black" stroke="black" points="111.74,-55.42 101.48,-52.79 107.86,-61.25 111.74,-55.42"/>
<text xml:space="preserve" text-anchor="middle" x="281.22" y="-159.55" font-family="Arial" font-size="11.00"> partwhole::properPartOf </text>
<text xml:space="preserve" text-anchor="middle" x="281.22" y="-146.05" font-family="Arial" font-size="11.00"> «min 1, only» &#160;</text>
</g>
<!-- Invis&#45;&gt;code__Code -->
<!-- code__Code&#45;&gt;PointOnRoute -->
<!-- PointOnRoute&#45;&gt;PublicTransportLine -->
</g>
</svg>
