<?xml version="1.0" encoding="UTF-8" standalone="no"?>
<!DOCTYPE svg PUBLIC "-//W3C//DTD SVG 1.1//EN"
 "http://www.w3.org/Graphics/SVG/1.1/DTD/svg11.dtd">
<!-- Generated by graphviz version 14.0.2 (20251019.1705)
 -->
<!-- Pages: 1 -->
<svg width="428pt" height="305pt"
 viewBox="0.00 0.00 428.00 305.00" xmlns="http://www.w3.org/2000/svg" xmlns:xlink="http://www.w3.org/1999/xlink">
<g id="graph0" class="graph" transform="scale(1 1) rotate(0) translate(4 301)">
<polygon fill="white" stroke="none" points="-4,4 -4,-301 424.01,-301 424.01,4 -4,4"/>
<g id="clust2" class="cluster">
<title>cluster_associated</title>
</g>
<!-- Road -->
<g id="node1" class="node">
<title>Road</title>
<g id="a_node1"><a xlink:href="../classes/transportnetwork__Road.md" xlink:title="&lt;TABLE&gt;">
<polygon fill="lightgray" stroke="none" points="121.38,-197.88 121.38,-214.12 152.62,-214.12 152.62,-197.88 121.38,-197.88"/>
<text xml:space="preserve" text-anchor="start" x="122.38" y="-201.72" font-family="Arial" font-size="12.00">Road</text>
<polygon fill="none" stroke="black" points="120.38,-196.88 120.38,-215.12 153.62,-215.12 153.62,-196.88 120.38,-196.88"/>
</a>
</g>
</g>
<!-- transinfras__Road -->
<g id="node2" class="node">
<title>transinfras__Road</title>
<polygon fill="lightgray" stroke="none" points="38.62,-270.88 38.62,-287.12 131.38,-287.12 131.38,-270.88 38.62,-270.88"/>
<text xml:space="preserve" text-anchor="start" x="39.62" y="-274.73" font-family="Arial" font-size="12.00">transinfras::Road</text>
<polygon fill="none" stroke="black" points="37.62,-269.88 37.62,-288.12 132.38,-288.12 132.38,-269.88 37.62,-269.88"/>
</g>
<!-- Road&#45;&gt;transinfras__Road -->
<g id="edge1" class="edge">
<title>Road&#45;&gt;transinfras__Road</title>
<path fill="none" stroke="black" d="M124.77,-223.71C118.56,-232.17 110.89,-242.65 103.95,-252.13"/>
<polygon fill="none" stroke="black" points="101.3,-249.82 98.22,-259.95 106.95,-253.95 101.3,-249.82"/>
</g>
<!-- TravelledWay -->
<g id="node3" class="node">
<title>TravelledWay</title>
<g id="a_node3"><a xlink:href="../_counters/transportnetwork__TravelledWay.md" xlink:title="&lt;TABLE&gt;">
<polygon fill="lightgray" stroke="none" points="151.25,-270.88 151.25,-287.12 226.75,-287.12 226.75,-270.88 151.25,-270.88"/>
<text xml:space="preserve" text-anchor="start" x="152.25" y="-274.73" font-family="Arial" font-size="12.00">TravelledWay</text>
<polygon fill="none" stroke="black" points="150.25,-269.88 150.25,-288.12 227.75,-288.12 227.75,-269.88 150.25,-269.88"/>
</a>
</g>
</g>
<!-- Road&#45;&gt;TravelledWay -->
<g id="edge2" class="edge">
<title>Road&#45;&gt;TravelledWay</title>
<path fill="none" stroke="black" d="M149.23,-223.71C155.44,-232.17 163.11,-242.65 170.05,-252.13"/>
<polygon fill="none" stroke="black" points="167.05,-253.95 175.78,-259.95 172.7,-249.82 167.05,-253.95"/>
</g>
<!-- Invis -->
<!-- Road&#45;&gt;Invis -->
<!-- RoadLink -->
<g id="node5" class="node">
<title>RoadLink</title>
<g id="a_node5"><a xlink:href="../_counters/transportnetwork__RoadLink.md" xlink:title="&lt;TABLE&gt;">
<polygon fill="lightgray" stroke="none" points="28.12,-98.88 28.12,-115.12 81.88,-115.12 81.88,-98.88 28.12,-98.88"/>
<text xml:space="preserve" text-anchor="start" x="29.12" y="-102.72" font-family="Arial" font-size="12.00">RoadLink</text>
<polygon fill="none" stroke="black" points="27.12,-97.88 27.12,-116.12 82.88,-116.12 82.88,-97.88 27.12,-97.88"/>
</a>
</g>
</g>
<!-- Road&#45;&gt;RoadLink -->
<g id="edge6" class="edge">
<title>Road&#45;&gt;RoadLink</title>
<path fill="none" stroke="black" stroke-dasharray="5,2" d="M110.04,-190C108.68,-189.31 107.33,-188.64 106,-188 87.34,-179.01 75.56,-186.48 63,-170 55.77,-160.52 53.27,-147.76 52.78,-136.28"/>
<polygon fill="black" stroke="black" points="56.28,-136.51 52.86,-126.49 49.28,-136.46 56.28,-136.51"/>
<text xml:space="preserve" text-anchor="middle" x="157.5" y="-159.55" font-family="Arial" font-size="11.00"> onProperty: partwhole::hasProperPart </text>
<text xml:space="preserve" text-anchor="middle" x="157.5" y="-146.05" font-family="Arial" font-size="11.00"> «min 1, only» &#160;</text>
</g>
<!-- RoadNetwork -->
<g id="node6" class="node">
<title>RoadNetwork</title>
<g id="a_node6"><a xlink:href="../_counters/transportnetwork__RoadNetwork.md" xlink:title="&lt;TABLE&gt;">
<polygon fill="lightgray" stroke="none" points="17.25,-25.88 17.25,-42.12 92.75,-42.12 92.75,-25.88 17.25,-25.88"/>
<text xml:space="preserve" text-anchor="start" x="18.25" y="-29.73" font-family="Arial" font-size="12.00">RoadNetwork</text>
<polygon fill="none" stroke="black" points="16.25,-24.88 16.25,-43.12 93.75,-43.12 93.75,-24.88 16.25,-24.88"/>
</a>
</g>
</g>
<!-- Road&#45;&gt;RoadNetwork -->
<g id="edge7" class="edge">
<title>Road&#45;&gt;RoadNetwork</title>
<path fill="none" stroke="black" stroke-dasharray="5,2" d="M163.99,-205.3C191.17,-203.96 231.87,-197.16 252,-170 259.14,-160.36 258.11,-153.33 252,-143 220.35,-89.56 151.86,-60.82 104.6,-46.72"/>
<polygon fill="black" stroke="black" points="105.7,-43.4 95.13,-44.02 103.78,-50.13 105.7,-43.4"/>
<text xml:space="preserve" text-anchor="middle" x="329.26" y="-110.05" font-family="Arial" font-size="11.00"> onProperty: partwhole::properPartOf </text>
<text xml:space="preserve" text-anchor="middle" x="329.26" y="-96.55" font-family="Arial" font-size="11.00"> «only» &#160;</text>
</g>
<!-- Invis&#45;&gt;RoadLink -->
<!-- RoadLink&#45;&gt;RoadNetwork -->
</g>
</svg>
