<?xml version="1.0" encoding="UTF-8" standalone="no"?>
<!DOCTYPE svg PUBLIC "-//W3C//DTD SVG 1.1//EN"
 "http://www.w3.org/Graphics/SVG/1.1/DTD/svg11.dtd">
<!-- Generated by graphviz version 14.0.2 (20251019.1705)
 -->
<!-- Pages: 1 -->
<svg width="520pt" height="391pt"
 viewBox="0.00 0.00 520.00 391.00" xmlns="http://www.w3.org/2000/svg" xmlns:xlink="http://www.w3.org/1999/xlink">
<g id="graph0" class="graph" transform="scale(1 1) rotate(0) translate(4 386.5)">
<polygon fill="white" stroke="none" points="-4,4 -4,-386.5 516,-386.5 516,4 -4,4"/>
<g id="clust2" class="cluster">
<title>cluster_associated</title>
</g>
<!-- RoadNetwork -->
<g id="node1" class="node">
<title>RoadNetwork</title>
<g id="a_node1"><a xlink:href="../classes/transportnetwork__RoadNetwork.md" xlink:title="&lt;TABLE&gt;">
<polygon fill="lightgray" stroke="none" points="37.5,-257.38 37.5,-273.62 113,-273.62 113,-257.38 37.5,-257.38"/>
<text xml:space="preserve" text-anchor="start" x="38.5" y="-261.23" font-family="Arial" font-size="12.00">RoadNetwork</text>
<polygon fill="none" stroke="black" points="36.5,-256.38 36.5,-274.62 114,-274.62 114,-256.38 36.5,-256.38"/>
</a>
</g>
</g>
<!-- TransportNetwork -->
<g id="node2" class="node">
<title>TransportNetwork</title>
<g id="a_node2"><a xlink:href="../_counters/transportnetwork__TransportNetwork.md" xlink:title="&lt;TABLE&gt;">
<polygon fill="lightgray" stroke="none" points="1,-356.38 1,-372.62 97.5,-372.62 97.5,-356.38 1,-356.38"/>
<text xml:space="preserve" text-anchor="start" x="2" y="-360.23" font-family="Arial" font-size="12.00">TransportNetwork</text>
<polygon fill="none" stroke="black" points="0,-355.38 0,-373.62 98.5,-373.62 98.5,-355.38 0,-355.38"/>
</a>
</g>
</g>
<!-- RoadNetwork&#45;&gt;TransportNetwork -->
<g id="edge1" class="edge">
<title>RoadNetwork&#45;&gt;TransportNetwork</title>
<path fill="none" stroke="black" d="M69.02,-283.47C67.04,-289.16 64.93,-295.57 63.25,-301.5 60.15,-312.45 57.27,-324.65 54.94,-335.3"/>
<polygon fill="none" stroke="black" points="51.53,-334.55 52.88,-345.05 58.37,-336 51.53,-334.55"/>
</g>
<!-- Invis -->
<!-- RoadNetwork&#45;&gt;Invis -->
<!-- RoadLink -->
<g id="node5" class="node">
<title>RoadLink</title>
<g id="a_node5"><a xlink:href="../_counters/transportnetwork__RoadLink.md" xlink:title="&lt;TABLE&gt;">
<polygon fill="lightgray" stroke="none" points="304.38,-98.88 304.38,-115.12 358.12,-115.12 358.12,-98.88 304.38,-98.88"/>
<text xml:space="preserve" text-anchor="start" x="305.38" y="-102.72" font-family="Arial" font-size="12.00">RoadLink</text>
<polygon fill="none" stroke="black" points="303.38,-97.88 303.38,-116.12 359.12,-116.12 359.12,-97.88 303.38,-97.88"/>
</a>
</g>
</g>
<!-- RoadNetwork&#45;&gt;RoadLink -->
<g id="edge10" class="edge">
<title>RoadNetwork&#45;&gt;RoadLink</title>
<path fill="none" stroke="black" stroke-dasharray="5,2" d="M71.06,-247.66C66.56,-225.25 62.6,-185.68 83.25,-162 110.25,-131.03 229.51,-116.53 292.29,-110.93"/>
<polygon fill="black" stroke="black" points="292.51,-114.43 302.18,-110.09 291.92,-107.45 292.51,-114.43"/>
<text xml:space="preserve" text-anchor="middle" x="177.75" y="-183.05" font-family="Arial" font-size="11.00"> onProperty: partwhole::hasProperPart </text>
<text xml:space="preserve" text-anchor="middle" x="177.75" y="-169.55" font-family="Arial" font-size="11.00"> «min 1» &#160;</text>
</g>
<!-- N40a0ff7cb05d4229b94023de43fb21f2 -->
<g id="node7" class="node">
<title>N40a0ff7cb05d4229b94023de43fb21f2</title>
<polygon fill="lightyellow" stroke="none" points="315.5,-355.38 315.5,-373.62 375,-373.62 375,-355.38 315.5,-355.38"/>
<text xml:space="preserve" text-anchor="start" x="317.5" y="-360.23" font-family="Arial" font-size="12.00">«unionOf»</text>
<polygon fill="none" stroke="black" points="315.5,-355.38 315.5,-373.62 375,-373.62 375,-355.38 315.5,-355.38"/>
</g>
<!-- RoadNetwork&#45;&gt;N40a0ff7cb05d4229b94023de43fb21f2 -->
<g id="edge9" class="edge">
<title>RoadNetwork&#45;&gt;N40a0ff7cb05d4229b94023de43fb21f2</title>
<path fill="none" stroke="black" stroke-dasharray="5,2" d="M72.35,-283.37C70.98,-297.4 71.69,-316.89 83.25,-328.5 113.49,-358.87 239.08,-363.56 304.78,-363.87"/>
<polygon fill="black" stroke="black" points="304.42,-367.37 314.42,-363.88 304.42,-360.37 304.42,-367.37"/>
<text xml:space="preserve" text-anchor="middle" x="177.75" y="-318.05" font-family="Arial" font-size="11.00"> onProperty: partwhole::hasProperPart </text>
<text xml:space="preserve" text-anchor="middle" x="177.75" y="-304.55" font-family="Arial" font-size="11.00"> «only» &#160;</text>
</g>
<!-- Road -->
<g id="node4" class="node">
<title>Road</title>
<g id="a_node4"><a xlink:href="../_counters/transportnetwork__Road.md" xlink:title="&lt;TABLE&gt;">
<polygon fill="lightgray" stroke="none" points="325.62,-171.88 325.62,-188.12 356.88,-188.12 356.88,-171.88 325.62,-171.88"/>
<text xml:space="preserve" text-anchor="start" x="326.62" y="-175.72" font-family="Arial" font-size="12.00">Road</text>
<polygon fill="none" stroke="black" points="324.62,-170.88 324.62,-189.12 357.88,-189.12 357.88,-170.88 324.62,-170.88"/>
</a>
</g>
</g>
<!-- Invis&#45;&gt;Road -->
<!-- Road&#45;&gt;RoadLink -->
<!-- RoadSection -->
<g id="node6" class="node">
<title>RoadSection</title>
<g id="a_node6"><a xlink:href="../_counters/transportnetwork__RoadSection.md" xlink:title="&lt;TABLE&gt;">
<polygon fill="lightgray" stroke="none" points="301.38,-25.88 301.38,-42.12 373.12,-42.12 373.12,-25.88 301.38,-25.88"/>
<text xml:space="preserve" text-anchor="start" x="302.38" y="-29.73" font-family="Arial" font-size="12.00">RoadSection</text>
<polygon fill="none" stroke="black" points="300.38,-24.88 300.38,-43.12 374.12,-43.12 374.12,-24.88 300.38,-24.88"/>
</a>
</g>
</g>
<!-- RoadLink&#45;&gt;RoadSection -->
<!-- N40a0ff7cb05d4229b94023de43fb21f2&#45;&gt;Road -->
<g id="edge6" class="edge">
<title>N40a0ff7cb05d4229b94023de43fb21f2&#45;&gt;Road</title>
<path fill="none" stroke="black" stroke-dasharray="1,5" d="M355.13,-346.73C362.87,-332.56 373.02,-311.44 377.25,-291.5 381.31,-272.37 382.05,-266.46 377.25,-247.5 373.68,-233.42 366.48,-219.1 359.45,-207.37"/>
<polygon fill="black" stroke="black" points="362.51,-205.66 354.21,-199.07 356.59,-209.4 362.51,-205.66"/>
<text xml:space="preserve" text-anchor="middle" x="400.45" y="-261.8" font-family="Arial" font-size="11.00">member</text>
</g>
<!-- N40a0ff7cb05d4229b94023de43fb21f2&#45;&gt;RoadLink -->
<g id="edge7" class="edge">
<title>N40a0ff7cb05d4229b94023de43fb21f2&#45;&gt;RoadLink</title>
<path fill="none" stroke="black" stroke-dasharray="1,5" d="M333.41,-346.61C324.16,-332.54 311.82,-311.62 305.25,-291.5 294.78,-259.44 295.1,-249.65 297.5,-216 299.23,-191.82 298.19,-185.19 305.25,-162 308.02,-152.9 312.13,-143.42 316.26,-134.98"/>
<polygon fill="black" stroke="black" points="319.26,-136.8 320.73,-126.31 313.04,-133.6 319.26,-136.8"/>
<text xml:space="preserve" text-anchor="middle" x="317.38" y="-219.05" font-family="Arial" font-size="11.00">member</text>
</g>
<!-- N40a0ff7cb05d4229b94023de43fb21f2&#45;&gt;RoadSection -->
<g id="edge8" class="edge">
<title>N40a0ff7cb05d4229b94023de43fb21f2&#45;&gt;RoadSection</title>
<path fill="none" stroke="black" stroke-dasharray="1,5" d="M374.71,-355.31C412.22,-342.87 472.25,-315.33 472.25,-266.5 472.25,-266.5 472.25,-266.5 472.25,-106 472.25,-65.39 423.8,-47.95 384.95,-40.5"/>
<polygon fill="black" stroke="black" points="385.72,-37.08 375.27,-38.83 384.53,-43.98 385.72,-37.08"/>
<text xml:space="preserve" text-anchor="middle" x="492.12" y="-176.3" font-family="Arial" font-size="11.00">member</text>
</g>
</g>
</svg>
