<?xml version="1.0" encoding="UTF-8" standalone="no"?>
<!DOCTYPE svg PUBLIC "-//W3C//DTD SVG 1.1//EN"
 "http://www.w3.org/Graphics/SVG/1.1/DTD/svg11.dtd">
<!-- Generated by graphviz version 14.0.2 (20251019.1705)
 -->
<!-- Pages: 1 -->
<svg width="500pt" height="464pt"
 viewBox="0.00 0.00 500.00 464.00" xmlns="http://www.w3.org/2000/svg" xmlns:xlink="http://www.w3.org/1999/xlink">
<g id="graph0" class="graph" transform="scale(1 1) rotate(0) translate(4 459.5)">
<polygon fill="white" stroke="none" points="-4,4 -4,-459.5 496,-459.5 496,4 -4,4"/>
<g id="clust2" class="cluster">
<title>cluster_associated</title>
</g>
<!-- FootpathLink -->
<g id="node1" class="node">
<title>FootpathLink</title>
<g id="a_node1"><a xlink:href="../classes/transportnetwork__FootpathLink.md" xlink:title="&lt;TABLE&gt;">
<polygon fill="lightgray" stroke="none" points="243.12,-330.38 243.12,-346.62 314.88,-346.62 314.88,-330.38 243.12,-330.38"/>
<text xml:space="preserve" text-anchor="start" x="244.12" y="-334.23" font-family="Arial" font-size="12.00">FootpathLink</text>
<polygon fill="none" stroke="black" points="242.12,-329.38 242.12,-347.62 315.88,-347.62 315.88,-329.38 242.12,-329.38"/>
</a>
</g>
</g>
<!-- TravelledWayLink -->
<g id="node2" class="node">
<title>TravelledWayLink</title>
<g id="a_node2"><a xlink:href="../_counters/transportnetwork__TravelledWayLink.md" xlink:title="&lt;TABLE&gt;">
<polygon fill="lightgray" stroke="none" points="393,-429.38 393,-445.62 491,-445.62 491,-429.38 393,-429.38"/>
<text xml:space="preserve" text-anchor="start" x="394" y="-433.23" font-family="Arial" font-size="12.00">TravelledWayLink</text>
<polygon fill="none" stroke="black" points="392,-428.38 392,-446.62 492,-446.62 492,-428.38 392,-428.38"/>
</a>
</g>
</g>
<!-- FootpathLink&#45;&gt;TravelledWayLink -->
<g id="edge1" class="edge">
<title>FootpathLink&#45;&gt;TravelledWayLink</title>
<path fill="none" stroke="black" d="M315.54,-343.63C354.43,-348.77 412.47,-358.84 428,-374.5 436.8,-383.37 440.55,-396.53 442,-408.44"/>
<polygon fill="none" stroke="black" points="438.5,-408.49 442.68,-418.23 445.48,-408.01 438.5,-408.49"/>
</g>
<!-- Invis -->
<!-- FootpathLink&#45;&gt;Invis -->
<!-- FootpathSegment -->
<g id="node7" class="node">
<title>FootpathSegment</title>
<g id="a_node7"><a xlink:href="../_counters/transportnetwork__FootpathSegment.md" xlink:title="&lt;TABLE&gt;">
<polygon fill="lightgray" stroke="none" points="17.38,-25.88 17.38,-42.12 114.62,-42.12 114.62,-25.88 17.38,-25.88"/>
<text xml:space="preserve" text-anchor="start" x="18.38" y="-29.73" font-family="Arial" font-size="12.00">FootpathSegment</text>
<polygon fill="none" stroke="black" points="16.38,-24.88 16.38,-43.12 115.62,-43.12 115.62,-24.88 16.38,-24.88"/>
</a>
</g>
</g>
<!-- FootpathLink&#45;&gt;FootpathSegment -->
<g id="edge7" class="edge">
<title>FootpathLink&#45;&gt;FootpathSegment</title>
<path fill="none" stroke="black" stroke-dasharray="5,2" d="M279.32,-320.55C279.61,-303.68 280,-277.05 280,-254 280,-254 280,-254 280,-106 280,-73.46 189.73,-53.24 126.45,-43.06"/>
<polygon fill="black" stroke="black" points="127.28,-39.65 116.86,-41.57 126.2,-46.56 127.28,-39.65"/>
<text xml:space="preserve" text-anchor="middle" x="374.5" y="-183.05" font-family="Arial" font-size="11.00"> onProperty: partwhole::hasProperPart </text>
<text xml:space="preserve" text-anchor="middle" x="374.5" y="-169.55" font-family="Arial" font-size="11.00"> «min 1, only» &#160;</text>
</g>
<!-- Ne8e4c5c4aa4a408092c0edd29a745852 -->
<g id="node8" class="node">
<title>Ne8e4c5c4aa4a408092c0edd29a745852</title>
<polygon fill="lightyellow" stroke="none" points="163.25,-428.38 163.25,-446.62 222.75,-446.62 222.75,-428.38 163.25,-428.38"/>
<text xml:space="preserve" text-anchor="start" x="165.25" y="-433.23" font-family="Arial" font-size="12.00">«unionOf»</text>
<polygon fill="none" stroke="black" points="163.25,-428.38 163.25,-446.62 222.75,-446.62 222.75,-428.38 163.25,-428.38"/>
</g>
<!-- FootpathLink&#45;&gt;Ne8e4c5c4aa4a408092c0edd29a745852 -->
<g id="edge11" class="edge">
<title>FootpathLink&#45;&gt;Ne8e4c5c4aa4a408092c0edd29a745852</title>
<path fill="none" stroke="black" stroke-dasharray="5,2" d="M263.01,-356.48C257.71,-362.16 251.81,-368.57 246.5,-374.5 240.34,-381.39 226.63,-397.27 214.64,-411.24"/>
<polygon fill="black" stroke="black" points="212.32,-408.57 208.46,-418.44 217.63,-413.13 212.32,-408.57"/>
<text xml:space="preserve" text-anchor="middle" x="337.25" y="-391.05" font-family="Arial" font-size="11.00"> onProperty: partwhole::properPartOf </text>
<text xml:space="preserve" text-anchor="middle" x="337.25" y="-377.55" font-family="Arial" font-size="11.00"> «only» &#160;</text>
</g>
<!-- Footpath -->
<g id="node4" class="node">
<title>Footpath</title>
<g id="a_node4"><a xlink:href="../_counters/transportnetwork__Footpath.md" xlink:title="&lt;TABLE&gt;">
<polygon fill="lightgray" stroke="none" points="43.38,-244.88 43.38,-261.12 92.62,-261.12 92.62,-244.88 43.38,-244.88"/>
<text xml:space="preserve" text-anchor="start" x="44.38" y="-248.72" font-family="Arial" font-size="12.00">Footpath</text>
<polygon fill="none" stroke="black" points="42.38,-243.88 42.38,-262.12 93.62,-262.12 93.62,-243.88 42.38,-243.88"/>
</a>
</g>
</g>
<!-- Invis&#45;&gt;Footpath -->
<!-- FootpathNetwork -->
<g id="node5" class="node">
<title>FootpathNetwork</title>
<g id="a_node5"><a xlink:href="../_counters/transportnetwork__FootpathNetwork.md" xlink:title="&lt;TABLE&gt;">
<polygon fill="lightgray" stroke="none" points="21.25,-171.88 21.25,-188.12 114.75,-188.12 114.75,-171.88 21.25,-171.88"/>
<text xml:space="preserve" text-anchor="start" x="22.25" y="-175.72" font-family="Arial" font-size="12.00">FootpathNetwork</text>
<polygon fill="none" stroke="black" points="20.25,-170.88 20.25,-189.12 115.75,-189.12 115.75,-170.88 20.25,-170.88"/>
</a>
</g>
</g>
<!-- Footpath&#45;&gt;FootpathNetwork -->
<!-- FootpathSection -->
<g id="node6" class="node">
<title>FootpathSection</title>
<g id="a_node6"><a xlink:href="../_counters/transportnetwork__FootpathSection.md" xlink:title="&lt;TABLE&gt;">
<polygon fill="lightgray" stroke="none" points="23.12,-98.88 23.12,-115.12 112.88,-115.12 112.88,-98.88 23.12,-98.88"/>
<text xml:space="preserve" text-anchor="start" x="24.12" y="-102.72" font-family="Arial" font-size="12.00">FootpathSection</text>
<polygon fill="none" stroke="black" points="22.12,-97.88 22.12,-116.12 113.88,-116.12 113.88,-97.88 22.12,-97.88"/>
</a>
</g>
</g>
<!-- FootpathNetwork&#45;&gt;FootpathSection -->
<!-- FootpathSection&#45;&gt;FootpathSegment -->
<!-- Ne8e4c5c4aa4a408092c0edd29a745852&#45;&gt;Footpath -->
<g id="edge8" class="edge">
<title>Ne8e4c5c4aa4a408092c0edd29a745852&#45;&gt;Footpath</title>
<path fill="none" stroke="black" stroke-dasharray="1,5" d="M172.55,-419.77C156.8,-406.11 135.24,-385.67 120.25,-364.5 101.7,-338.31 86.83,-304.49 77.77,-281.21"/>
<polygon fill="black" stroke="black" points="81.14,-280.23 74.33,-272.11 74.59,-282.71 81.14,-280.23"/>
<text xml:space="preserve" text-anchor="middle" x="140.12" y="-334.8" font-family="Arial" font-size="11.00">member</text>
</g>
<!-- Ne8e4c5c4aa4a408092c0edd29a745852&#45;&gt;FootpathNetwork -->
<g id="edge9" class="edge">
<title>Ne8e4c5c4aa4a408092c0edd29a745852&#45;&gt;FootpathNetwork</title>
<path fill="none" stroke="black" stroke-dasharray="1,5" d="M189.91,-419.81C185.28,-396.76 175.4,-354.21 160,-320.5 141.13,-279.18 129.04,-272.9 104,-235 97.95,-225.85 91.3,-215.85 85.37,-206.97"/>
<polygon fill="black" stroke="black" points="88.37,-205.15 79.9,-198.78 82.55,-209.04 88.37,-205.15"/>
<text xml:space="preserve" text-anchor="middle" x="170.78" y="-292.05" font-family="Arial" font-size="11.00">member</text>
</g>
<!-- Ne8e4c5c4aa4a408092c0edd29a745852&#45;&gt;FootpathSection -->
<g id="edge10" class="edge">
<title>Ne8e4c5c4aa4a408092c0edd29a745852&#45;&gt;FootpathSection</title>
<path fill="none" stroke="black" stroke-dasharray="1,5" d="M198.39,-419.53C204.01,-400.31 212,-367.99 212,-339.5 212,-339.5 212,-339.5 212,-179 212,-138.23 165,-120.87 124.71,-113.48"/>
<polygon fill="black" stroke="black" points="125.49,-110.06 115.06,-111.9 124.36,-116.97 125.49,-110.06"/>
<text xml:space="preserve" text-anchor="middle" x="231.88" y="-249.3" font-family="Arial" font-size="11.00">member</text>
</g>
</g>
</svg>
