<?xml version="1.0" encoding="UTF-8" standalone="no"?>
<!DOCTYPE svg PUBLIC "-//W3C//DTD SVG 1.1//EN"
 "http://www.w3.org/Graphics/SVG/1.1/DTD/svg11.dtd">
<!-- Generated by graphviz version 14.0.2 (20251019.1705)
 -->
<!-- Pages: 1 -->
<svg width="486pt" height="464pt"
 viewBox="0.00 0.00 486.00 464.00" xmlns="http://www.w3.org/2000/svg" xmlns:xlink="http://www.w3.org/1999/xlink">
<g id="graph0" class="graph" transform="scale(1 1) rotate(0) translate(4 459.5)">
<polygon fill="white" stroke="none" points="-4,4 -4,-459.5 482,-459.5 482,4 -4,4"/>
<g id="clust2" class="cluster">
<title>cluster_associated</title>
</g>
<!-- MicromobilityLink -->
<g id="node1" class="node">
<title>MicromobilityLink</title>
<g id="a_node1"><a xlink:href="../classes/transportnetwork__MicromobilityLink.md" xlink:title="&lt;TABLE&gt;">
<polygon fill="lightgray" stroke="none" points="244.5,-330.38 244.5,-346.62 339.5,-346.62 339.5,-330.38 244.5,-330.38"/>
<text xml:space="preserve" text-anchor="start" x="245.5" y="-334.23" font-family="Arial" font-size="12.00">MicromobilityLink</text>
<polygon fill="none" stroke="black" points="243.5,-329.38 243.5,-347.62 340.5,-347.62 340.5,-329.38 243.5,-329.38"/>
</a>
</g>
</g>
<!-- RoadLink -->
<g id="node2" class="node">
<title>RoadLink</title>
<g id="a_node2"><a xlink:href="../_counters/transportnetwork__RoadLink.md" xlink:title="&lt;TABLE&gt;">
<polygon fill="lightgray" stroke="none" points="418.12,-429.38 418.12,-445.62 471.88,-445.62 471.88,-429.38 418.12,-429.38"/>
<text xml:space="preserve" text-anchor="start" x="419.12" y="-433.23" font-family="Arial" font-size="12.00">RoadLink</text>
<polygon fill="none" stroke="black" points="417.12,-428.38 417.12,-446.62 472.88,-446.62 472.88,-428.38 417.12,-428.38"/>
</a>
</g>
</g>
<!-- MicromobilityLink&#45;&gt;RoadLink -->
<g id="edge1" class="edge">
<title>MicromobilityLink&#45;&gt;RoadLink</title>
<path fill="none" stroke="black" d="M340.27,-346.19C375.18,-352.01 418.36,-361.54 431,-374.5 439.67,-383.39 443.42,-396.43 444.91,-408.27"/>
<polygon fill="none" stroke="black" points="441.4,-408.28 445.62,-418 448.38,-407.77 441.4,-408.28"/>
</g>
<!-- Invis -->
<!-- MicromobilityLink&#45;&gt;Invis -->
<!-- MicromobilityPathSegment -->
<g id="node7" class="node">
<title>MicromobilityPathSegment</title>
<g id="a_node7"><a xlink:href="../_counters/transportnetwork__MicromobilityPathSegment.md" xlink:title="&lt;TABLE&gt;">
<polygon fill="lightgray" stroke="none" points="17.38,-25.88 17.38,-42.12 162.62,-42.12 162.62,-25.88 17.38,-25.88"/>
<text xml:space="preserve" text-anchor="start" x="18.38" y="-29.73" font-family="Arial" font-size="12.00">MicromobilityPathSegment</text>
<polygon fill="none" stroke="black" points="16.38,-24.88 16.38,-43.12 163.62,-43.12 163.62,-24.88 16.38,-24.88"/>
</a>
</g>
</g>
<!-- MicromobilityLink&#45;&gt;MicromobilityPathSegment -->
<g id="edge7" class="edge">
<title>MicromobilityLink&#45;&gt;MicromobilityPathSegment</title>
<path fill="none" stroke="black" stroke-dasharray="5,2" d="M291.03,-320.55C290.16,-303.69 289,-277.06 289,-254 289,-254 289,-254 289,-106 289,-80.18 228.8,-61.28 174.62,-49.5"/>
<polygon fill="black" stroke="black" points="175.52,-46.12 165.02,-47.48 174.08,-52.97 175.52,-46.12"/>
<text xml:space="preserve" text-anchor="middle" x="383.5" y="-183.05" font-family="Arial" font-size="11.00"> onProperty: partwhole::hasProperPart </text>
<text xml:space="preserve" text-anchor="middle" x="383.5" y="-169.55" font-family="Arial" font-size="11.00"> «min 1, only» &#160;</text>
</g>
<!-- N062cbcf2a4454574a194720d742c7b84 -->
<g id="node8" class="node">
<title>N062cbcf2a4454574a194720d742c7b84</title>
<polygon fill="lightyellow" stroke="none" points="164.25,-428.38 164.25,-446.62 223.75,-446.62 223.75,-428.38 164.25,-428.38"/>
<text xml:space="preserve" text-anchor="start" x="166.25" y="-433.23" font-family="Arial" font-size="12.00">«unionOf»</text>
<polygon fill="none" stroke="black" points="164.25,-428.38 164.25,-446.62 223.75,-446.62 223.75,-428.38 164.25,-428.38"/>
</g>
<!-- MicromobilityLink&#45;&gt;N062cbcf2a4454574a194720d742c7b84 -->
<g id="edge11" class="edge">
<title>MicromobilityLink&#45;&gt;N062cbcf2a4454574a194720d742c7b84</title>
<path fill="none" stroke="black" stroke-dasharray="5,2" d="M270.22,-356.28C263.38,-361.85 255.94,-368.23 249.5,-374.5 238.1,-385.59 236.59,-389.63 226,-401.5 223.15,-404.7 220.13,-408.04 217.14,-411.34"/>
<polygon fill="black" stroke="black" points="214.56,-408.98 210.4,-418.72 219.73,-413.69 214.56,-408.98"/>
<text xml:space="preserve" text-anchor="middle" x="340.25" y="-391.05" font-family="Arial" font-size="11.00"> onProperty: partwhole::properPartOf </text>
<text xml:space="preserve" text-anchor="middle" x="340.25" y="-377.55" font-family="Arial" font-size="11.00"> «only» &#160;</text>
</g>
<!-- MicromobilityNetwork -->
<g id="node4" class="node">
<title>MicromobilityNetwork</title>
<g id="a_node4"><a xlink:href="../_counters/transportnetwork__MicromobilityNetwork.md" xlink:title="&lt;TABLE&gt;">
<polygon fill="lightgray" stroke="none" points="16.62,-244.88 16.62,-261.12 133.38,-261.12 133.38,-244.88 16.62,-244.88"/>
<text xml:space="preserve" text-anchor="start" x="17.62" y="-248.72" font-family="Arial" font-size="12.00">MicromobilityNetwork</text>
<polygon fill="none" stroke="black" points="15.62,-243.88 15.62,-262.12 134.38,-262.12 134.38,-243.88 15.62,-243.88"/>
</a>
</g>
</g>
<!-- Invis&#45;&gt;MicromobilityNetwork -->
<!-- MicromobilityPath -->
<g id="node5" class="node">
<title>MicromobilityPath</title>
<g id="a_node5"><a xlink:href="../_counters/transportnetwork__MicromobilityPath.md" xlink:title="&lt;TABLE&gt;">
<polygon fill="lightgray" stroke="none" points="43.38,-171.88 43.38,-188.12 140.62,-188.12 140.62,-171.88 43.38,-171.88"/>
<text xml:space="preserve" text-anchor="start" x="44.38" y="-175.72" font-family="Arial" font-size="12.00">MicromobilityPath</text>
<polygon fill="none" stroke="black" points="42.38,-170.88 42.38,-189.12 141.62,-189.12 141.62,-170.88 42.38,-170.88"/>
</a>
</g>
</g>
<!-- MicromobilityNetwork&#45;&gt;MicromobilityPath -->
<!-- MicromobilityPathSection -->
<g id="node6" class="node">
<title>MicromobilityPathSection</title>
<g id="a_node6"><a xlink:href="../_counters/transportnetwork__MicromobilityPathSection.md" xlink:title="&lt;TABLE&gt;">
<polygon fill="lightgray" stroke="none" points="23.12,-98.88 23.12,-115.12 160.88,-115.12 160.88,-98.88 23.12,-98.88"/>
<text xml:space="preserve" text-anchor="start" x="24.12" y="-102.72" font-family="Arial" font-size="12.00">MicromobilityPathSection</text>
<polygon fill="none" stroke="black" points="22.12,-97.88 22.12,-116.12 161.88,-116.12 161.88,-97.88 22.12,-97.88"/>
</a>
</g>
</g>
<!-- MicromobilityPath&#45;&gt;MicromobilityPathSection -->
<!-- MicromobilityPathSection&#45;&gt;MicromobilityPathSegment -->
<!-- N062cbcf2a4454574a194720d742c7b84&#45;&gt;MicromobilityNetwork -->
<g id="edge8" class="edge">
<title>N062cbcf2a4454574a194720d742c7b84&#45;&gt;MicromobilityNetwork</title>
<path fill="none" stroke="black" stroke-dasharray="1,5" d="M172.61,-419.76C156.49,-406.26 134.75,-386.02 120.25,-364.5 102.81,-338.62 90.23,-304.96 82.83,-281.62"/>
<polygon fill="black" stroke="black" points="86.22,-280.76 79.96,-272.21 79.53,-282.8 86.22,-280.76"/>
<text xml:space="preserve" text-anchor="middle" x="140.12" y="-334.8" font-family="Arial" font-size="11.00">member</text>
</g>
<!-- N062cbcf2a4454574a194720d742c7b84&#45;&gt;MicromobilityPath -->
<g id="edge9" class="edge">
<title>N062cbcf2a4454574a194720d742c7b84&#45;&gt;MicromobilityPath</title>
<path fill="none" stroke="black" stroke-dasharray="1,5" d="M190.25,-419.64C180.06,-374.19 152.04,-251.45 143,-235 137.18,-224.4 128.78,-214.33 120.48,-205.81"/>
<polygon fill="black" stroke="black" points="122.99,-203.37 113.38,-198.91 118.11,-208.39 122.99,-203.37"/>
<text xml:space="preserve" text-anchor="middle" x="182.44" y="-292.05" font-family="Arial" font-size="11.00">member</text>
</g>
<!-- N062cbcf2a4454574a194720d742c7b84&#45;&gt;MicromobilityPathSection -->
<g id="edge10" class="edge">
<title>N062cbcf2a4454574a194720d742c7b84&#45;&gt;MicromobilityPathSection</title>
<path fill="none" stroke="black" stroke-dasharray="1,5" d="M197.81,-419.5C203.38,-391.86 212.16,-335.57 203,-289 191.22,-229.16 185.9,-212.02 151,-162 143.4,-151.1 133.23,-140.8 123.49,-132.18"/>
<polygon fill="black" stroke="black" points="125.78,-129.54 115.89,-125.74 121.26,-134.88 125.78,-129.54"/>
<text xml:space="preserve" text-anchor="middle" x="219.12" y="-249.3" font-family="Arial" font-size="11.00">member</text>
</g>
</g>
</svg>
