<?xml version="1.0" encoding="UTF-8" standalone="no"?>
<!DOCTYPE svg PUBLIC "-//W3C//DTD SVG 1.1//EN"
 "http://www.w3.org/Graphics/SVG/1.1/DTD/svg11.dtd">
<!-- Generated by graphviz version 14.0.2 (20251019.1705)
 -->
<!-- Pages: 1 -->
<svg width="262pt" height="132pt"
 viewBox="0.00 0.00 262.00 132.00" xmlns="http://www.w3.org/2000/svg" xmlns:xlink="http://www.w3.org/1999/xlink">
<g id="graph0" class="graph" transform="scale(1 1) rotate(0) translate(4 128)">
<polygon fill="white" stroke="none" points="-4,4 -4,-128 258,-128 258,4 -4,4"/>
<g id="clust2" class="cluster">
<title>cluster_associated</title>
</g>
<!-- PublicTransportSystemPattern -->
<g id="node1" class="node">
<title>PublicTransportSystemPattern</title>
<g id="a_node1"><a xlink:href="../classes/transportnetwork__PublicTransportSystemPattern.md" xlink:title="&lt;TABLE&gt;">
<polygon fill="lightgray" stroke="none" points="1,-25.88 1,-42.12 165,-42.12 165,-25.88 1,-25.88"/>
<text xml:space="preserve" text-anchor="start" x="2" y="-29.73" font-family="Arial" font-size="12.00">PublicTransportSystemPattern</text>
<polygon fill="none" stroke="black" points="0,-24.88 0,-43.12 166,-43.12 166,-24.88 0,-24.88"/>
</a>
</g>
</g>
<!-- ITSPattern -->
<g id="node2" class="node">
<title>ITSPattern</title>
<g id="a_node2"><a xlink:href="../_counters/transportnetwork__ITSPattern.md" xlink:title="&lt;TABLE&gt;">
<polygon fill="lightgray" stroke="none" points="53.5,-97.88 53.5,-114.12 112.5,-114.12 112.5,-97.88 53.5,-97.88"/>
<text xml:space="preserve" text-anchor="start" x="54.5" y="-101.72" font-family="Arial" font-size="12.00">ITSPattern</text>
<polygon fill="none" stroke="black" points="52.5,-96.88 52.5,-115.12 113.5,-115.12 113.5,-96.88 52.5,-96.88"/>
</a>
</g>
</g>
<!-- PublicTransportSystemPattern&#45;&gt;ITSPattern -->
<g id="edge1" class="edge">
<title>PublicTransportSystemPattern&#45;&gt;ITSPattern</title>
<path fill="none" stroke="black" d="M83,-51.79C83,-59.25 83,-68.24 83,-76.69"/>
<polygon fill="none" stroke="black" points="79.5,-76.54 83,-86.54 86.5,-76.54 79.5,-76.54"/>
</g>
<!-- Invis -->
</g>
</svg>
