<?xml version="1.0" encoding="UTF-8" standalone="no"?>
<!DOCTYPE svg PUBLIC "-//W3C//DTD SVG 1.1//EN"
 "http://www.w3.org/Graphics/SVG/1.1/DTD/svg11.dtd">
<!-- Generated by graphviz version 14.0.2 (20251019.1705)
 -->
<!-- Pages: 1 -->
<svg width="430pt" height="378pt"
 viewBox="0.00 0.00 430.00 378.00" xmlns="http://www.w3.org/2000/svg" xmlns:xlink="http://www.w3.org/1999/xlink">
<g id="graph0" class="graph" transform="scale(1 1) rotate(0) translate(4 374)">
<polygon fill="white" stroke="none" points="-4,4 -4,-374 425.75,-374 425.75,4 -4,4"/>
<g id="clust2" class="cluster">
<title>cluster_associated</title>
</g>
<!-- FootpathSection -->
<g id="node1" class="node">
<title>FootpathSection</title>
<g id="a_node1"><a xlink:href="../classes/transportnetwork__FootpathSection.md" xlink:title="&lt;TABLE&gt;">
<polygon fill="lightgray" stroke="none" points="165.12,-244.88 165.12,-261.12 254.88,-261.12 254.88,-244.88 165.12,-244.88"/>
<text xml:space="preserve" text-anchor="start" x="166.12" y="-248.72" font-family="Arial" font-size="12.00">FootpathSection</text>
<polygon fill="none" stroke="black" points="164.12,-243.88 164.12,-262.12 255.88,-262.12 255.88,-243.88 164.12,-243.88"/>
</a>
</g>
</g>
<!-- TravelledWaySection -->
<g id="node2" class="node">
<title>TravelledWaySection</title>
<g id="a_node2"><a xlink:href="../_counters/transportnetwork__TravelledWaySection.md" xlink:title="&lt;TABLE&gt;">
<polygon fill="lightgray" stroke="none" points="19,-343.88 19,-360.12 135,-360.12 135,-343.88 19,-343.88"/>
<text xml:space="preserve" text-anchor="start" x="20" y="-347.73" font-family="Arial" font-size="12.00">TravelledWaySection</text>
<polygon fill="none" stroke="black" points="18,-342.88 18,-361.12 136,-361.12 136,-342.88 18,-342.88"/>
</a>
</g>
</g>
<!-- FootpathSection&#45;&gt;TravelledWaySection -->
<g id="edge1" class="edge">
<title>FootpathSection&#45;&gt;TravelledWaySection</title>
<path fill="none" stroke="black" d="M187.1,-270.7C165.64,-286.36 133.34,-309.91 109.27,-327.46"/>
<polygon fill="none" stroke="black" points="107.41,-324.49 101.39,-333.21 111.53,-330.15 107.41,-324.49"/>
</g>
<!-- Invis -->
<!-- FootpathSection&#45;&gt;Invis -->
<!-- FootpathNetwork -->
<g id="node5" class="node">
<title>FootpathNetwork</title>
<g id="a_node5"><a xlink:href="../_counters/transportnetwork__FootpathNetwork.md" xlink:title="&lt;TABLE&gt;">
<polygon fill="lightgray" stroke="none" points="20.25,-98.88 20.25,-115.12 113.75,-115.12 113.75,-98.88 20.25,-98.88"/>
<text xml:space="preserve" text-anchor="start" x="21.25" y="-102.72" font-family="Arial" font-size="12.00">FootpathNetwork</text>
<polygon fill="none" stroke="black" points="19.25,-97.88 19.25,-116.12 114.75,-116.12 114.75,-97.88 19.25,-97.88"/>
</a>
</g>
</g>
<!-- FootpathSection&#45;&gt;FootpathNetwork -->
<g id="edge9" class="edge">
<title>FootpathSection&#45;&gt;FootpathNetwork</title>
<path fill="none" stroke="black" stroke-dasharray="5,2" d="M193.32,-235.2C168.24,-209.95 120.67,-162.05 91.61,-132.78"/>
<polygon fill="black" stroke="black" points="94.17,-130.4 84.64,-125.77 89.21,-135.33 94.17,-130.4"/>
<text xml:space="preserve" text-anchor="middle" x="245.8" y="-183.05" font-family="Arial" font-size="11.00"> onProperty: partwhole::properPartOf </text>
<text xml:space="preserve" text-anchor="middle" x="245.8" y="-169.55" font-family="Arial" font-size="11.00"> «only» &#160;</text>
</g>
<!-- Ndb8dd05a698345509a4366868b854c07 -->
<g id="node7" class="node">
<title>Ndb8dd05a698345509a4366868b854c07</title>
<polygon fill="lightyellow" stroke="none" points="154.25,-342.88 154.25,-361.12 213.75,-361.12 213.75,-342.88 154.25,-342.88"/>
<text xml:space="preserve" text-anchor="start" x="156.25" y="-347.73" font-family="Arial" font-size="12.00">«unionOf»</text>
<polygon fill="none" stroke="black" points="154.25,-342.88 154.25,-361.12 213.75,-361.12 213.75,-342.88 154.25,-342.88"/>
</g>
<!-- FootpathSection&#45;&gt;Ndb8dd05a698345509a4366868b854c07 -->
<g id="edge8" class="edge">
<title>FootpathSection&#45;&gt;Ndb8dd05a698345509a4366868b854c07</title>
<path fill="none" stroke="black" stroke-dasharray="5,2" d="M190.74,-270.81C185.99,-276.1 181.53,-282.32 179,-289 174.95,-299.68 175.1,-312.11 176.67,-323.03"/>
<polygon fill="black" stroke="black" points="173.19,-323.48 178.52,-332.65 180.07,-322.16 173.19,-323.48"/>
<text xml:space="preserve" text-anchor="middle" x="273.5" y="-305.55" font-family="Arial" font-size="11.00"> onProperty: partwhole::hasProperPart </text>
<text xml:space="preserve" text-anchor="middle" x="273.5" y="-292.05" font-family="Arial" font-size="11.00"> «only» &#160;</text>
</g>
<!-- FootpathLink -->
<g id="node4" class="node">
<title>FootpathLink</title>
<g id="a_node4"><a xlink:href="../_counters/transportnetwork__FootpathLink.md" xlink:title="&lt;TABLE&gt;">
<polygon fill="lightgray" stroke="none" points="31.12,-171.88 31.12,-188.12 102.88,-188.12 102.88,-171.88 31.12,-171.88"/>
<text xml:space="preserve" text-anchor="start" x="32.12" y="-175.72" font-family="Arial" font-size="12.00">FootpathLink</text>
<polygon fill="none" stroke="black" points="30.12,-170.88 30.12,-189.12 103.88,-189.12 103.88,-170.88 30.12,-170.88"/>
</a>
</g>
</g>
<!-- Invis&#45;&gt;FootpathLink -->
<!-- FootpathLink&#45;&gt;FootpathNetwork -->
<!-- FootpathSegment -->
<g id="node6" class="node">
<title>FootpathSegment</title>
<g id="a_node6"><a xlink:href="../_counters/transportnetwork__FootpathSegment.md" xlink:title="&lt;TABLE&gt;">
<polygon fill="lightgray" stroke="none" points="17.38,-25.88 17.38,-42.12 114.62,-42.12 114.62,-25.88 17.38,-25.88"/>
<text xml:space="preserve" text-anchor="start" x="18.38" y="-29.73" font-family="Arial" font-size="12.00">FootpathSegment</text>
<polygon fill="none" stroke="black" points="16.38,-24.88 16.38,-43.12 115.62,-43.12 115.62,-24.88 16.38,-24.88"/>
</a>
</g>
</g>
<!-- FootpathNetwork&#45;&gt;FootpathSegment -->
<!-- Ndb8dd05a698345509a4366868b854c07&#45;&gt;FootpathLink -->
<g id="edge6" class="edge">
<title>Ndb8dd05a698345509a4366868b854c07&#45;&gt;FootpathLink</title>
<path fill="none" stroke="black" stroke-dasharray="1,5" d="M164.83,-334C150.03,-320.19 129.7,-299.68 115.25,-279 99.67,-256.7 86.4,-228.63 77.74,-208.25"/>
<polygon fill="black" stroke="black" points="81.06,-207.1 74,-199.2 74.59,-209.78 81.06,-207.1"/>
<text xml:space="preserve" text-anchor="middle" x="135.12" y="-249.3" font-family="Arial" font-size="11.00">member</text>
</g>
<!-- Ndb8dd05a698345509a4366868b854c07&#45;&gt;FootpathSegment -->
<g id="edge7" class="edge">
<title>Ndb8dd05a698345509a4366868b854c07&#45;&gt;FootpathSegment</title>
<path fill="none" stroke="black" stroke-dasharray="1,5" d="M213.62,-349.24C259.91,-345.87 346.37,-336.9 368,-316 388.31,-296.37 382,-282.25 382,-254 382,-254 382,-254 382,-106 382,-54.23 218.53,-40.2 126.74,-36.41"/>
<polygon fill="black" stroke="black" points="127.01,-32.91 116.89,-36.03 126.75,-39.91 127.01,-32.91"/>
<text xml:space="preserve" text-anchor="middle" x="401.88" y="-176.3" font-family="Arial" font-size="11.00">member</text>
</g>
</g>
</svg>
