<?xml version="1.0" encoding="UTF-8" standalone="no"?>
<!DOCTYPE svg PUBLIC "-//W3C//DTD SVG 1.1//EN"
 "http://www.w3.org/Graphics/SVG/1.1/DTD/svg11.dtd">
<!-- Generated by graphviz version 14.0.2 (20251019.1705)
 -->
<!-- Pages: 1 -->
<svg width="475pt" height="318pt"
 viewBox="0.00 0.00 475.00 318.00" xmlns="http://www.w3.org/2000/svg" xmlns:xlink="http://www.w3.org/1999/xlink">
<g id="graph0" class="graph" transform="scale(1 1) rotate(0) translate(4 313.5)">
<polygon fill="white" stroke="none" points="-4,4 -4,-313.5 470.75,-313.5 470.75,4 -4,4"/>
<g id="clust2" class="cluster">
<title>cluster_associated</title>
</g>
<!-- TrackSegment -->
<g id="node1" class="node">
<title>TrackSegment</title>
<g id="a_node1"><a xlink:href="../classes/transportnetwork__TrackSegment.md" xlink:title="&lt;TABLE&gt;">
<polygon fill="lightgray" stroke="none" points="203.38,-184.38 203.38,-200.62 282.62,-200.62 282.62,-184.38 203.38,-184.38"/>
<text xml:space="preserve" text-anchor="start" x="204.38" y="-188.22" font-family="Arial" font-size="12.00">TrackSegment</text>
<polygon fill="none" stroke="black" points="202.38,-183.38 202.38,-201.62 283.62,-201.62 283.62,-183.38 202.38,-183.38"/>
</a>
</g>
</g>
<!-- TravelledWaySegment -->
<g id="node2" class="node">
<title>TravelledWaySegment</title>
<g id="a_node2"><a xlink:href="../_counters/transportnetwork__TravelledWaySegment.md" xlink:title="&lt;TABLE&gt;">
<polygon fill="lightgray" stroke="none" points="342.25,-283.38 342.25,-299.62 465.75,-299.62 465.75,-283.38 342.25,-283.38"/>
<text xml:space="preserve" text-anchor="start" x="343.25" y="-287.23" font-family="Arial" font-size="12.00">TravelledWaySegment</text>
<polygon fill="none" stroke="black" points="341.25,-282.38 341.25,-300.62 466.75,-300.62 466.75,-282.38 341.25,-282.38"/>
</a>
</g>
</g>
<!-- TrackSegment&#45;&gt;TravelledWaySegment -->
<g id="edge1" class="edge">
<title>TrackSegment&#45;&gt;TravelledWaySegment</title>
<path fill="none" stroke="black" d="M283.29,-198.28C321.51,-203.63 375.25,-213.57 390,-228.5 398.79,-237.39 402.54,-250.55 403.99,-262.46"/>
<polygon fill="none" stroke="black" points="400.48,-262.5 404.67,-272.24 407.47,-262.02 400.48,-262.5"/>
</g>
<!-- Invis -->
<!-- TrackSegment&#45;&gt;Invis -->
<!-- TrackLink -->
<g id="node5" class="node">
<title>TrackLink</title>
<g id="a_node5"><a xlink:href="../_counters/transportnetwork__TrackLink.md" xlink:title="&lt;TABLE&gt;">
<polygon fill="lightgray" stroke="none" points="27.12,-25.88 27.12,-42.12 80.88,-42.12 80.88,-25.88 27.12,-25.88"/>
<text xml:space="preserve" text-anchor="start" x="28.12" y="-29.73" font-family="Arial" font-size="12.00">TrackLink</text>
<polygon fill="none" stroke="black" points="26.12,-24.88 26.12,-43.12 81.88,-43.12 81.88,-24.88 26.12,-24.88"/>
</a>
</g>
</g>
<!-- TrackSegment&#45;&gt;TrackLink -->
<g id="edge8" class="edge">
<title>TrackSegment&#45;&gt;TrackLink</title>
<path fill="none" stroke="black" stroke-dasharray="5,2" d="M240.12,-174.59C234.73,-148.22 220.57,-97.47 188,-70 161.51,-47.66 122.37,-39.38 93.22,-36.41"/>
<polygon fill="black" stroke="black" points="93.56,-32.93 83.31,-35.59 92.98,-39.9 93.56,-32.93"/>
<text xml:space="preserve" text-anchor="middle" x="315.5" y="-110.05" font-family="Arial" font-size="11.00"> onProperty: partwhole::properPartOf </text>
<text xml:space="preserve" text-anchor="middle" x="315.5" y="-96.55" font-family="Arial" font-size="11.00"> «exactly 1» &#160;</text>
</g>
<!-- N231df07fe0174e10a41c694e274c2e44 -->
<g id="node6" class="node">
<title>N231df07fe0174e10a41c694e274c2e44</title>
<polygon fill="lightyellow" stroke="none" points="144.25,-282.38 144.25,-300.62 203.75,-300.62 203.75,-282.38 144.25,-282.38"/>
<text xml:space="preserve" text-anchor="start" x="146.25" y="-287.23" font-family="Arial" font-size="12.00">«unionOf»</text>
<polygon fill="none" stroke="black" points="144.25,-282.38 144.25,-300.62 203.75,-300.62 203.75,-282.38 144.25,-282.38"/>
</g>
<!-- TrackSegment&#45;&gt;N231df07fe0174e10a41c694e274c2e44 -->
<g id="edge7" class="edge">
<title>TrackSegment&#45;&gt;N231df07fe0174e10a41c694e274c2e44</title>
<path fill="none" stroke="black" stroke-dasharray="5,2" d="M224.46,-210.45C218.99,-215.93 213.21,-222.22 208.5,-228.5 200.38,-239.33 192.88,-252.29 186.96,-263.55"/>
<polygon fill="black" stroke="black" points="183.89,-261.85 182.48,-272.35 190.13,-265.03 183.89,-261.85"/>
<text xml:space="preserve" text-anchor="middle" x="299.25" y="-245.05" font-family="Arial" font-size="11.00"> onProperty: partwhole::properPartOf </text>
<text xml:space="preserve" text-anchor="middle" x="299.25" y="-231.55" font-family="Arial" font-size="11.00"> «only» &#160;</text>
</g>
<!-- RailSection -->
<g id="node4" class="node">
<title>RailSection</title>
<g id="a_node4"><a xlink:href="../_counters/transportnetwork__RailSection.md" xlink:title="&lt;TABLE&gt;">
<polygon fill="lightgray" stroke="none" points="16.88,-98.88 16.88,-115.12 81.12,-115.12 81.12,-98.88 16.88,-98.88"/>
<text xml:space="preserve" text-anchor="start" x="17.88" y="-102.72" font-family="Arial" font-size="12.00">RailSection</text>
<polygon fill="none" stroke="black" points="15.88,-97.88 15.88,-116.12 82.12,-116.12 82.12,-97.88 15.88,-97.88"/>
</a>
</g>
</g>
<!-- Invis&#45;&gt;RailSection -->
<!-- RailSection&#45;&gt;TrackLink -->
<!-- N231df07fe0174e10a41c694e274c2e44&#45;&gt;RailSection -->
<g id="edge5" class="edge">
<title>N231df07fe0174e10a41c694e274c2e44&#45;&gt;RailSection</title>
<path fill="none" stroke="black" stroke-dasharray="1,5" d="M160.85,-273.57C149.76,-259.13 133.6,-237.72 120.25,-218.5 100.6,-190.21 79.36,-156.88 65.23,-134.28"/>
<polygon fill="black" stroke="black" points="68.33,-132.63 60.07,-125.99 62.39,-136.33 68.33,-132.63"/>
<text xml:space="preserve" text-anchor="middle" x="140.12" y="-188.8" font-family="Arial" font-size="11.00">member</text>
</g>
<!-- N231df07fe0174e10a41c694e274c2e44&#45;&gt;TrackLink -->
<g id="edge6" class="edge">
<title>N231df07fe0174e10a41c694e274c2e44&#45;&gt;TrackLink</title>
<path fill="none" stroke="black" stroke-dasharray="1,5" d="M174.67,-273.68C175.01,-250.49 173.48,-207.78 160,-174.5 141.73,-129.42 104.92,-86.22 79.87,-60.15"/>
<polygon fill="black" stroke="black" points="82.42,-57.76 72.92,-53.06 77.42,-62.66 82.42,-57.76"/>
<text xml:space="preserve" text-anchor="middle" x="171.51" y="-146.05" font-family="Arial" font-size="11.00">member</text>
</g>
</g>
</svg>
