<?xml version="1.0" encoding="UTF-8" standalone="no"?>
<!DOCTYPE svg PUBLIC "-//W3C//DTD SVG 1.1//EN"
 "http://www.w3.org/Graphics/SVG/1.1/DTD/svg11.dtd">
<!-- Generated by graphviz version 14.0.2 (20251019.1705)
 -->
<!-- Pages: 1 -->
<svg width="426pt" height="305pt"
 viewBox="0.00 0.00 426.00 305.00" xmlns="http://www.w3.org/2000/svg" xmlns:xlink="http://www.w3.org/1999/xlink">
<g id="graph0" class="graph" transform="scale(1 1) rotate(0) translate(4 301)">
<polygon fill="white" stroke="none" points="-4,4 -4,-301 422.26,-301 422.26,4 -4,4"/>
<g id="clust2" class="cluster">
<title>cluster_associated</title>
</g>
<!-- RailCorridor -->
<g id="node1" class="node">
<title>RailCorridor</title>
<g id="a_node1"><a xlink:href="../classes/transportnetwork__RailCorridor.md" xlink:title="&lt;TABLE&gt;">
<polygon fill="lightgray" stroke="none" points="106.38,-197.88 106.38,-214.12 173.62,-214.12 173.62,-197.88 106.38,-197.88"/>
<text xml:space="preserve" text-anchor="start" x="107.38" y="-201.72" font-family="Arial" font-size="12.00">RailCorridor</text>
<polygon fill="none" stroke="black" points="105.38,-196.88 105.38,-215.12 174.62,-215.12 174.62,-196.88 105.38,-196.88"/>
</a>
</g>
</g>
<!-- TravelledWay -->
<g id="node2" class="node">
<title>TravelledWay</title>
<g id="a_node2"><a xlink:href="../_counters/transportnetwork__TravelledWay.md" xlink:title="&lt;TABLE&gt;">
<polygon fill="lightgray" stroke="none" points="102.25,-270.88 102.25,-287.12 177.75,-287.12 177.75,-270.88 102.25,-270.88"/>
<text xml:space="preserve" text-anchor="start" x="103.25" y="-274.73" font-family="Arial" font-size="12.00">TravelledWay</text>
<polygon fill="none" stroke="black" points="101.25,-269.88 101.25,-288.12 178.75,-288.12 178.75,-269.88 101.25,-269.88"/>
</a>
</g>
</g>
<!-- RailCorridor&#45;&gt;TravelledWay -->
<g id="edge1" class="edge">
<title>RailCorridor&#45;&gt;TravelledWay</title>
<path fill="none" stroke="black" d="M140,-223.71C140,-231.47 140,-240.92 140,-249.74"/>
<polygon fill="none" stroke="black" points="136.5,-249.66 140,-259.66 143.5,-249.66 136.5,-249.66"/>
</g>
<!-- Invis -->
<!-- RailCorridor&#45;&gt;Invis -->
<!-- RailNetwork -->
<g id="node4" class="node">
<title>RailNetwork</title>
<g id="a_node4"><a xlink:href="../_counters/transportnetwork__RailNetwork.md" xlink:title="&lt;TABLE&gt;">
<polygon fill="lightgray" stroke="none" points="17,-98.88 17,-115.12 85,-115.12 85,-98.88 17,-98.88"/>
<text xml:space="preserve" text-anchor="start" x="18" y="-102.72" font-family="Arial" font-size="12.00">RailNetwork</text>
<polygon fill="none" stroke="black" points="16,-97.88 16,-116.12 86,-116.12 86,-97.88 16,-97.88"/>
</a>
</g>
</g>
<!-- RailCorridor&#45;&gt;RailNetwork -->
<g id="edge6" class="edge">
<title>RailCorridor&#45;&gt;RailNetwork</title>
<path fill="none" stroke="black" stroke-dasharray="5,2" d="M105.45,-190.67C84.73,-181.93 62.07,-172.05 60.5,-170 53.22,-160.51 50.44,-147.75 49.64,-136.27"/>
<polygon fill="black" stroke="black" points="53.14,-136.41 49.44,-126.48 46.14,-136.55 53.14,-136.41"/>
<text xml:space="preserve" text-anchor="middle" x="151.25" y="-159.55" font-family="Arial" font-size="11.00"> onProperty: partwhole::properPartOf </text>
<text xml:space="preserve" text-anchor="middle" x="151.25" y="-146.05" font-family="Arial" font-size="11.00"> «only» &#160;</text>
</g>
<!-- TrackLink -->
<g id="node5" class="node">
<title>TrackLink</title>
<g id="a_node5"><a xlink:href="../_counters/transportnetwork__TrackLink.md" xlink:title="&lt;TABLE&gt;">
<polygon fill="lightgray" stroke="none" points="28.12,-25.88 28.12,-42.12 81.88,-42.12 81.88,-25.88 28.12,-25.88"/>
<text xml:space="preserve" text-anchor="start" x="29.12" y="-29.73" font-family="Arial" font-size="12.00">TrackLink</text>
<polygon fill="none" stroke="black" points="27.12,-24.88 27.12,-43.12 82.88,-43.12 82.88,-24.88 27.12,-24.88"/>
</a>
</g>
</g>
<!-- RailCorridor&#45;&gt;TrackLink -->
<g id="edge5" class="edge">
<title>RailCorridor&#45;&gt;TrackLink</title>
<path fill="none" stroke="black" stroke-dasharray="5,2" d="M174.47,-203.09C197.69,-199.8 226.77,-191.33 242,-170 248.97,-160.23 248,-153.39 242,-143 210.21,-87.92 138.45,-58.42 93.64,-44.78"/>
<polygon fill="black" stroke="black" points="94.9,-41.5 84.32,-42.07 92.95,-48.22 94.9,-41.5"/>
<text xml:space="preserve" text-anchor="middle" x="323.76" y="-110.05" font-family="Arial" font-size="11.00"> onProperty: partwhole::hasProperPart </text>
<text xml:space="preserve" text-anchor="middle" x="323.76" y="-96.55" font-family="Arial" font-size="11.00"> «min 1, only» &#160;</text>
</g>
<!-- Invis&#45;&gt;RailNetwork -->
<!-- RailNetwork&#45;&gt;TrackLink -->
</g>
</svg>
