<?xml version="1.0" encoding="UTF-8" standalone="no"?>
<!DOCTYPE svg PUBLIC "-//W3C//DTD SVG 1.1//EN"
 "http://www.w3.org/Graphics/SVG/1.1/DTD/svg11.dtd">
<!-- Generated by graphviz version 14.0.2 (20251019.1705)
 -->
<!-- Pages: 1 -->
<svg width="780pt" height="664pt"
 viewBox="0.00 0.00 780.00 664.00" xmlns="http://www.w3.org/2000/svg" xmlns:xlink="http://www.w3.org/1999/xlink">
<g id="graph0" class="graph" transform="scale(1 1) rotate(0) translate(4 659.75)">
<polygon fill="white" stroke="none" points="-4,4 -4,-659.75 776.38,-659.75 776.38,4 -4,4"/>
<g id="clust2" class="cluster">
<title>cluster_associated</title>
</g>
<!-- RoadLink -->
<g id="node1" class="node">
<title>RoadLink</title>
<g id="a_node1"><a xlink:href="../classes/transportnetwork__RoadLink.md" xlink:title="&lt;TABLE&gt;">
<polygon fill="lightgray" stroke="none" points="239.88,-539.5 239.88,-555.75 525.38,-555.75 525.38,-539.5 239.88,-539.5"/>
<text xml:space="preserve" text-anchor="start" x="356.75" y="-543.35" font-family="Arial" font-size="12.00">RoadLink</text>
<text xml:space="preserve" text-anchor="start" x="240.88" y="-527.1" font-family="Arial" font-size="12.00">capacity: xsd::nonNegativeInteger «exactly 1, only»</text>
<text xml:space="preserve" text-anchor="start" x="240.88" y="-510.85" font-family="Arial" font-size="12.00">maxLanes: xsd::nonNegativeInteger «exactly 1, only»</text>
<polygon fill="none" stroke="black" points="238.88,-506 238.88,-556.75 526.38,-556.75 526.38,-506 238.88,-506"/>
</a>
</g>
</g>
<!-- transinfras__RoadLink -->
<g id="node2" class="node">
<title>transinfras__RoadLink</title>
<polygon fill="lightgray" stroke="none" points="1,-629.62 1,-645.88 116.25,-645.88 116.25,-629.62 1,-629.62"/>
<text xml:space="preserve" text-anchor="start" x="2" y="-633.48" font-family="Arial" font-size="12.00">transinfras::RoadLink</text>
<polygon fill="none" stroke="black" points="0,-628.62 0,-646.88 117.25,-646.88 117.25,-628.62 0,-628.62"/>
</g>
<!-- RoadLink&#45;&gt;transinfras__RoadLink -->
<g id="edge1" class="edge">
<title>RoadLink&#45;&gt;transinfras__RoadLink</title>
<path fill="none" stroke="black" d="M306.88,-556.67C288.47,-562.58 268.84,-568.89 250.62,-574.75 207.68,-588.58 159.36,-604.18 121.93,-616.28"/>
<polygon fill="none" stroke="black" points="121.06,-612.88 112.62,-619.29 123.21,-619.54 121.06,-612.88"/>
</g>
<!-- TravelledWayLink -->
<g id="node3" class="node">
<title>TravelledWayLink</title>
<g id="a_node3"><a xlink:href="../_counters/transportnetwork__TravelledWayLink.md" xlink:title="&lt;TABLE&gt;">
<polygon fill="lightgray" stroke="none" points="136.62,-629.62 136.62,-645.88 234.62,-645.88 234.62,-629.62 136.62,-629.62"/>
<text xml:space="preserve" text-anchor="start" x="137.62" y="-633.48" font-family="Arial" font-size="12.00">TravelledWayLink</text>
<polygon fill="none" stroke="black" points="135.62,-628.62 135.62,-646.88 235.62,-646.88 235.62,-628.62 135.62,-628.62"/>
</a>
</g>
</g>
<!-- RoadLink&#45;&gt;TravelledWayLink -->
<g id="edge2" class="edge">
<title>RoadLink&#45;&gt;TravelledWayLink</title>
<path fill="none" stroke="black" d="M336.73,-556.69C303.63,-574.23 259.3,-597.71 227.23,-614.71"/>
<polygon fill="none" stroke="black" points="225.81,-611.5 218.61,-619.27 229.09,-617.68 225.81,-611.5"/>
</g>
<!-- Invis -->
<!-- RoadLink&#45;&gt;Invis -->
<!-- cityunits__Duration -->
<g id="node5" class="node">
<title>cityunits__Duration</title>
<polygon fill="lightgray" stroke="none" points="116,-416.88 116,-433.12 213.25,-433.12 213.25,-416.88 116,-416.88"/>
<text xml:space="preserve" text-anchor="start" x="117" y="-420.73" font-family="Arial" font-size="12.00">cityunits::Duration</text>
<polygon fill="none" stroke="black" points="115,-415.88 115,-434.12 214.25,-434.12 214.25,-415.88 115,-415.88"/>
</g>
<!-- RoadLink&#45;&gt;cityunits__Duration -->
<g id="edge11" class="edge">
<title>RoadLink&#45;&gt;cityunits__Duration</title>
<path fill="none" stroke="black" d="M306.87,-506.04C295.67,-500.92 284.63,-494.92 274.88,-488 261.96,-478.83 264.5,-470.22 251.62,-461 243.36,-455.09 233.95,-449.97 224.45,-445.63"/>
<polygon fill="black" stroke="black" points="226.12,-442.53 215.55,-441.8 223.36,-448.96 226.12,-442.53"/>
<text xml:space="preserve" text-anchor="middle" x="312.75" y="-477.55" font-family="Arial" font-size="11.00"> travelTime </text>
<text xml:space="preserve" text-anchor="middle" x="312.75" y="-464.05" font-family="Arial" font-size="11.00"> «max 1, only» &#160;</text>
</g>
<!-- RoadLinkUserType -->
<g id="node7" class="node">
<title>RoadLinkUserType</title>
<g id="a_node7"><a xlink:href="../_counters/transportnetwork__RoadLinkUserType.md" xlink:title="&lt;TABLE&gt;">
<polygon fill="lightgray" stroke="none" points="115.88,-244.88 115.88,-261.12 221.38,-261.12 221.38,-244.88 115.88,-244.88"/>
<text xml:space="preserve" text-anchor="start" x="116.88" y="-248.72" font-family="Arial" font-size="12.00">RoadLinkUserType</text>
<polygon fill="none" stroke="black" points="114.88,-243.88 114.88,-262.12 222.38,-262.12 222.38,-243.88 114.88,-243.88"/>
</a>
</g>
</g>
<!-- RoadLink&#45;&gt;RoadLinkUserType -->
<g id="edge10" class="edge">
<title>RoadLink&#45;&gt;RoadLinkUserType</title>
<path fill="none" stroke="black" d="M373.43,-506.04C367.76,-492.3 359.81,-475.12 350.62,-461 303.57,-388.65 232.48,-315.5 194.58,-278.59"/>
<polygon fill="black" stroke="black" points="197.28,-276.34 187.66,-271.9 192.42,-281.37 197.28,-276.34"/>
<text xml:space="preserve" text-anchor="middle" x="329.43" y="-378.55" font-family="Arial" font-size="11.00"> primaryUser </text>
<text xml:space="preserve" text-anchor="middle" x="329.43" y="-365.05" font-family="Arial" font-size="11.00"> «only» &#160;</text>
</g>
<!-- RoadLink&#45;&gt;RoadLinkUserType -->
<g id="edge12" class="edge">
<title>RoadLink&#45;&gt;RoadLinkUserType</title>
<path fill="none" stroke="black" d="M386.78,-506.03C391.39,-471.06 394.75,-405.97 365.62,-362 335.08,-315.89 277.93,-287.72 233.02,-271.77"/>
<polygon fill="black" stroke="black" points="234.21,-268.48 223.61,-268.56 231.95,-275.1 234.21,-268.48"/>
<text xml:space="preserve" text-anchor="middle" x="399.73" y="-378.55" font-family="Arial" font-size="11.00"> usedBy </text>
<text xml:space="preserve" text-anchor="middle" x="399.73" y="-365.05" font-family="Arial" font-size="11.00"> «only» &#160;</text>
</g>
<!-- RoadSegment -->
<g id="node10" class="node">
<title>RoadSegment</title>
<g id="a_node10"><a xlink:href="../_counters/transportnetwork__RoadSegment.md" xlink:title="&lt;TABLE&gt;">
<polygon fill="lightgray" stroke="none" points="142,-25.88 142,-42.12 221.25,-42.12 221.25,-25.88 142,-25.88"/>
<text xml:space="preserve" text-anchor="start" x="143" y="-29.73" font-family="Arial" font-size="12.00">RoadSegment</text>
<polygon fill="none" stroke="black" points="141,-24.88 141,-43.12 222.25,-43.12 222.25,-24.88 141,-24.88"/>
</a>
</g>
</g>
<!-- RoadLink&#45;&gt;RoadSegment -->
<g id="edge13" class="edge">
<title>RoadLink&#45;&gt;RoadSegment</title>
<path fill="none" stroke="black" stroke-dasharray="5,2" d="M449.51,-506.17C482.63,-489.46 515.62,-463.42 515.62,-426 515.62,-426 515.62,-426 515.62,-106 515.62,-49.02 327.3,-37.58 233.47,-35.42"/>
<polygon fill="black" stroke="black" points="233.83,-31.92 223.76,-35.22 233.69,-38.92 233.83,-31.92"/>
<text xml:space="preserve" text-anchor="middle" x="610.12" y="-256.05" font-family="Arial" font-size="11.00"> onProperty: partwhole::hasProperPart </text>
<text xml:space="preserve" text-anchor="middle" x="610.12" y="-242.55" font-family="Arial" font-size="11.00"> «only» &#160;</text>
</g>
<!-- N97d25db1af704e50a35cde3cf0bcc4db -->
<g id="node11" class="node">
<title>N97d25db1af704e50a35cde3cf0bcc4db</title>
<polygon fill="lightyellow" stroke="none" points="425.88,-628.62 425.88,-646.88 485.38,-646.88 485.38,-628.62 425.88,-628.62"/>
<text xml:space="preserve" text-anchor="start" x="427.88" y="-633.48" font-family="Arial" font-size="12.00">«unionOf»</text>
<polygon fill="none" stroke="black" points="425.88,-628.62 425.88,-646.88 485.38,-646.88 485.38,-628.62 425.88,-628.62"/>
</g>
<!-- RoadLink&#45;&gt;N97d25db1af704e50a35cde3cf0bcc4db -->
<g id="edge17" class="edge">
<title>RoadLink&#45;&gt;N97d25db1af704e50a35cde3cf0bcc4db</title>
<path fill="none" stroke="black" stroke-dasharray="5,2" d="M364.06,-556.74C355.75,-570.81 349.71,-588.32 359.12,-601.75 371.75,-619.77 394.65,-628.54 414.96,-632.81"/>
<polygon fill="black" stroke="black" points="414.27,-636.24 424.73,-634.52 415.48,-629.34 414.27,-636.24"/>
<text xml:space="preserve" text-anchor="middle" x="449.88" y="-591.3" font-family="Arial" font-size="11.00"> onProperty: partwhole::properPartOf </text>
<text xml:space="preserve" text-anchor="middle" x="449.88" y="-577.8" font-family="Arial" font-size="11.00"> «only» &#160;</text>
</g>
<!-- Invis&#45;&gt;cityunits__Duration -->
<!-- Road -->
<g id="node6" class="node">
<title>Road</title>
<g id="a_node6"><a xlink:href="../_counters/transportnetwork__Road.md" xlink:title="&lt;TABLE&gt;">
<polygon fill="lightgray" stroke="none" points="153,-317.88 153,-334.12 184.25,-334.12 184.25,-317.88 153,-317.88"/>
<text xml:space="preserve" text-anchor="start" x="154" y="-321.73" font-family="Arial" font-size="12.00">Road</text>
<polygon fill="none" stroke="black" points="152,-316.88 152,-335.12 185.25,-335.12 185.25,-316.88 152,-316.88"/>
</a>
</g>
</g>
<!-- cityunits__Duration&#45;&gt;Road -->
<!-- Road&#45;&gt;RoadLinkUserType -->
<!-- RoadNetwork -->
<g id="node8" class="node">
<title>RoadNetwork</title>
<g id="a_node8"><a xlink:href="../_counters/transportnetwork__RoadNetwork.md" xlink:title="&lt;TABLE&gt;">
<polygon fill="lightgray" stroke="none" points="145.88,-171.88 145.88,-188.12 221.38,-188.12 221.38,-171.88 145.88,-171.88"/>
<text xml:space="preserve" text-anchor="start" x="146.88" y="-175.72" font-family="Arial" font-size="12.00">RoadNetwork</text>
<polygon fill="none" stroke="black" points="144.88,-170.88 144.88,-189.12 222.38,-189.12 222.38,-170.88 144.88,-170.88"/>
</a>
</g>
</g>
<!-- RoadLinkUserType&#45;&gt;RoadNetwork -->
<!-- RoadSection -->
<g id="node9" class="node">
<title>RoadSection</title>
<g id="a_node9"><a xlink:href="../_counters/transportnetwork__RoadSection.md" xlink:title="&lt;TABLE&gt;">
<polygon fill="lightgray" stroke="none" points="147.75,-98.88 147.75,-115.12 219.5,-115.12 219.5,-98.88 147.75,-98.88"/>
<text xml:space="preserve" text-anchor="start" x="148.75" y="-102.72" font-family="Arial" font-size="12.00">RoadSection</text>
<polygon fill="none" stroke="black" points="146.75,-97.88 146.75,-116.12 220.5,-116.12 220.5,-97.88 146.75,-97.88"/>
</a>
</g>
</g>
<!-- RoadNetwork&#45;&gt;RoadSection -->
<!-- RoadSection&#45;&gt;RoadSegment -->
<!-- N97d25db1af704e50a35cde3cf0bcc4db&#45;&gt;Road -->
<g id="edge14" class="edge">
<title>N97d25db1af704e50a35cde3cf0bcc4db&#45;&gt;Road</title>
<path fill="none" stroke="black" stroke-dasharray="1,5" d="M426.15,-634.75C378.12,-629.89 283,-613.36 229.62,-557.38 199.32,-525.59 192.43,-502.1 207.88,-461 211.61,-451.05 219.89,-452.95 223.62,-443 229.25,-428.02 228.37,-422.28 223.62,-407 217.33,-386.74 203.93,-367.06 191.93,-352.29"/>
<polygon fill="black" stroke="black" points="194.83,-350.3 185.7,-344.92 189.49,-354.82 194.83,-350.3"/>
<text xml:space="preserve" text-anchor="middle" x="227.75" y="-470.8" font-family="Arial" font-size="11.00">member</text>
</g>
<!-- N97d25db1af704e50a35cde3cf0bcc4db&#45;&gt;RoadNetwork -->
<g id="edge15" class="edge">
<title>N97d25db1af704e50a35cde3cf0bcc4db&#45;&gt;RoadNetwork</title>
<path fill="none" stroke="black" stroke-dasharray="1,5" d="M485.34,-632.96C504.63,-628.79 528.37,-620.05 540.62,-601.75 548.84,-589.49 549.05,-541.18 535.62,-506 506.81,-430.51 482.12,-418.78 424.62,-362 359.14,-297.33 269.88,-236.09 220.42,-204.09"/>
<polygon fill="black" stroke="black" points="222.37,-201.17 212.06,-198.71 218.58,-207.06 222.37,-201.17"/>
<text xml:space="preserve" text-anchor="middle" x="472.04" y="-371.8" font-family="Arial" font-size="11.00">member</text>
</g>
<!-- N97d25db1af704e50a35cde3cf0bcc4db&#45;&gt;RoadSection -->
<g id="edge16" class="edge">
<title>N97d25db1af704e50a35cde3cf0bcc4db&#45;&gt;RoadSection</title>
<path fill="none" stroke="black" stroke-dasharray="1,5" d="M485.27,-632.07C556.73,-619.95 732.62,-584.79 732.62,-532.38 732.62,-532.38 732.62,-532.38 732.62,-179 732.62,-128.74 366.05,-113.21 231.99,-109.21"/>
<polygon fill="black" stroke="black" points="232.11,-105.71 222.01,-108.92 231.91,-112.71 232.11,-105.71"/>
<text xml:space="preserve" text-anchor="middle" x="752.5" y="-322.3" font-family="Arial" font-size="11.00">member</text>
</g>
</g>
</svg>
