<?xml version="1.0" encoding="UTF-8" standalone="no"?>
<!DOCTYPE svg PUBLIC "-//W3C//DTD SVG 1.1//EN"
 "http://www.w3.org/Graphics/SVG/1.1/DTD/svg11.dtd">
<!-- Generated by graphviz version 14.0.2 (20251019.1705)
 -->
<!-- Pages: 1 -->
<svg width="204pt" height="132pt"
 viewBox="0.00 0.00 204.00 132.00" xmlns="http://www.w3.org/2000/svg" xmlns:xlink="http://www.w3.org/1999/xlink">
<g id="graph0" class="graph" transform="scale(1 1) rotate(0) translate(4 128)">
<polygon fill="white" stroke="none" points="-4,4 -4,-128 200.12,-128 200.12,4 -4,4"/>
<g id="clust2" class="cluster">
<title>cluster_associated</title>
</g>
<!-- RailNetworkPattern -->
<g id="node1" class="node">
<title>RailNetworkPattern</title>
<g id="a_node1"><a xlink:href="../classes/transportnetwork__RailNetworkPattern.md" xlink:title="&lt;TABLE&gt;">
<polygon fill="lightgray" stroke="none" points="1,-25.88 1,-42.12 107.25,-42.12 107.25,-25.88 1,-25.88"/>
<text xml:space="preserve" text-anchor="start" x="2" y="-29.73" font-family="Arial" font-size="12.00">RailNetworkPattern</text>
<polygon fill="none" stroke="black" points="0,-24.88 0,-43.12 108.25,-43.12 108.25,-24.88 0,-24.88"/>
</a>
</g>
</g>
<!-- ITSPattern -->
<g id="node2" class="node">
<title>ITSPattern</title>
<g id="a_node2"><a xlink:href="../_counters/transportnetwork__ITSPattern.md" xlink:title="&lt;TABLE&gt;">
<polygon fill="lightgray" stroke="none" points="24.62,-97.88 24.62,-114.12 83.62,-114.12 83.62,-97.88 24.62,-97.88"/>
<text xml:space="preserve" text-anchor="start" x="25.62" y="-101.72" font-family="Arial" font-size="12.00">ITSPattern</text>
<polygon fill="none" stroke="black" points="23.62,-96.88 23.62,-115.12 84.62,-115.12 84.62,-96.88 23.62,-96.88"/>
</a>
</g>
</g>
<!-- RailNetworkPattern&#45;&gt;ITSPattern -->
<g id="edge1" class="edge">
<title>RailNetworkPattern&#45;&gt;ITSPattern</title>
<path fill="none" stroke="black" d="M54.12,-51.79C54.12,-59.25 54.12,-68.24 54.12,-76.69"/>
<polygon fill="none" stroke="black" points="50.63,-76.54 54.13,-86.54 57.63,-76.54 50.63,-76.54"/>
</g>
<!-- Invis -->
</g>
</svg>
