<?xml version="1.0" encoding="UTF-8" standalone="no"?>
<!DOCTYPE svg PUBLIC "-//W3C//DTD SVG 1.1//EN"
 "http://www.w3.org/Graphics/SVG/1.1/DTD/svg11.dtd">
<!-- Generated by graphviz version 14.0.2 (20251019.1705)
 -->
<!-- Pages: 1 -->
<svg width="500pt" height="464pt"
 viewBox="0.00 0.00 500.00 464.00" xmlns="http://www.w3.org/2000/svg" xmlns:xlink="http://www.w3.org/1999/xlink">
<g id="graph0" class="graph" transform="scale(1 1) rotate(0) translate(4 459.5)">
<polygon fill="white" stroke="none" points="-4,4 -4,-459.5 496,-459.5 496,4 -4,4"/>
<g id="clust2" class="cluster">
<title>cluster_associated</title>
</g>
<!-- TrackLink -->
<g id="node1" class="node">
<title>TrackLink</title>
<g id="a_node1"><a xlink:href="../classes/transportnetwork__TrackLink.md" xlink:title="&lt;TABLE&gt;">
<polygon fill="lightgray" stroke="none" points="247.12,-330.38 247.12,-346.62 300.88,-346.62 300.88,-330.38 247.12,-330.38"/>
<text xml:space="preserve" text-anchor="start" x="248.12" y="-334.23" font-family="Arial" font-size="12.00">TrackLink</text>
<polygon fill="none" stroke="black" points="246.12,-329.38 246.12,-347.62 301.88,-347.62 301.88,-329.38 246.12,-329.38"/>
</a>
</g>
</g>
<!-- TravelledWayLink -->
<g id="node2" class="node">
<title>TravelledWayLink</title>
<g id="a_node2"><a xlink:href="../_counters/transportnetwork__TravelledWayLink.md" xlink:title="&lt;TABLE&gt;">
<polygon fill="lightgray" stroke="none" points="393,-429.38 393,-445.62 491,-445.62 491,-429.38 393,-429.38"/>
<text xml:space="preserve" text-anchor="start" x="394" y="-433.23" font-family="Arial" font-size="12.00">TravelledWayLink</text>
<polygon fill="none" stroke="black" points="392,-428.38 392,-446.62 492,-446.62 492,-428.38 392,-428.38"/>
</a>
</g>
</g>
<!-- TrackLink&#45;&gt;TravelledWayLink -->
<g id="edge1" class="edge">
<title>TrackLink&#45;&gt;TravelledWayLink</title>
<path fill="none" stroke="black" d="M301.72,-342.27C341.13,-346.77 410.52,-356.99 428,-374.5 436.83,-383.34 440.59,-396.5 442.03,-408.41"/>
<polygon fill="none" stroke="black" points="438.53,-408.47 442.7,-418.21 445.51,-407.99 438.53,-408.47"/>
</g>
<!-- Invis -->
<!-- TrackLink&#45;&gt;Invis -->
<!-- TrackSegment -->
<g id="node7" class="node">
<title>TrackSegment</title>
<g id="a_node7"><a xlink:href="../_counters/transportnetwork__TrackSegment.md" xlink:title="&lt;TABLE&gt;">
<polygon fill="lightgray" stroke="none" points="17.38,-25.88 17.38,-42.12 96.62,-42.12 96.62,-25.88 17.38,-25.88"/>
<text xml:space="preserve" text-anchor="start" x="18.38" y="-29.73" font-family="Arial" font-size="12.00">TrackSegment</text>
<polygon fill="none" stroke="black" points="16.38,-24.88 16.38,-43.12 97.62,-43.12 97.62,-24.88 16.38,-24.88"/>
</a>
</g>
</g>
<!-- TrackLink&#45;&gt;TrackSegment -->
<g id="edge7" class="edge">
<title>TrackLink&#45;&gt;TrackSegment</title>
<path fill="none" stroke="black" stroke-dasharray="5,2" d="M275.93,-320.57C277.69,-303.72 280,-277.11 280,-254 280,-254 280,-254 280,-106 280,-70.26 174.67,-50.11 108.79,-41"/>
<polygon fill="black" stroke="black" points="109.26,-37.53 98.88,-39.68 108.33,-44.47 109.26,-37.53"/>
<text xml:space="preserve" text-anchor="middle" x="374.5" y="-183.05" font-family="Arial" font-size="11.00"> onProperty: partwhole::hasProperPart </text>
<text xml:space="preserve" text-anchor="middle" x="374.5" y="-169.55" font-family="Arial" font-size="11.00"> «only» &#160;</text>
</g>
<!-- Na87ac8e139e44b31a0a6b5a005709347 -->
<g id="node8" class="node">
<title>Na87ac8e139e44b31a0a6b5a005709347</title>
<polygon fill="lightyellow" stroke="none" points="163.25,-428.38 163.25,-446.62 222.75,-446.62 222.75,-428.38 163.25,-428.38"/>
<text xml:space="preserve" text-anchor="start" x="165.25" y="-433.23" font-family="Arial" font-size="12.00">«unionOf»</text>
<polygon fill="none" stroke="black" points="163.25,-428.38 163.25,-446.62 222.75,-446.62 222.75,-428.38 163.25,-428.38"/>
</g>
<!-- TrackLink&#45;&gt;Na87ac8e139e44b31a0a6b5a005709347 -->
<g id="edge11" class="edge">
<title>TrackLink&#45;&gt;Na87ac8e139e44b31a0a6b5a005709347</title>
<path fill="none" stroke="black" stroke-dasharray="5,2" d="M260.24,-356.42C250.03,-368.93 235.73,-386.34 223,-401.5 220.32,-404.69 217.49,-408.03 214.68,-411.33"/>
<polygon fill="black" stroke="black" points="212.24,-408.8 208.4,-418.67 217.56,-413.35 212.24,-408.8"/>
<text xml:space="preserve" text-anchor="middle" x="334.88" y="-391.05" font-family="Arial" font-size="11.00"> onProperty: partwhole::properPartOf </text>
<text xml:space="preserve" text-anchor="middle" x="334.88" y="-377.55" font-family="Arial" font-size="11.00"> «only» &#160;</text>
</g>
<!-- RailCorridor -->
<g id="node4" class="node">
<title>RailCorridor</title>
<g id="a_node4"><a xlink:href="../_counters/transportnetwork__RailCorridor.md" xlink:title="&lt;TABLE&gt;">
<polygon fill="lightgray" stroke="none" points="29.38,-244.88 29.38,-261.12 96.62,-261.12 96.62,-244.88 29.38,-244.88"/>
<text xml:space="preserve" text-anchor="start" x="30.38" y="-248.72" font-family="Arial" font-size="12.00">RailCorridor</text>
<polygon fill="none" stroke="black" points="28.38,-243.88 28.38,-262.12 97.62,-262.12 97.62,-243.88 28.38,-243.88"/>
</a>
</g>
</g>
<!-- Invis&#45;&gt;RailCorridor -->
<!-- RailNetwork -->
<g id="node5" class="node">
<title>RailNetwork</title>
<g id="a_node5"><a xlink:href="../_counters/transportnetwork__RailNetwork.md" xlink:title="&lt;TABLE&gt;">
<polygon fill="lightgray" stroke="none" points="29,-171.88 29,-188.12 97,-188.12 97,-171.88 29,-171.88"/>
<text xml:space="preserve" text-anchor="start" x="30" y="-175.72" font-family="Arial" font-size="12.00">RailNetwork</text>
<polygon fill="none" stroke="black" points="28,-170.88 28,-189.12 98,-189.12 98,-170.88 28,-170.88"/>
</a>
</g>
</g>
<!-- RailCorridor&#45;&gt;RailNetwork -->
<!-- RailSection -->
<g id="node6" class="node">
<title>RailSection</title>
<g id="a_node6"><a xlink:href="../_counters/transportnetwork__RailSection.md" xlink:title="&lt;TABLE&gt;">
<polygon fill="lightgray" stroke="none" points="30.88,-98.88 30.88,-115.12 95.12,-115.12 95.12,-98.88 30.88,-98.88"/>
<text xml:space="preserve" text-anchor="start" x="31.88" y="-102.72" font-family="Arial" font-size="12.00">RailSection</text>
<polygon fill="none" stroke="black" points="29.88,-97.88 29.88,-116.12 96.12,-116.12 96.12,-97.88 29.88,-97.88"/>
</a>
</g>
</g>
<!-- RailNetwork&#45;&gt;RailSection -->
<!-- RailSection&#45;&gt;TrackSegment -->
<!-- Na87ac8e139e44b31a0a6b5a005709347&#45;&gt;RailCorridor -->
<g id="edge8" class="edge">
<title>Na87ac8e139e44b31a0a6b5a005709347&#45;&gt;RailCorridor</title>
<path fill="none" stroke="black" stroke-dasharray="1,5" d="M172.76,-419.62C157.13,-405.88 135.62,-385.4 120.25,-364.5 100.88,-338.18 84.42,-304.39 74.18,-281.14"/>
<polygon fill="black" stroke="black" points="77.44,-279.85 70.27,-272.05 71.01,-282.61 77.44,-279.85"/>
<text xml:space="preserve" text-anchor="middle" x="140.12" y="-334.8" font-family="Arial" font-size="11.00">member</text>
</g>
<!-- Na87ac8e139e44b31a0a6b5a005709347&#45;&gt;RailNetwork -->
<g id="edge9" class="edge">
<title>Na87ac8e139e44b31a0a6b5a005709347&#45;&gt;RailNetwork</title>
<path fill="none" stroke="black" stroke-dasharray="1,5" d="M189.79,-419.86C185.02,-396.87 174.98,-354.4 160,-320.5 141.93,-279.61 132.95,-271.41 107,-235 100.12,-225.35 92.07,-215.18 84.74,-206.3"/>
<polygon fill="black" stroke="black" points="87.52,-204.17 78.42,-198.75 82.15,-208.66 87.52,-204.17"/>
<text xml:space="preserve" text-anchor="middle" x="171.36" y="-292.05" font-family="Arial" font-size="11.00">member</text>
</g>
<!-- Na87ac8e139e44b31a0a6b5a005709347&#45;&gt;RailSection -->
<g id="edge10" class="edge">
<title>Na87ac8e139e44b31a0a6b5a005709347&#45;&gt;RailSection</title>
<path fill="none" stroke="black" stroke-dasharray="1,5" d="M198.39,-419.53C204.01,-400.31 212,-367.99 212,-339.5 212,-339.5 212,-339.5 212,-179 212,-132.18 151.3,-116.2 107.38,-110.77"/>
<polygon fill="black" stroke="black" points="107.89,-107.3 97.57,-109.71 107.14,-114.26 107.89,-107.3"/>
<text xml:space="preserve" text-anchor="middle" x="231.88" y="-249.3" font-family="Arial" font-size="11.00">member</text>
</g>
</g>
</svg>
