<?xml version="1.0" encoding="UTF-8" standalone="no"?>
<!DOCTYPE svg PUBLIC "-//W3C//DTD SVG 1.1//EN"
 "http://www.w3.org/Graphics/SVG/1.1/DTD/svg11.dtd">
<!-- Generated by graphviz version 14.0.2 (20251019.1705)
 -->
<!-- Pages: 1 -->
<svg width="266pt" height="305pt"
 viewBox="0.00 0.00 266.00 305.00" xmlns="http://www.w3.org/2000/svg" xmlns:xlink="http://www.w3.org/1999/xlink">
<g id="graph0" class="graph" transform="scale(1 1) rotate(0) translate(4 301)">
<polygon fill="white" stroke="none" points="-4,4 -4,-301 262.09,-301 262.09,4 -4,4"/>
<g id="clust2" class="cluster">
<title>cluster_associated</title>
</g>
<!-- ScheduledCode -->
<g id="node1" class="node">
<title>ScheduledCode</title>
<g id="a_node1"><a xlink:href="../classes/transportnetwork__ScheduledCode.md" xlink:title="&lt;TABLE&gt;">
<polygon fill="lightgray" stroke="none" points="157.5,-197.88 157.5,-214.12 246.5,-214.12 246.5,-197.88 157.5,-197.88"/>
<text xml:space="preserve" text-anchor="start" x="158.5" y="-201.72" font-family="Arial" font-size="12.00">ScheduledCode</text>
<polygon fill="none" stroke="black" points="156.5,-196.88 156.5,-215.12 247.5,-215.12 247.5,-196.88 156.5,-196.88"/>
</a>
</g>
</g>
<!-- ITSThing -->
<g id="node2" class="node">
<title>ITSThing</title>
<g id="a_node2"><a xlink:href="../_counters/transportnetwork__ITSThing.md" xlink:title="&lt;TABLE&gt;">
<polygon fill="lightgray" stroke="none" points="176.25,-270.88 176.25,-287.12 227.75,-287.12 227.75,-270.88 176.25,-270.88"/>
<text xml:space="preserve" text-anchor="start" x="177.25" y="-274.73" font-family="Arial" font-size="12.00">ITSThing</text>
<polygon fill="none" stroke="black" points="175.25,-269.88 175.25,-288.12 228.75,-288.12 228.75,-269.88 175.25,-269.88"/>
</a>
</g>
</g>
<!-- ScheduledCode&#45;&gt;ITSThing -->
<g id="edge1" class="edge">
<title>ScheduledCode&#45;&gt;ITSThing</title>
<path fill="none" stroke="black" d="M202,-223.71C202,-231.47 202,-240.92 202,-249.74"/>
<polygon fill="none" stroke="black" points="198.5,-249.66 202,-259.66 205.5,-249.66 198.5,-249.66"/>
</g>
<!-- Invis -->
<!-- ScheduledCode&#45;&gt;Invis -->
<!-- code__Code -->
<g id="node4" class="node">
<title>code__Code</title>
<polygon fill="lightgray" stroke="none" points="62.25,-98.88 62.25,-115.12 125.75,-115.12 125.75,-98.88 62.25,-98.88"/>
<text xml:space="preserve" text-anchor="start" x="63.25" y="-102.72" font-family="Arial" font-size="12.00">code::Code</text>
<polygon fill="none" stroke="black" points="61.25,-97.88 61.25,-116.12 126.75,-116.12 126.75,-97.88 61.25,-97.88"/>
</g>
<!-- ScheduledCode&#45;&gt;code__Code -->
<g id="edge5" class="edge">
<title>ScheduledCode&#45;&gt;code__Code</title>
<path fill="none" stroke="black" d="M166.5,-188.07C157.53,-182.94 148.24,-176.82 140.5,-170 128.83,-159.71 118.21,-146.07 110.08,-134.2"/>
<polygon fill="black" stroke="black" points="113.12,-132.46 104.7,-126.03 107.28,-136.31 113.12,-132.46"/>
<text xml:space="preserve" text-anchor="middle" x="160.75" y="-159.55" font-family="Arial" font-size="11.00"> code </text>
<text xml:space="preserve" text-anchor="middle" x="160.75" y="-146.05" font-family="Arial" font-size="11.00"> «only» &#160;</text>
</g>
<!-- time__DateTimeInterval -->
<g id="node5" class="node">
<title>time__DateTimeInterval</title>
<polygon fill="lightgray" stroke="none" points="17.38,-25.88 17.38,-42.12 138.62,-42.12 138.62,-25.88 17.38,-25.88"/>
<text xml:space="preserve" text-anchor="start" x="18.38" y="-29.73" font-family="Arial" font-size="12.00">time::DateTimeInterval</text>
<polygon fill="none" stroke="black" points="16.38,-24.88 16.38,-43.12 139.62,-43.12 139.62,-24.88 16.38,-24.88"/>
</g>
<!-- ScheduledCode&#45;&gt;time__DateTimeInterval -->
<g id="edge6" class="edge">
<title>ScheduledCode&#45;&gt;time__DateTimeInterval</title>
<path fill="none" stroke="black" d="M198.12,-188.25C194.72,-175.36 189.05,-157.38 181,-143 162.44,-109.87 131.38,-79.28 108.21,-59.18"/>
<polygon fill="black" stroke="black" points="110.49,-56.53 100.6,-52.73 105.96,-61.86 110.49,-56.53"/>
<text xml:space="preserve" text-anchor="middle" x="213.84" y="-110.05" font-family="Arial" font-size="11.00"> timeInterval </text>
<text xml:space="preserve" text-anchor="middle" x="213.84" y="-96.55" font-family="Arial" font-size="11.00"> «exactly 1, only» &#160;</text>
</g>
<!-- Invis&#45;&gt;code__Code -->
<!-- code__Code&#45;&gt;time__DateTimeInterval -->
</g>
</svg>
