<?xml version="1.0" encoding="UTF-8" standalone="no"?>
<!DOCTYPE svg PUBLIC "-//W3C//DTD SVG 1.1//EN"
 "http://www.w3.org/Graphics/SVG/1.1/DTD/svg11.dtd">
<!-- Generated by graphviz version 14.0.2 (20251019.1705)
 -->
<!-- Pages: 1 -->
<svg width="499pt" height="404pt"
 viewBox="0.00 0.00 499.00 404.00" xmlns="http://www.w3.org/2000/svg" xmlns:xlink="http://www.w3.org/1999/xlink">
<g id="graph0" class="graph" transform="scale(1 1) rotate(0) translate(4 400)">
<polygon fill="white" stroke="none" points="-4,4 -4,-400 494.75,-400 494.75,4 -4,4"/>
<g id="clust2" class="cluster">
<title>cluster_associated</title>
</g>
<!-- TravelledWaySection -->
<g id="node1" class="node">
<title>TravelledWaySection</title>
<g id="a_node1"><a xlink:href="../classes/transportnetwork__TravelledWaySection.md" xlink:title="&lt;TABLE&gt;">
<polygon fill="lightgray" stroke="none" points="159,-270.88 159,-287.12 275,-287.12 275,-270.88 159,-270.88"/>
<text xml:space="preserve" text-anchor="start" x="160" y="-274.73" font-family="Arial" font-size="12.00">TravelledWaySection</text>
<polygon fill="none" stroke="black" points="158,-269.88 158,-288.12 276,-288.12 276,-269.88 158,-269.88"/>
</a>
</g>
</g>
<!-- NetworkElement -->
<g id="node2" class="node">
<title>NetworkElement</title>
<g id="a_node2"><a xlink:href="../_counters/transportnetwork__NetworkElement.md" xlink:title="&lt;TABLE&gt;">
<polygon fill="lightgray" stroke="none" points="113.75,-369.88 113.75,-386.12 204.25,-386.12 204.25,-369.88 113.75,-369.88"/>
<text xml:space="preserve" text-anchor="start" x="114.75" y="-373.73" font-family="Arial" font-size="12.00">NetworkElement</text>
<polygon fill="none" stroke="black" points="112.75,-368.88 112.75,-387.12 205.25,-387.12 205.25,-368.88 112.75,-368.88"/>
</a>
</g>
</g>
<!-- TravelledWaySection&#45;&gt;NetworkElement -->
<g id="edge1" class="edge">
<title>TravelledWaySection&#45;&gt;NetworkElement</title>
<path fill="none" stroke="black" d="M190.01,-296.76C183.59,-301.9 177.36,-308.06 173,-315 166.71,-325.02 163.23,-337.52 161.32,-348.67"/>
<polygon fill="none" stroke="black" points="157.85,-348.18 159.99,-358.55 164.79,-349.11 157.85,-348.18"/>
</g>
<!-- Invis -->
<!-- TravelledWaySection&#45;&gt;Invis -->
<!-- TransportNetwork -->
<g id="node4" class="node">
<title>TransportNetwork</title>
<g id="a_node4"><a xlink:href="../_counters/transportnetwork__TransportNetwork.md" xlink:title="&lt;TABLE&gt;">
<polygon fill="lightgray" stroke="none" points="44.75,-171.88 44.75,-188.12 141.25,-188.12 141.25,-171.88 44.75,-171.88"/>
<text xml:space="preserve" text-anchor="start" x="45.75" y="-175.72" font-family="Arial" font-size="12.00">TransportNetwork</text>
<polygon fill="none" stroke="black" points="43.75,-170.88 43.75,-189.12 142.25,-189.12 142.25,-170.88 43.75,-170.88"/>
</a>
</g>
</g>
<!-- TravelledWaySection&#45;&gt;TransportNetwork -->
<g id="edge9" class="edge">
<title>TravelledWaySection&#45;&gt;TransportNetwork</title>
<path fill="none" stroke="black" stroke-dasharray="5,2" d="M195.4,-261.1C175.49,-245.53 145.72,-222.24 123.41,-204.79"/>
<polygon fill="black" stroke="black" points="125.58,-202.04 115.54,-198.64 121.26,-207.55 125.58,-202.04"/>
<text xml:space="preserve" text-anchor="middle" x="260.5" y="-232.55" font-family="Arial" font-size="11.00"> onProperty: partwhole::properPartOf </text>
<text xml:space="preserve" text-anchor="middle" x="260.5" y="-219.05" font-family="Arial" font-size="11.00"> «min 1, only» &#160;</text>
</g>
<!-- N09d392580e89435e84dbda9f89515f9a -->
<g id="node7" class="node">
<title>N09d392580e89435e84dbda9f89515f9a</title>
<polygon fill="lightyellow" stroke="none" points="366.25,-368.88 366.25,-387.12 425.75,-387.12 425.75,-368.88 366.25,-368.88"/>
<text xml:space="preserve" text-anchor="start" x="368.25" y="-373.73" font-family="Arial" font-size="12.00">«unionOf»</text>
<polygon fill="none" stroke="black" points="366.25,-368.88 366.25,-387.12 425.75,-387.12 425.75,-368.88 366.25,-368.88"/>
</g>
<!-- TravelledWaySection&#45;&gt;N09d392580e89435e84dbda9f89515f9a -->
<g id="edge8" class="edge">
<title>TravelledWaySection&#45;&gt;N09d392580e89435e84dbda9f89515f9a</title>
<path fill="none" stroke="black" stroke-dasharray="5,2" d="M201.91,-296.82C191.74,-310.25 181.99,-328.93 193,-342 213.3,-366.09 301.8,-373.6 355.02,-375.94"/>
<polygon fill="black" stroke="black" points="354.8,-379.44 364.93,-376.33 355.07,-372.44 354.8,-379.44"/>
<text xml:space="preserve" text-anchor="middle" x="287.5" y="-331.55" font-family="Arial" font-size="11.00"> onProperty: partwhole::hasProperPart </text>
<text xml:space="preserve" text-anchor="middle" x="287.5" y="-318.05" font-family="Arial" font-size="11.00"> «only» &#160;</text>
</g>
<!-- Invis&#45;&gt;TransportNetwork -->
<!-- TravelledWayLink -->
<g id="node5" class="node">
<title>TravelledWayLink</title>
<g id="a_node5"><a xlink:href="../_counters/transportnetwork__TravelledWayLink.md" xlink:title="&lt;TABLE&gt;">
<polygon fill="lightgray" stroke="none" points="43,-98.88 43,-115.12 141,-115.12 141,-98.88 43,-98.88"/>
<text xml:space="preserve" text-anchor="start" x="44" y="-102.72" font-family="Arial" font-size="12.00">TravelledWayLink</text>
<polygon fill="none" stroke="black" points="42,-97.88 42,-116.12 142,-116.12 142,-97.88 42,-97.88"/>
</a>
</g>
</g>
<!-- TransportNetwork&#45;&gt;TravelledWayLink -->
<!-- TravelledWaySegment -->
<g id="node6" class="node">
<title>TravelledWaySegment</title>
<g id="a_node6"><a xlink:href="../_counters/transportnetwork__TravelledWaySegment.md" xlink:title="&lt;TABLE&gt;">
<polygon fill="lightgray" stroke="none" points="17.25,-25.88 17.25,-42.12 140.75,-42.12 140.75,-25.88 17.25,-25.88"/>
<text xml:space="preserve" text-anchor="start" x="18.25" y="-29.73" font-family="Arial" font-size="12.00">TravelledWaySegment</text>
<polygon fill="none" stroke="black" points="16.25,-24.88 16.25,-43.12 141.75,-43.12 141.75,-24.88 16.25,-24.88"/>
</a>
</g>
</g>
<!-- TravelledWayLink&#45;&gt;TravelledWaySegment -->
<!-- N09d392580e89435e84dbda9f89515f9a&#45;&gt;TravelledWayLink -->
<g id="edge6" class="edge">
<title>N09d392580e89435e84dbda9f89515f9a&#45;&gt;TravelledWayLink</title>
<path fill="none" stroke="black" stroke-dasharray="1,5" d="M396.47,-360.13C396.45,-328.04 391.86,-257.72 355,-216 302.65,-156.75 212.85,-129.37 152.95,-117.16"/>
<polygon fill="black" stroke="black" points="153.74,-113.75 143.25,-115.28 152.4,-120.62 153.74,-113.75"/>
<text xml:space="preserve" text-anchor="middle" x="392.88" y="-225.8" font-family="Arial" font-size="11.00">member</text>
</g>
<!-- N09d392580e89435e84dbda9f89515f9a&#45;&gt;TravelledWaySegment -->
<g id="edge7" class="edge">
<title>N09d392580e89435e84dbda9f89515f9a&#45;&gt;TravelledWaySegment</title>
<path fill="none" stroke="black" stroke-dasharray="1,5" d="M412.8,-360.05C428.98,-341.87 451,-311.36 451,-280 451,-280 451,-280 451,-106 451,-45.91 261.36,-35.43 152.88,-34.36"/>
<polygon fill="black" stroke="black" points="153.22,-30.86 143.2,-34.29 153.17,-37.86 153.22,-30.86"/>
<text xml:space="preserve" text-anchor="middle" x="470.88" y="-176.3" font-family="Arial" font-size="11.00">member</text>
</g>
</g>
</svg>
