<?xml version="1.0" encoding="UTF-8" standalone="no"?>
<!DOCTYPE svg PUBLIC "-//W3C//DTD SVG 1.1//EN"
 "http://www.w3.org/Graphics/SVG/1.1/DTD/svg11.dtd">
<!-- Generated by graphviz version 14.0.2 (20251019.1705)
 -->
<!-- Pages: 1 -->
<svg width="254pt" height="132pt"
 viewBox="0.00 0.00 254.00 132.00" xmlns="http://www.w3.org/2000/svg" xmlns:xlink="http://www.w3.org/1999/xlink">
<g id="graph0" class="graph" transform="scale(1 1) rotate(0) translate(4 128)">
<polygon fill="white" stroke="none" points="-4,4 -4,-128 249.5,-128 249.5,4 -4,4"/>
<g id="clust2" class="cluster">
<title>cluster_associated</title>
</g>
<!-- MicromobilityNetworkPattern -->
<g id="node1" class="node">
<title>MicromobilityNetworkPattern</title>
<g id="a_node1"><a xlink:href="../classes/transportnetwork__MicromobilityNetworkPattern.md" xlink:title="&lt;TABLE&gt;">
<polygon fill="lightgray" stroke="none" points="1,-25.88 1,-42.12 156,-42.12 156,-25.88 1,-25.88"/>
<text xml:space="preserve" text-anchor="start" x="2" y="-29.73" font-family="Arial" font-size="12.00">MicromobilityNetworkPattern</text>
<polygon fill="none" stroke="black" points="0,-24.88 0,-43.12 157,-43.12 157,-24.88 0,-24.88"/>
</a>
</g>
</g>
<!-- ITSPattern -->
<g id="node2" class="node">
<title>ITSPattern</title>
<g id="a_node2"><a xlink:href="../_counters/transportnetwork__ITSPattern.md" xlink:title="&lt;TABLE&gt;">
<polygon fill="lightgray" stroke="none" points="49,-97.88 49,-114.12 108,-114.12 108,-97.88 49,-97.88"/>
<text xml:space="preserve" text-anchor="start" x="50" y="-101.72" font-family="Arial" font-size="12.00">ITSPattern</text>
<polygon fill="none" stroke="black" points="48,-96.88 48,-115.12 109,-115.12 109,-96.88 48,-96.88"/>
</a>
</g>
</g>
<!-- MicromobilityNetworkPattern&#45;&gt;ITSPattern -->
<g id="edge1" class="edge">
<title>MicromobilityNetworkPattern&#45;&gt;ITSPattern</title>
<path fill="none" stroke="black" d="M78.5,-51.79C78.5,-59.25 78.5,-68.24 78.5,-76.69"/>
<polygon fill="none" stroke="black" points="75,-76.54 78.5,-86.54 82,-76.54 75,-76.54"/>
</g>
<!-- Invis -->
</g>
</svg>
