<?xml version="1.0" encoding="UTF-8" standalone="no"?>
<!DOCTYPE svg PUBLIC "-//W3C//DTD SVG 1.1//EN"
 "http://www.w3.org/Graphics/SVG/1.1/DTD/svg11.dtd">
<!-- Generated by graphviz version 14.0.2 (20251019.1705)
 -->
<!-- Pages: 1 -->
<svg width="429pt" height="378pt"
 viewBox="0.00 0.00 429.00 378.00" xmlns="http://www.w3.org/2000/svg" xmlns:xlink="http://www.w3.org/1999/xlink">
<g id="graph0" class="graph" transform="scale(1 1) rotate(0) translate(4 374)">
<polygon fill="white" stroke="none" points="-4,4 -4,-374 424.75,-374 424.75,4 -4,4"/>
<g id="clust2" class="cluster">
<title>cluster_associated</title>
</g>
<!-- RoadSection -->
<g id="node1" class="node">
<title>RoadSection</title>
<g id="a_node1"><a xlink:href="../classes/transportnetwork__RoadSection.md" xlink:title="&lt;TABLE&gt;">
<polygon fill="lightgray" stroke="none" points="165.12,-244.88 165.12,-261.12 236.88,-261.12 236.88,-244.88 165.12,-244.88"/>
<text xml:space="preserve" text-anchor="start" x="166.12" y="-248.72" font-family="Arial" font-size="12.00">RoadSection</text>
<polygon fill="none" stroke="black" points="164.12,-243.88 164.12,-262.12 237.88,-262.12 237.88,-243.88 164.12,-243.88"/>
</a>
</g>
</g>
<!-- TravelledWaySection -->
<g id="node2" class="node">
<title>TravelledWaySection</title>
<g id="a_node2"><a xlink:href="../_counters/transportnetwork__TravelledWaySection.md" xlink:title="&lt;TABLE&gt;">
<polygon fill="lightgray" stroke="none" points="18,-343.88 18,-360.12 134,-360.12 134,-343.88 18,-343.88"/>
<text xml:space="preserve" text-anchor="start" x="19" y="-347.73" font-family="Arial" font-size="12.00">TravelledWaySection</text>
<polygon fill="none" stroke="black" points="17,-342.88 17,-361.12 135,-361.12 135,-342.88 17,-342.88"/>
</a>
</g>
</g>
<!-- RoadSection&#45;&gt;TravelledWaySection -->
<g id="edge1" class="edge">
<title>RoadSection&#45;&gt;TravelledWaySection</title>
<path fill="none" stroke="black" d="M179.48,-270.7C159.39,-286.29 129.22,-309.7 106.63,-327.23"/>
<polygon fill="none" stroke="black" points="104.72,-324.28 98.97,-333.18 109.02,-329.81 104.72,-324.28"/>
</g>
<!-- Invis -->
<!-- RoadSection&#45;&gt;Invis -->
<!-- RoadNetwork -->
<g id="node5" class="node">
<title>RoadNetwork</title>
<g id="a_node5"><a xlink:href="../_counters/transportnetwork__RoadNetwork.md" xlink:title="&lt;TABLE&gt;">
<polygon fill="lightgray" stroke="none" points="20.25,-98.88 20.25,-115.12 95.75,-115.12 95.75,-98.88 20.25,-98.88"/>
<text xml:space="preserve" text-anchor="start" x="21.25" y="-102.72" font-family="Arial" font-size="12.00">RoadNetwork</text>
<polygon fill="none" stroke="black" points="19.25,-97.88 19.25,-116.12 96.75,-116.12 96.75,-97.88 19.25,-97.88"/>
</a>
</g>
</g>
<!-- RoadSection&#45;&gt;RoadNetwork -->
<g id="edge9" class="edge">
<title>RoadSection&#45;&gt;RoadNetwork</title>
<path fill="none" stroke="black" stroke-dasharray="5,2" d="M184.32,-235.2C159.24,-209.95 111.67,-162.05 82.61,-132.78"/>
<polygon fill="black" stroke="black" points="85.17,-130.4 75.64,-125.77 80.21,-135.33 85.17,-130.4"/>
<text xml:space="preserve" text-anchor="middle" x="236.8" y="-183.05" font-family="Arial" font-size="11.00"> onProperty: partwhole::properPartOf </text>
<text xml:space="preserve" text-anchor="middle" x="236.8" y="-169.55" font-family="Arial" font-size="11.00"> «only» &#160;</text>
</g>
<!-- Nd04791e1cf654f0ab1aeea0fe73b2af5 -->
<g id="node7" class="node">
<title>Nd04791e1cf654f0ab1aeea0fe73b2af5</title>
<polygon fill="lightyellow" stroke="none" points="153.25,-342.88 153.25,-361.12 212.75,-361.12 212.75,-342.88 153.25,-342.88"/>
<text xml:space="preserve" text-anchor="start" x="155.25" y="-347.73" font-family="Arial" font-size="12.00">«unionOf»</text>
<polygon fill="none" stroke="black" points="153.25,-342.88 153.25,-361.12 212.75,-361.12 212.75,-342.88 153.25,-342.88"/>
</g>
<!-- RoadSection&#45;&gt;Nd04791e1cf654f0ab1aeea0fe73b2af5 -->
<g id="edge8" class="edge">
<title>RoadSection&#45;&gt;Nd04791e1cf654f0ab1aeea0fe73b2af5</title>
<path fill="none" stroke="black" stroke-dasharray="5,2" d="M187.14,-270.8C183.43,-276.27 179.92,-282.59 178,-289 174.78,-299.75 175,-311.99 176.4,-322.73"/>
<polygon fill="black" stroke="black" points="172.95,-323.32 178.09,-332.58 179.84,-322.13 172.95,-323.32"/>
<text xml:space="preserve" text-anchor="middle" x="272.5" y="-305.55" font-family="Arial" font-size="11.00"> onProperty: partwhole::hasProperPart </text>
<text xml:space="preserve" text-anchor="middle" x="272.5" y="-292.05" font-family="Arial" font-size="11.00"> «only» &#160;</text>
</g>
<!-- RoadLink -->
<g id="node4" class="node">
<title>RoadLink</title>
<g id="a_node4"><a xlink:href="../_counters/transportnetwork__RoadLink.md" xlink:title="&lt;TABLE&gt;">
<polygon fill="lightgray" stroke="none" points="31.12,-171.88 31.12,-188.12 84.88,-188.12 84.88,-171.88 31.12,-171.88"/>
<text xml:space="preserve" text-anchor="start" x="32.12" y="-175.72" font-family="Arial" font-size="12.00">RoadLink</text>
<polygon fill="none" stroke="black" points="30.12,-170.88 30.12,-189.12 85.88,-189.12 85.88,-170.88 30.12,-170.88"/>
</a>
</g>
</g>
<!-- Invis&#45;&gt;RoadLink -->
<!-- RoadLink&#45;&gt;RoadNetwork -->
<!-- RoadSegment -->
<g id="node6" class="node">
<title>RoadSegment</title>
<g id="a_node6"><a xlink:href="../_counters/transportnetwork__RoadSegment.md" xlink:title="&lt;TABLE&gt;">
<polygon fill="lightgray" stroke="none" points="17.38,-25.88 17.38,-42.12 96.62,-42.12 96.62,-25.88 17.38,-25.88"/>
<text xml:space="preserve" text-anchor="start" x="18.38" y="-29.73" font-family="Arial" font-size="12.00">RoadSegment</text>
<polygon fill="none" stroke="black" points="16.38,-24.88 16.38,-43.12 97.62,-43.12 97.62,-24.88 16.38,-24.88"/>
</a>
</g>
</g>
<!-- RoadNetwork&#45;&gt;RoadSegment -->
<!-- Nd04791e1cf654f0ab1aeea0fe73b2af5&#45;&gt;RoadLink -->
<g id="edge6" class="edge">
<title>Nd04791e1cf654f0ab1aeea0fe73b2af5&#45;&gt;RoadLink</title>
<path fill="none" stroke="black" stroke-dasharray="1,5" d="M165.12,-334.23C150.73,-320.23 130.46,-299.35 115.25,-279 98.25,-256.26 82.25,-228.07 71.51,-207.77"/>
<polygon fill="black" stroke="black" points="74.67,-206.26 66.95,-199.01 68.46,-209.49 74.67,-206.26"/>
<text xml:space="preserve" text-anchor="middle" x="135.12" y="-249.3" font-family="Arial" font-size="11.00">member</text>
</g>
<!-- Nd04791e1cf654f0ab1aeea0fe73b2af5&#45;&gt;RoadSegment -->
<g id="edge7" class="edge">
<title>Nd04791e1cf654f0ab1aeea0fe73b2af5&#45;&gt;RoadSegment</title>
<path fill="none" stroke="black" stroke-dasharray="1,5" d="M212.62,-349.24C258.91,-345.87 345.37,-336.9 367,-316 387.31,-296.37 381,-282.25 381,-254 381,-254 381,-254 381,-106 381,-50.97 200.41,-38.54 108.88,-35.77"/>
<polygon fill="black" stroke="black" points="108.98,-32.27 98.89,-35.5 108.79,-39.27 108.98,-32.27"/>
<text xml:space="preserve" text-anchor="middle" x="400.88" y="-176.3" font-family="Arial" font-size="11.00">member</text>
</g>
</g>
</svg>
