<?xml version="1.0" encoding="UTF-8" standalone="no"?>
<!DOCTYPE svg PUBLIC "-//W3C//DTD SVG 1.1//EN"
 "http://www.w3.org/Graphics/SVG/1.1/DTD/svg11.dtd">
<!-- Generated by graphviz version 14.0.2 (20251019.1705)
 -->
<!-- Pages: 1 -->
<svg width="214pt" height="132pt"
 viewBox="0.00 0.00 214.00 132.00" xmlns="http://www.w3.org/2000/svg" xmlns:xlink="http://www.w3.org/1999/xlink">
<g id="graph0" class="graph" transform="scale(1 1) rotate(0) translate(4 128)">
<polygon fill="white" stroke="none" points="-4,4 -4,-128 209.62,-128 209.62,4 -4,4"/>
<g id="clust2" class="cluster">
<title>cluster_associated</title>
</g>
<!-- TransportAlertPattern -->
<g id="node1" class="node">
<title>TransportAlertPattern</title>
<g id="a_node1"><a xlink:href="../classes/transportnetwork__TransportAlertPattern.md" xlink:title="&lt;TABLE&gt;">
<polygon fill="lightgray" stroke="none" points="1,-25.88 1,-42.12 116.25,-42.12 116.25,-25.88 1,-25.88"/>
<text xml:space="preserve" text-anchor="start" x="2" y="-29.73" font-family="Arial" font-size="12.00">TransportAlertPattern</text>
<polygon fill="none" stroke="black" points="0,-24.88 0,-43.12 117.25,-43.12 117.25,-24.88 0,-24.88"/>
</a>
</g>
</g>
<!-- ITSPattern -->
<g id="node2" class="node">
<title>ITSPattern</title>
<g id="a_node2"><a xlink:href="../_counters/transportnetwork__ITSPattern.md" xlink:title="&lt;TABLE&gt;">
<polygon fill="lightgray" stroke="none" points="29.12,-97.88 29.12,-114.12 88.12,-114.12 88.12,-97.88 29.12,-97.88"/>
<text xml:space="preserve" text-anchor="start" x="30.12" y="-101.72" font-family="Arial" font-size="12.00">ITSPattern</text>
<polygon fill="none" stroke="black" points="28.12,-96.88 28.12,-115.12 89.12,-115.12 89.12,-96.88 28.12,-96.88"/>
</a>
</g>
</g>
<!-- TransportAlertPattern&#45;&gt;ITSPattern -->
<g id="edge1" class="edge">
<title>TransportAlertPattern&#45;&gt;ITSPattern</title>
<path fill="none" stroke="black" d="M58.62,-51.79C58.62,-59.25 58.62,-68.24 58.62,-76.69"/>
<polygon fill="none" stroke="black" points="55.13,-76.54 58.63,-86.54 62.13,-76.54 55.13,-76.54"/>
</g>
<!-- Invis -->
</g>
</svg>
