<?xml version="1.0" encoding="UTF-8" standalone="no"?>
<!DOCTYPE svg PUBLIC "-//W3C//DTD SVG 1.1//EN"
 "http://www.w3.org/Graphics/SVG/1.1/DTD/svg11.dtd">
<!-- Generated by graphviz version 14.0.2 (20251019.1705)
 -->
<!-- Pages: 1 -->
<svg width="350pt" height="232pt"
 viewBox="0.00 0.00 350.00 232.00" xmlns="http://www.w3.org/2000/svg" xmlns:xlink="http://www.w3.org/1999/xlink">
<g id="graph0" class="graph" transform="scale(1 1) rotate(0) translate(4 228)">
<polygon fill="white" stroke="none" points="-4,4 -4,-228 345.59,-228 345.59,4 -4,4"/>
<g id="clust2" class="cluster">
<title>cluster_associated</title>
</g>
<!-- TravelledWayLane -->
<g id="node1" class="node">
<title>TravelledWayLane</title>
<g id="a_node1"><a xlink:href="../classes/transportnetwork__TravelledWayLane.md" xlink:title="&lt;TABLE&gt;">
<polygon fill="lightgray" stroke="none" points="158.75,-124.88 158.75,-141.12 261.25,-141.12 261.25,-124.88 158.75,-124.88"/>
<text xml:space="preserve" text-anchor="start" x="159.75" y="-128.72" font-family="Arial" font-size="12.00">TravelledWayLane</text>
<polygon fill="none" stroke="black" points="157.75,-123.88 157.75,-142.12 262.25,-142.12 262.25,-123.88 157.75,-123.88"/>
</a>
</g>
</g>
<!-- NetworkElement -->
<g id="node2" class="node">
<title>NetworkElement</title>
<g id="a_node2"><a xlink:href="../_counters/transportnetwork__NetworkElement.md" xlink:title="&lt;TABLE&gt;">
<polygon fill="lightgray" stroke="none" points="164.75,-197.88 164.75,-214.12 255.25,-214.12 255.25,-197.88 164.75,-197.88"/>
<text xml:space="preserve" text-anchor="start" x="165.75" y="-201.72" font-family="Arial" font-size="12.00">NetworkElement</text>
<polygon fill="none" stroke="black" points="163.75,-196.88 163.75,-215.12 256.25,-215.12 256.25,-196.88 163.75,-196.88"/>
</a>
</g>
</g>
<!-- TravelledWayLane&#45;&gt;NetworkElement -->
<g id="edge1" class="edge">
<title>TravelledWayLane&#45;&gt;NetworkElement</title>
<path fill="none" stroke="black" d="M210,-150.71C210,-158.47 210,-167.92 210,-176.74"/>
<polygon fill="none" stroke="black" points="206.5,-176.66 210,-186.66 213.5,-176.66 206.5,-176.66"/>
</g>
<!-- Invis -->
<!-- TravelledWayLane&#45;&gt;Invis -->
<!-- TravelledWaySegment -->
<g id="node4" class="node">
<title>TravelledWaySegment</title>
<g id="a_node4"><a xlink:href="../_counters/transportnetwork__TravelledWaySegment.md" xlink:title="&lt;TABLE&gt;">
<polygon fill="lightgray" stroke="none" points="17.25,-25.88 17.25,-42.12 140.75,-42.12 140.75,-25.88 17.25,-25.88"/>
<text xml:space="preserve" text-anchor="start" x="18.25" y="-29.73" font-family="Arial" font-size="12.00">TravelledWaySegment</text>
<polygon fill="none" stroke="black" points="16.25,-24.88 16.25,-43.12 141.75,-43.12 141.75,-24.88 16.25,-24.88"/>
</a>
</g>
</g>
<!-- TravelledWayLane&#45;&gt;TravelledWaySegment -->
<g id="edge4" class="edge">
<title>TravelledWayLane&#45;&gt;TravelledWaySegment</title>
<path fill="none" stroke="black" stroke-dasharray="5,2" d="M187.18,-115.1C166.05,-99.46 134.42,-76.03 110.81,-58.55"/>
<polygon fill="black" stroke="black" points="112.89,-55.74 102.77,-52.6 108.73,-61.37 112.89,-55.74"/>
<text xml:space="preserve" text-anchor="middle" x="250.84" y="-86.55" font-family="Arial" font-size="11.00"> onProperty: partwhole::properPartOf </text>
<text xml:space="preserve" text-anchor="middle" x="250.84" y="-73.05" font-family="Arial" font-size="11.00"> «min 1, only» &#160;</text>
</g>
<!-- Invis&#45;&gt;TravelledWaySegment -->
</g>
</svg>
