<?xml version="1.0" encoding="UTF-8" standalone="no"?>
<!DOCTYPE svg PUBLIC "-//W3C//DTD SVG 1.1//EN"
 "http://www.w3.org/Graphics/SVG/1.1/DTD/svg11.dtd">
<!-- Generated by graphviz version 14.0.2 (20251019.1705)
 -->
<!-- Pages: 1 -->
<svg width="506pt" height="417pt"
 viewBox="0.00 0.00 506.00 417.00" xmlns="http://www.w3.org/2000/svg" xmlns:xlink="http://www.w3.org/1999/xlink">
<g id="graph0" class="graph" transform="scale(1 1) rotate(0) translate(4 412.5)">
<polygon fill="white" stroke="none" points="-4,4 -4,-412.5 502.25,-412.5 502.25,4 -4,4"/>
<g id="clust2" class="cluster">
<title>cluster_associated</title>
</g>
<!-- RailNetwork -->
<g id="node1" class="node">
<title>RailNetwork</title>
<g id="a_node1"><a xlink:href="../classes/transportnetwork__RailNetwork.md" xlink:title="&lt;TABLE&gt;">
<polygon fill="lightgray" stroke="none" points="244,-283.38 244,-299.62 312,-299.62 312,-283.38 244,-283.38"/>
<text xml:space="preserve" text-anchor="start" x="245" y="-287.23" font-family="Arial" font-size="12.00">RailNetwork</text>
<polygon fill="none" stroke="black" points="243,-282.38 243,-300.62 313,-300.62 313,-282.38 243,-282.38"/>
</a>
</g>
</g>
<!-- TransportNetwork -->
<g id="node2" class="node">
<title>TransportNetwork</title>
<g id="a_node2"><a xlink:href="../_counters/transportnetwork__TransportNetwork.md" xlink:title="&lt;TABLE&gt;">
<polygon fill="lightgray" stroke="none" points="400.75,-382.38 400.75,-398.62 497.25,-398.62 497.25,-382.38 400.75,-382.38"/>
<text xml:space="preserve" text-anchor="start" x="401.75" y="-386.23" font-family="Arial" font-size="12.00">TransportNetwork</text>
<polygon fill="none" stroke="black" points="399.75,-381.38 399.75,-399.62 498.25,-399.62 498.25,-381.38 399.75,-381.38"/>
</a>
</g>
</g>
<!-- RailNetwork&#45;&gt;TransportNetwork -->
<g id="edge1" class="edge">
<title>RailNetwork&#45;&gt;TransportNetwork</title>
<path fill="none" stroke="black" d="M312.84,-295.94C353.72,-300.69 418.09,-310.64 435,-327.5 443.85,-336.32 447.61,-349.48 449.05,-361.4"/>
<polygon fill="none" stroke="black" points="445.55,-361.46 449.72,-371.19 452.53,-360.98 445.55,-361.46"/>
</g>
<!-- Invis -->
<!-- RailNetwork&#45;&gt;Invis -->
<!-- TrackLink -->
<g id="node6" class="node">
<title>TrackLink</title>
<g id="a_node6"><a xlink:href="../_counters/transportnetwork__TrackLink.md" xlink:title="&lt;TABLE&gt;">
<polygon fill="lightgray" stroke="none" points="31.12,-25.88 31.12,-42.12 84.88,-42.12 84.88,-25.88 31.12,-25.88"/>
<text xml:space="preserve" text-anchor="start" x="32.12" y="-29.73" font-family="Arial" font-size="12.00">TrackLink</text>
<polygon fill="none" stroke="black" points="30.12,-24.88 30.12,-43.12 85.88,-43.12 85.88,-24.88 30.12,-24.88"/>
</a>
</g>
</g>
<!-- RailNetwork&#45;&gt;TrackLink -->
<g id="edge10" class="edge">
<title>RailNetwork&#45;&gt;TrackLink</title>
<path fill="none" stroke="black" stroke-dasharray="5,2" d="M279.61,-273.77C282.57,-232.56 283.96,-125.49 226,-70 207.86,-52.64 140.79,-42.97 97.07,-38.38"/>
<polygon fill="black" stroke="black" points="97.5,-34.91 87.2,-37.4 96.8,-41.87 97.5,-34.91"/>
<text xml:space="preserve" text-anchor="middle" x="368.59" y="-159.55" font-family="Arial" font-size="11.00"> onProperty: partwhole::hasProperPart </text>
<text xml:space="preserve" text-anchor="middle" x="368.59" y="-146.05" font-family="Arial" font-size="11.00"> «min 1» &#160;</text>
</g>
<!-- N183190e241a94441a40bf03385015e17 -->
<g id="node7" class="node">
<title>N183190e241a94441a40bf03385015e17</title>
<polygon fill="lightyellow" stroke="none" points="163.25,-381.38 163.25,-399.62 222.75,-399.62 222.75,-381.38 163.25,-381.38"/>
<text xml:space="preserve" text-anchor="start" x="165.25" y="-386.23" font-family="Arial" font-size="12.00">«unionOf»</text>
<polygon fill="none" stroke="black" points="163.25,-381.38 163.25,-399.62 222.75,-399.62 222.75,-381.38 163.25,-381.38"/>
</g>
<!-- RailNetwork&#45;&gt;N183190e241a94441a40bf03385015e17 -->
<g id="edge9" class="edge">
<title>RailNetwork&#45;&gt;N183190e241a94441a40bf03385015e17</title>
<path fill="none" stroke="black" stroke-dasharray="5,2" d="M262.25,-309.48C257.04,-315.17 251.23,-321.57 246,-327.5 235.57,-339.32 233.24,-342.52 223,-354.5 220.29,-357.67 217.45,-360.99 214.63,-364.28"/>
<polygon fill="black" stroke="black" points="212.19,-361.75 208.34,-371.62 217.5,-366.31 212.19,-361.75"/>
<text xml:space="preserve" text-anchor="middle" x="340.5" y="-344.05" font-family="Arial" font-size="11.00"> onProperty: partwhole::hasProperPart </text>
<text xml:space="preserve" text-anchor="middle" x="340.5" y="-330.55" font-family="Arial" font-size="11.00"> «only» &#160;</text>
</g>
<!-- RailCorridor -->
<g id="node4" class="node">
<title>RailCorridor</title>
<g id="a_node4"><a xlink:href="../_counters/transportnetwork__RailCorridor.md" xlink:title="&lt;TABLE&gt;">
<polygon fill="lightgray" stroke="none" points="17.38,-197.88 17.38,-214.12 84.62,-214.12 84.62,-197.88 17.38,-197.88"/>
<text xml:space="preserve" text-anchor="start" x="18.38" y="-201.72" font-family="Arial" font-size="12.00">RailCorridor</text>
<polygon fill="none" stroke="black" points="16.38,-196.88 16.38,-215.12 85.62,-215.12 85.62,-196.88 16.38,-196.88"/>
</a>
</g>
</g>
<!-- Invis&#45;&gt;RailCorridor -->
<!-- RailSection -->
<g id="node5" class="node">
<title>RailSection</title>
<g id="a_node5"><a xlink:href="../_counters/transportnetwork__RailSection.md" xlink:title="&lt;TABLE&gt;">
<polygon fill="lightgray" stroke="none" points="20.88,-98.88 20.88,-115.12 85.12,-115.12 85.12,-98.88 20.88,-98.88"/>
<text xml:space="preserve" text-anchor="start" x="21.88" y="-102.72" font-family="Arial" font-size="12.00">RailSection</text>
<polygon fill="none" stroke="black" points="19.88,-97.88 19.88,-116.12 86.12,-116.12 86.12,-97.88 19.88,-97.88"/>
</a>
</g>
</g>
<!-- RailCorridor&#45;&gt;RailSection -->
<!-- RailSection&#45;&gt;TrackLink -->
<!-- N183190e241a94441a40bf03385015e17&#45;&gt;RailCorridor -->
<g id="edge6" class="edge">
<title>N183190e241a94441a40bf03385015e17&#45;&gt;RailCorridor</title>
<path fill="none" stroke="black" stroke-dasharray="1,5" d="M173.54,-372.55C158.14,-358.6 136.58,-337.89 120.25,-317.5 98.77,-290.68 78.42,-256.83 65.41,-233.7"/>
<polygon fill="black" stroke="black" points="68.62,-232.27 60.71,-225.22 62.5,-235.66 68.62,-232.27"/>
<text xml:space="preserve" text-anchor="middle" x="140.12" y="-287.8" font-family="Arial" font-size="11.00">member</text>
</g>
<!-- N183190e241a94441a40bf03385015e17&#45;&gt;RailSection -->
<g id="edge7" class="edge">
<title>N183190e241a94441a40bf03385015e17&#45;&gt;RailSection</title>
<path fill="none" stroke="black" stroke-dasharray="1,5" d="M189.88,-372.82C185.22,-349.79 175.3,-307.25 160,-273.5 136.06,-220.69 96.93,-165.27 73.21,-133.84"/>
<polygon fill="black" stroke="black" points="76.14,-131.92 67.29,-126.09 70.58,-136.16 76.14,-131.92"/>
<text xml:space="preserve" text-anchor="middle" x="170.96" y="-245.05" font-family="Arial" font-size="11.00">member</text>
</g>
<!-- N183190e241a94441a40bf03385015e17&#45;&gt;TrackLink -->
<g id="edge8" class="edge">
<title>N183190e241a94441a40bf03385015e17&#45;&gt;TrackLink</title>
<path fill="none" stroke="black" stroke-dasharray="1,5" d="M198.39,-372.53C204.01,-353.31 212,-320.99 212,-292.5 212,-292.5 212,-292.5 212,-106 212,-55.35 142.46,-40.71 96.84,-36.56"/>
<polygon fill="black" stroke="black" points="97.28,-33.08 87.04,-35.81 96.75,-40.06 97.28,-33.08"/>
<text xml:space="preserve" text-anchor="middle" x="231.88" y="-202.3" font-family="Arial" font-size="11.00">member</text>
</g>
</g>
</svg>
