<?xml version="1.0" encoding="UTF-8" standalone="no"?>
<!DOCTYPE svg PUBLIC "-//W3C//DTD SVG 1.1//EN"
 "http://www.w3.org/Graphics/SVG/1.1/DTD/svg11.dtd">
<!-- Generated by graphviz version 14.0.2 (20251019.1705)
 -->
<!-- Pages: 1 -->
<svg width="437pt" height="305pt"
 viewBox="0.00 0.00 437.00 305.00" xmlns="http://www.w3.org/2000/svg" xmlns:xlink="http://www.w3.org/1999/xlink">
<g id="graph0" class="graph" transform="scale(1 1) rotate(0) translate(4 301)">
<polygon fill="white" stroke="none" points="-4,4 -4,-301 433.01,-301 433.01,4 -4,4"/>
<g id="clust2" class="cluster">
<title>cluster_associated</title>
</g>
<!-- Footpath -->
<g id="node1" class="node">
<title>Footpath</title>
<g id="a_node1"><a xlink:href="../classes/transportnetwork__Footpath.md" xlink:title="&lt;TABLE&gt;">
<polygon fill="lightgray" stroke="none" points="130.38,-197.88 130.38,-214.12 179.62,-214.12 179.62,-197.88 130.38,-197.88"/>
<text xml:space="preserve" text-anchor="start" x="131.38" y="-201.72" font-family="Arial" font-size="12.00">Footpath</text>
<polygon fill="none" stroke="black" points="129.38,-196.88 129.38,-215.12 180.62,-215.12 180.62,-196.88 129.38,-196.88"/>
</a>
</g>
</g>
<!-- TravelledWay -->
<g id="node2" class="node">
<title>TravelledWay</title>
<g id="a_node2"><a xlink:href="../_counters/transportnetwork__TravelledWay.md" xlink:title="&lt;TABLE&gt;">
<polygon fill="lightgray" stroke="none" points="117.25,-270.88 117.25,-287.12 192.75,-287.12 192.75,-270.88 117.25,-270.88"/>
<text xml:space="preserve" text-anchor="start" x="118.25" y="-274.73" font-family="Arial" font-size="12.00">TravelledWay</text>
<polygon fill="none" stroke="black" points="116.25,-269.88 116.25,-288.12 193.75,-288.12 193.75,-269.88 116.25,-269.88"/>
</a>
</g>
</g>
<!-- Footpath&#45;&gt;TravelledWay -->
<g id="edge1" class="edge">
<title>Footpath&#45;&gt;TravelledWay</title>
<path fill="none" stroke="black" d="M155,-223.71C155,-231.47 155,-240.92 155,-249.74"/>
<polygon fill="none" stroke="black" points="151.5,-249.66 155,-259.66 158.5,-249.66 151.5,-249.66"/>
</g>
<!-- Invis -->
<!-- Footpath&#45;&gt;Invis -->
<!-- FootpathLink -->
<g id="node4" class="node">
<title>FootpathLink</title>
<g id="a_node4"><a xlink:href="../_counters/transportnetwork__FootpathLink.md" xlink:title="&lt;TABLE&gt;">
<polygon fill="lightgray" stroke="none" points="28.12,-98.88 28.12,-115.12 99.88,-115.12 99.88,-98.88 28.12,-98.88"/>
<text xml:space="preserve" text-anchor="start" x="29.12" y="-102.72" font-family="Arial" font-size="12.00">FootpathLink</text>
<polygon fill="none" stroke="black" points="27.12,-97.88 27.12,-116.12 100.88,-116.12 100.88,-97.88 27.12,-97.88"/>
</a>
</g>
</g>
<!-- Footpath&#45;&gt;FootpathLink -->
<g id="edge5" class="edge">
<title>Footpath&#45;&gt;FootpathLink</title>
<path fill="none" stroke="black" stroke-dasharray="5,2" d="M128.08,-189.89C126.71,-189.23 125.35,-188.6 124,-188 101.64,-178.09 87.43,-188.97 72,-170 64.43,-160.69 61.9,-147.85 61.48,-136.28"/>
<polygon fill="black" stroke="black" points="64.98,-136.44 61.65,-126.38 57.98,-136.32 64.98,-136.44"/>
<text xml:space="preserve" text-anchor="middle" x="166.5" y="-159.55" font-family="Arial" font-size="11.00"> onProperty: partwhole::hasProperPart </text>
<text xml:space="preserve" text-anchor="middle" x="166.5" y="-146.05" font-family="Arial" font-size="11.00"> «min 1, only» &#160;</text>
</g>
<!-- FootpathNetwork -->
<g id="node5" class="node">
<title>FootpathNetwork</title>
<g id="a_node5"><a xlink:href="../_counters/transportnetwork__FootpathNetwork.md" xlink:title="&lt;TABLE&gt;">
<polygon fill="lightgray" stroke="none" points="17.25,-25.88 17.25,-42.12 110.75,-42.12 110.75,-25.88 17.25,-25.88"/>
<text xml:space="preserve" text-anchor="start" x="18.25" y="-29.73" font-family="Arial" font-size="12.00">FootpathNetwork</text>
<polygon fill="none" stroke="black" points="16.25,-24.88 16.25,-43.12 111.75,-43.12 111.75,-24.88 16.25,-24.88"/>
</a>
</g>
</g>
<!-- Footpath&#45;&gt;FootpathNetwork -->
<g id="edge6" class="edge">
<title>Footpath&#45;&gt;FootpathNetwork</title>
<path fill="none" stroke="black" stroke-dasharray="5,2" d="M181.82,-204.45C206.89,-202.33 243.06,-194.82 261,-170 268.03,-160.28 267.11,-153.33 261,-143 231.29,-92.82 169.08,-64.42 122.48,-49.47"/>
<polygon fill="black" stroke="black" points="123.63,-46.16 113.04,-46.57 121.57,-52.85 123.63,-46.16"/>
<text xml:space="preserve" text-anchor="middle" x="338.26" y="-110.05" font-family="Arial" font-size="11.00"> onProperty: partwhole::properPartOf </text>
<text xml:space="preserve" text-anchor="middle" x="338.26" y="-96.55" font-family="Arial" font-size="11.00"> «only» &#160;</text>
</g>
<!-- Invis&#45;&gt;FootpathLink -->
<!-- FootpathLink&#45;&gt;FootpathNetwork -->
</g>
</svg>
