<?xml version="1.0" encoding="UTF-8" standalone="no"?>
<!DOCTYPE svg PUBLIC "-//W3C//DTD SVG 1.1//EN"
 "http://www.w3.org/Graphics/SVG/1.1/DTD/svg11.dtd">
<!-- Generated by graphviz version 14.0.2 (20251019.1705)
 -->
<!-- Pages: 1 -->
<svg width="520pt" height="391pt"
 viewBox="0.00 0.00 520.00 391.00" xmlns="http://www.w3.org/2000/svg" xmlns:xlink="http://www.w3.org/1999/xlink">
<g id="graph0" class="graph" transform="scale(1 1) rotate(0) translate(4 386.5)">
<polygon fill="white" stroke="none" points="-4,4 -4,-386.5 516,-386.5 516,4 -4,4"/>
<g id="clust2" class="cluster">
<title>cluster_associated</title>
</g>
<!-- FootpathNetwork -->
<g id="node1" class="node">
<title>FootpathNetwork</title>
<g id="a_node1"><a xlink:href="../classes/transportnetwork__FootpathNetwork.md" xlink:title="&lt;TABLE&gt;">
<polygon fill="lightgray" stroke="none" points="28.5,-257.38 28.5,-273.62 122,-273.62 122,-257.38 28.5,-257.38"/>
<text xml:space="preserve" text-anchor="start" x="29.5" y="-261.23" font-family="Arial" font-size="12.00">FootpathNetwork</text>
<polygon fill="none" stroke="black" points="27.5,-256.38 27.5,-274.62 123,-274.62 123,-256.38 27.5,-256.38"/>
</a>
</g>
</g>
<!-- TransportNetwork -->
<g id="node2" class="node">
<title>TransportNetwork</title>
<g id="a_node2"><a xlink:href="../_counters/transportnetwork__TransportNetwork.md" xlink:title="&lt;TABLE&gt;">
<polygon fill="lightgray" stroke="none" points="1,-356.38 1,-372.62 97.5,-372.62 97.5,-356.38 1,-356.38"/>
<text xml:space="preserve" text-anchor="start" x="2" y="-360.23" font-family="Arial" font-size="12.00">TransportNetwork</text>
<polygon fill="none" stroke="black" points="0,-355.38 0,-373.62 98.5,-373.62 98.5,-355.38 0,-355.38"/>
</a>
</g>
</g>
<!-- FootpathNetwork&#45;&gt;TransportNetwork -->
<g id="edge1" class="edge">
<title>FootpathNetwork&#45;&gt;TransportNetwork</title>
<path fill="none" stroke="black" d="M69.02,-283.47C67.04,-289.16 64.93,-295.57 63.25,-301.5 60.15,-312.45 57.27,-324.65 54.94,-335.3"/>
<polygon fill="none" stroke="black" points="51.53,-334.55 52.88,-345.05 58.37,-336 51.53,-334.55"/>
</g>
<!-- Invis -->
<!-- FootpathNetwork&#45;&gt;Invis -->
<!-- FootpathLink -->
<g id="node5" class="node">
<title>FootpathLink</title>
<g id="a_node5"><a xlink:href="../_counters/transportnetwork__FootpathLink.md" xlink:title="&lt;TABLE&gt;">
<polygon fill="lightgray" stroke="none" points="287.38,-98.88 287.38,-115.12 359.12,-115.12 359.12,-98.88 287.38,-98.88"/>
<text xml:space="preserve" text-anchor="start" x="288.38" y="-102.72" font-family="Arial" font-size="12.00">FootpathLink</text>
<polygon fill="none" stroke="black" points="286.38,-97.88 286.38,-116.12 360.12,-116.12 360.12,-97.88 286.38,-97.88"/>
</a>
</g>
</g>
<!-- FootpathNetwork&#45;&gt;FootpathLink -->
<g id="edge10" class="edge">
<title>FootpathNetwork&#45;&gt;FootpathLink</title>
<path fill="none" stroke="black" stroke-dasharray="5,2" d="M71.08,-247.68C66.62,-225.29 62.69,-185.75 83.25,-162 107.92,-133.51 212.67,-118.63 275.34,-112.14"/>
<polygon fill="black" stroke="black" points="275.42,-115.65 285.02,-111.18 274.72,-108.69 275.42,-115.65"/>
<text xml:space="preserve" text-anchor="middle" x="177.75" y="-183.05" font-family="Arial" font-size="11.00"> onProperty: partwhole::hasProperPart </text>
<text xml:space="preserve" text-anchor="middle" x="177.75" y="-169.55" font-family="Arial" font-size="11.00"> «min 1» &#160;</text>
</g>
<!-- Ncab429c78619489da5ff50934f952608 -->
<g id="node7" class="node">
<title>Ncab429c78619489da5ff50934f952608</title>
<polygon fill="lightyellow" stroke="none" points="315.5,-355.38 315.5,-373.62 375,-373.62 375,-355.38 315.5,-355.38"/>
<text xml:space="preserve" text-anchor="start" x="317.5" y="-360.23" font-family="Arial" font-size="12.00">«unionOf»</text>
<polygon fill="none" stroke="black" points="315.5,-355.38 315.5,-373.62 375,-373.62 375,-355.38 315.5,-355.38"/>
</g>
<!-- FootpathNetwork&#45;&gt;Ncab429c78619489da5ff50934f952608 -->
<g id="edge9" class="edge">
<title>FootpathNetwork&#45;&gt;Ncab429c78619489da5ff50934f952608</title>
<path fill="none" stroke="black" stroke-dasharray="5,2" d="M72.35,-283.37C70.98,-297.4 71.69,-316.89 83.25,-328.5 113.49,-358.87 239.08,-363.56 304.78,-363.87"/>
<polygon fill="black" stroke="black" points="304.42,-367.37 314.42,-363.88 304.42,-360.37 304.42,-367.37"/>
<text xml:space="preserve" text-anchor="middle" x="177.75" y="-318.05" font-family="Arial" font-size="11.00"> onProperty: partwhole::hasProperPart </text>
<text xml:space="preserve" text-anchor="middle" x="177.75" y="-304.55" font-family="Arial" font-size="11.00"> «only» &#160;</text>
</g>
<!-- Footpath -->
<g id="node4" class="node">
<title>Footpath</title>
<g id="a_node4"><a xlink:href="../_counters/transportnetwork__Footpath.md" xlink:title="&lt;TABLE&gt;">
<polygon fill="lightgray" stroke="none" points="316.62,-171.88 316.62,-188.12 365.88,-188.12 365.88,-171.88 316.62,-171.88"/>
<text xml:space="preserve" text-anchor="start" x="317.62" y="-175.72" font-family="Arial" font-size="12.00">Footpath</text>
<polygon fill="none" stroke="black" points="315.62,-170.88 315.62,-189.12 366.88,-189.12 366.88,-170.88 315.62,-170.88"/>
</a>
</g>
</g>
<!-- Invis&#45;&gt;Footpath -->
<!-- Footpath&#45;&gt;FootpathLink -->
<!-- FootpathSection -->
<g id="node6" class="node">
<title>FootpathSection</title>
<g id="a_node6"><a xlink:href="../_counters/transportnetwork__FootpathSection.md" xlink:title="&lt;TABLE&gt;">
<polygon fill="lightgray" stroke="none" points="283.38,-25.88 283.38,-42.12 373.12,-42.12 373.12,-25.88 283.38,-25.88"/>
<text xml:space="preserve" text-anchor="start" x="284.38" y="-29.73" font-family="Arial" font-size="12.00">FootpathSection</text>
<polygon fill="none" stroke="black" points="282.38,-24.88 282.38,-43.12 374.12,-43.12 374.12,-24.88 282.38,-24.88"/>
</a>
</g>
</g>
<!-- FootpathLink&#45;&gt;FootpathSection -->
<!-- Ncab429c78619489da5ff50934f952608&#45;&gt;Footpath -->
<g id="edge6" class="edge">
<title>Ncab429c78619489da5ff50934f952608&#45;&gt;Footpath</title>
<path fill="none" stroke="black" stroke-dasharray="1,5" d="M355.13,-346.73C362.87,-332.56 373.02,-311.44 377.25,-291.5 381.31,-272.37 382.05,-266.46 377.25,-247.5 373.68,-233.42 366.48,-219.1 359.45,-207.37"/>
<polygon fill="black" stroke="black" points="362.51,-205.66 354.21,-199.07 356.59,-209.4 362.51,-205.66"/>
<text xml:space="preserve" text-anchor="middle" x="400.45" y="-261.8" font-family="Arial" font-size="11.00">member</text>
</g>
<!-- Ncab429c78619489da5ff50934f952608&#45;&gt;FootpathLink -->
<g id="edge7" class="edge">
<title>Ncab429c78619489da5ff50934f952608&#45;&gt;FootpathLink</title>
<path fill="none" stroke="black" stroke-dasharray="1,5" d="M333.41,-346.61C324.16,-332.54 311.82,-311.62 305.25,-291.5 287.38,-236.79 292.01,-218.01 305.25,-162 307.31,-153.27 310.18,-143.95 313.01,-135.54"/>
<polygon fill="black" stroke="black" points="316.27,-136.82 316.28,-126.23 309.67,-134.5 316.27,-136.82"/>
<text xml:space="preserve" text-anchor="middle" x="314.26" y="-219.05" font-family="Arial" font-size="11.00">member</text>
</g>
<!-- Ncab429c78619489da5ff50934f952608&#45;&gt;FootpathSection -->
<g id="edge8" class="edge">
<title>Ncab429c78619489da5ff50934f952608&#45;&gt;FootpathSection</title>
<path fill="none" stroke="black" stroke-dasharray="1,5" d="M374.71,-355.31C412.22,-342.87 472.25,-315.33 472.25,-266.5 472.25,-266.5 472.25,-266.5 472.25,-106 472.25,-65.23 425.25,-47.87 384.96,-40.48"/>
<polygon fill="black" stroke="black" points="385.74,-37.06 375.31,-38.9 384.61,-43.97 385.74,-37.06"/>
<text xml:space="preserve" text-anchor="middle" x="492.12" y="-176.3" font-family="Arial" font-size="11.00">member</text>
</g>
</g>
</svg>
