<?xml version="1.0" encoding="UTF-8" standalone="no"?>
<!DOCTYPE svg PUBLIC "-//W3C//DTD SVG 1.1//EN"
 "http://www.w3.org/Graphics/SVG/1.1/DTD/svg11.dtd">
<!-- Generated by graphviz version 14.0.2 (20251019.1705)
 -->
<!-- Pages: 1 -->
<svg width="450pt" height="305pt"
 viewBox="0.00 0.00 450.00 305.00" xmlns="http://www.w3.org/2000/svg" xmlns:xlink="http://www.w3.org/1999/xlink">
<g id="graph0" class="graph" transform="scale(1 1) rotate(0) translate(4 301)">
<polygon fill="white" stroke="none" points="-4,4 -4,-301 445.86,-301 445.86,4 -4,4"/>
<g id="clust2" class="cluster">
<title>cluster_associated</title>
</g>
<!-- MicromobilityPath -->
<g id="node1" class="node">
<title>MicromobilityPath</title>
<g id="a_node1"><a xlink:href="../classes/transportnetwork__MicromobilityPath.md" xlink:title="&lt;TABLE&gt;">
<polygon fill="lightgray" stroke="none" points="151.38,-197.88 151.38,-214.12 248.62,-214.12 248.62,-197.88 151.38,-197.88"/>
<text xml:space="preserve" text-anchor="start" x="152.38" y="-201.72" font-family="Arial" font-size="12.00">MicromobilityPath</text>
<polygon fill="none" stroke="black" points="150.38,-196.88 150.38,-215.12 249.62,-215.12 249.62,-196.88 150.38,-196.88"/>
</a>
</g>
</g>
<!-- Road -->
<g id="node2" class="node">
<title>Road</title>
<g id="a_node2"><a xlink:href="../_counters/transportnetwork__Road.md" xlink:title="&lt;TABLE&gt;">
<polygon fill="lightgray" stroke="none" points="184.38,-270.88 184.38,-287.12 215.62,-287.12 215.62,-270.88 184.38,-270.88"/>
<text xml:space="preserve" text-anchor="start" x="185.38" y="-274.73" font-family="Arial" font-size="12.00">Road</text>
<polygon fill="none" stroke="black" points="183.38,-269.88 183.38,-288.12 216.62,-288.12 216.62,-269.88 183.38,-269.88"/>
</a>
</g>
</g>
<!-- MicromobilityPath&#45;&gt;Road -->
<g id="edge1" class="edge">
<title>MicromobilityPath&#45;&gt;Road</title>
<path fill="none" stroke="black" d="M200,-223.71C200,-231.47 200,-240.92 200,-249.74"/>
<polygon fill="none" stroke="black" points="196.5,-249.66 200,-259.66 203.5,-249.66 196.5,-249.66"/>
</g>
<!-- Invis -->
<!-- MicromobilityPath&#45;&gt;Invis -->
<!-- MicromobilityLink -->
<g id="node4" class="node">
<title>MicromobilityLink</title>
<g id="a_node4"><a xlink:href="../_counters/transportnetwork__MicromobilityLink.md" xlink:title="&lt;TABLE&gt;">
<polygon fill="lightgray" stroke="none" points="27.5,-98.88 27.5,-115.12 122.5,-115.12 122.5,-98.88 27.5,-98.88"/>
<text xml:space="preserve" text-anchor="start" x="28.5" y="-102.72" font-family="Arial" font-size="12.00">MicromobilityLink</text>
<polygon fill="none" stroke="black" points="26.5,-97.88 26.5,-116.12 123.5,-116.12 123.5,-97.88 26.5,-97.88"/>
</a>
</g>
</g>
<!-- MicromobilityPath&#45;&gt;MicromobilityLink -->
<g id="edge5" class="edge">
<title>MicromobilityPath&#45;&gt;MicromobilityLink</title>
<path fill="none" stroke="black" stroke-dasharray="5,2" d="M150.57,-189.4C149.03,-188.93 147.5,-188.46 146,-188 118.96,-179.76 103.68,-191.22 85,-170 76.89,-160.79 73.98,-147.71 73.26,-135.93"/>
<polygon fill="black" stroke="black" points="76.77,-136.26 73.18,-126.29 69.77,-136.32 76.77,-136.26"/>
<text xml:space="preserve" text-anchor="middle" x="179.5" y="-159.55" font-family="Arial" font-size="11.00"> onProperty: partwhole::hasProperPart </text>
<text xml:space="preserve" text-anchor="middle" x="179.5" y="-146.05" font-family="Arial" font-size="11.00"> «min 1, only» &#160;</text>
</g>
<!-- MicromobilityNetwork -->
<g id="node5" class="node">
<title>MicromobilityNetwork</title>
<g id="a_node5"><a xlink:href="../_counters/transportnetwork__MicromobilityNetwork.md" xlink:title="&lt;TABLE&gt;">
<polygon fill="lightgray" stroke="none" points="16.62,-25.88 16.62,-42.12 133.38,-42.12 133.38,-25.88 16.62,-25.88"/>
<text xml:space="preserve" text-anchor="start" x="17.62" y="-29.73" font-family="Arial" font-size="12.00">MicromobilityNetwork</text>
<polygon fill="none" stroke="black" points="15.62,-24.88 15.62,-43.12 134.38,-43.12 134.38,-24.88 15.62,-24.88"/>
</a>
</g>
</g>
<!-- MicromobilityPath&#45;&gt;MicromobilityNetwork -->
<g id="edge6" class="edge">
<title>MicromobilityPath&#45;&gt;MicromobilityNetwork</title>
<path fill="none" stroke="black" stroke-dasharray="5,2" d="M249.36,-191.15C259.12,-186.1 268.15,-179.25 274,-170 280.42,-159.86 280.14,-153.31 274,-143 246.18,-96.25 190.27,-68.48 144.78,-52.83"/>
<polygon fill="black" stroke="black" points="146.09,-49.58 135.5,-49.78 143.9,-56.23 146.09,-49.58"/>
<text xml:space="preserve" text-anchor="middle" x="351.11" y="-110.05" font-family="Arial" font-size="11.00"> onProperty: partwhole::properPartOf </text>
<text xml:space="preserve" text-anchor="middle" x="351.11" y="-96.55" font-family="Arial" font-size="11.00"> «only» &#160;</text>
</g>
<!-- Invis&#45;&gt;MicromobilityLink -->
<!-- MicromobilityLink&#45;&gt;MicromobilityNetwork -->
</g>
</svg>
