<?xml version="1.0" encoding="UTF-8" standalone="no"?>
<!DOCTYPE svg PUBLIC "-//W3C//DTD SVG 1.1//EN"
 "http://www.w3.org/Graphics/SVG/1.1/DTD/svg11.dtd">
<!-- Generated by graphviz version 14.0.2 (20251019.1705)
 -->
<!-- Pages: 1 -->
<svg width="457pt" height="305pt"
 viewBox="0.00 0.00 457.00 305.00" xmlns="http://www.w3.org/2000/svg" xmlns:xlink="http://www.w3.org/1999/xlink">
<g id="graph0" class="graph" transform="scale(1 1) rotate(0) translate(4 301)">
<polygon fill="white" stroke="none" points="-4,4 -4,-301 452.81,-301 452.81,4 -4,4"/>
<g id="clust2" class="cluster">
<title>cluster_associated</title>
</g>
<!-- TravelCorridorLink -->
<g id="node1" class="node">
<title>TravelCorridorLink</title>
<g id="a_node1"><a xlink:href="../classes/transportnetwork__TravelCorridorLink.md" xlink:title="&lt;TABLE&gt;">
<polygon fill="lightgray" stroke="none" points="161.5,-197.88 161.5,-214.12 262.5,-214.12 262.5,-197.88 161.5,-197.88"/>
<text xml:space="preserve" text-anchor="start" x="162.5" y="-201.72" font-family="Arial" font-size="12.00">TravelCorridorLink</text>
<polygon fill="none" stroke="black" points="160.5,-196.88 160.5,-215.12 263.5,-215.12 263.5,-196.88 160.5,-196.88"/>
</a>
</g>
</g>
<!-- TravelledWayLink -->
<g id="node2" class="node">
<title>TravelledWayLink</title>
<g id="a_node2"><a xlink:href="../_counters/transportnetwork__TravelledWayLink.md" xlink:title="&lt;TABLE&gt;">
<polygon fill="lightgray" stroke="none" points="163,-270.88 163,-287.12 261,-287.12 261,-270.88 163,-270.88"/>
<text xml:space="preserve" text-anchor="start" x="164" y="-274.73" font-family="Arial" font-size="12.00">TravelledWayLink</text>
<polygon fill="none" stroke="black" points="162,-269.88 162,-288.12 262,-288.12 262,-269.88 162,-269.88"/>
</a>
</g>
</g>
<!-- TravelCorridorLink&#45;&gt;TravelledWayLink -->
<g id="edge1" class="edge">
<title>TravelCorridorLink&#45;&gt;TravelledWayLink</title>
<path fill="none" stroke="black" d="M212,-223.71C212,-231.47 212,-240.92 212,-249.74"/>
<polygon fill="none" stroke="black" points="208.5,-249.66 212,-259.66 215.5,-249.66 208.5,-249.66"/>
</g>
<!-- Invis -->
<!-- TravelCorridorLink&#45;&gt;Invis -->
<!-- TravelCorridor -->
<g id="node4" class="node">
<title>TravelCorridor</title>
<g id="a_node4"><a xlink:href="../_counters/transportnetwork__TravelCorridor.md" xlink:title="&lt;TABLE&gt;">
<polygon fill="lightgray" stroke="none" points="40.75,-98.88 40.75,-115.12 119.25,-115.12 119.25,-98.88 40.75,-98.88"/>
<text xml:space="preserve" text-anchor="start" x="41.75" y="-102.72" font-family="Arial" font-size="12.00">TravelCorridor</text>
<polygon fill="none" stroke="black" points="39.75,-97.88 39.75,-116.12 120.25,-116.12 120.25,-97.88 39.75,-97.88"/>
</a>
</g>
</g>
<!-- TravelCorridorLink&#45;&gt;TravelCorridor -->
<g id="edge6" class="edge">
<title>TravelCorridorLink&#45;&gt;TravelCorridor</title>
<path fill="none" stroke="black" stroke-dasharray="5,2" d="M160.74,-189.39C159.15,-188.92 157.56,-188.45 156,-188 127.43,-179.68 111.59,-191.96 91.5,-170 83.19,-160.91 79.96,-147.84 78.95,-136.04"/>
<polygon fill="black" stroke="black" points="82.46,-136.25 78.63,-126.37 75.47,-136.48 82.46,-136.25"/>
<text xml:space="preserve" text-anchor="middle" x="182.25" y="-159.55" font-family="Arial" font-size="11.00"> onProperty: partwhole::properPartOf </text>
<text xml:space="preserve" text-anchor="middle" x="182.25" y="-146.05" font-family="Arial" font-size="11.00"> «only» &#160;</text>
</g>
<!-- TravelCorridorSegment -->
<g id="node5" class="node">
<title>TravelCorridorSegment</title>
<g id="a_node5"><a xlink:href="../_counters/transportnetwork__TravelCorridorSegment.md" xlink:title="&lt;TABLE&gt;">
<polygon fill="lightgray" stroke="none" points="16.75,-25.88 16.75,-42.12 143.25,-42.12 143.25,-25.88 16.75,-25.88"/>
<text xml:space="preserve" text-anchor="start" x="17.75" y="-29.73" font-family="Arial" font-size="12.00">TravelCorridorSegment</text>
<polygon fill="none" stroke="black" points="15.75,-24.88 15.75,-43.12 144.25,-43.12 144.25,-24.88 15.75,-24.88"/>
</a>
</g>
</g>
<!-- TravelCorridorLink&#45;&gt;TravelCorridorSegment -->
<g id="edge5" class="edge">
<title>TravelCorridorLink&#45;&gt;TravelCorridorSegment</title>
<path fill="none" stroke="black" stroke-dasharray="5,2" d="M255.03,-188.13C262.21,-183.36 268.72,-177.4 273,-170 279.01,-159.62 279.07,-153.35 273,-143 247.4,-99.34 196.98,-72 154.1,-55.76"/>
<polygon fill="black" stroke="black" points="155.4,-52.51 144.8,-52.38 153.01,-59.09 155.4,-52.51"/>
<text xml:space="preserve" text-anchor="middle" x="354.31" y="-110.05" font-family="Arial" font-size="11.00"> onProperty: partwhole::hasProperPart </text>
<text xml:space="preserve" text-anchor="middle" x="354.31" y="-96.55" font-family="Arial" font-size="11.00"> «min 1, only» &#160;</text>
</g>
<!-- Invis&#45;&gt;TravelCorridor -->
<!-- TravelCorridor&#45;&gt;TravelCorridorSegment -->
</g>
</svg>
