<?xml version="1.0" encoding="UTF-8" standalone="no"?>
<!DOCTYPE svg PUBLIC "-//W3C//DTD SVG 1.1//EN"
 "http://www.w3.org/Graphics/SVG/1.1/DTD/svg11.dtd">
<!-- Generated by graphviz version 14.0.2 (20251019.1705)
 -->
<!-- Pages: 1 -->
<svg width="692pt" height="503pt"
 viewBox="0.00 0.00 692.00 503.00" xmlns="http://www.w3.org/2000/svg" xmlns:xlink="http://www.w3.org/1999/xlink">
<g id="graph0" class="graph" transform="scale(1 1) rotate(0) translate(4 499)">
<polygon fill="white" stroke="none" points="-4,4 -4,-499 687.75,-499 687.75,4 -4,4"/>
<g id="clust2" class="cluster">
<title>cluster_associated</title>
</g>
<!-- TravelledWaySegment -->
<g id="node1" class="node">
<title>TravelledWaySegment</title>
<g id="a_node1"><a xlink:href="../classes/transportnetwork__TravelledWaySegment.md" xlink:title="&lt;TABLE&gt;">
<polygon fill="lightgray" stroke="none" points="161.25,-369.88 161.25,-386.12 284.75,-386.12 284.75,-369.88 161.25,-369.88"/>
<text xml:space="preserve" text-anchor="start" x="162.25" y="-373.73" font-family="Arial" font-size="12.00">TravelledWaySegment</text>
<polygon fill="none" stroke="black" points="160.25,-368.88 160.25,-387.12 285.75,-387.12 285.75,-368.88 160.25,-368.88"/>
</a>
</g>
</g>
<!-- NetworkElement -->
<g id="node2" class="node">
<title>NetworkElement</title>
<g id="a_node2"><a xlink:href="../_counters/transportnetwork__NetworkElement.md" xlink:title="&lt;TABLE&gt;">
<polygon fill="lightgray" stroke="none" points="37.75,-468.88 37.75,-485.12 128.25,-485.12 128.25,-468.88 37.75,-468.88"/>
<text xml:space="preserve" text-anchor="start" x="38.75" y="-472.73" font-family="Arial" font-size="12.00">NetworkElement</text>
<polygon fill="none" stroke="black" points="36.75,-467.88 36.75,-486.12 129.25,-486.12 129.25,-467.88 36.75,-467.88"/>
</a>
</g>
</g>
<!-- TravelledWaySegment&#45;&gt;NetworkElement -->
<g id="edge1" class="edge">
<title>TravelledWaySegment&#45;&gt;NetworkElement</title>
<path fill="none" stroke="black" d="M198.89,-395.7C176.2,-411.42 142.01,-435.12 116.64,-452.7"/>
<polygon fill="none" stroke="black" points="114.86,-449.67 108.63,-458.24 118.84,-455.42 114.86,-449.67"/>
</g>
<!-- transinfras__TravelledWaySegment -->
<g id="node3" class="node">
<title>transinfras__TravelledWaySegment</title>
<polygon fill="lightgray" stroke="none" points="148.5,-468.88 148.5,-485.12 333.5,-485.12 333.5,-468.88 148.5,-468.88"/>
<text xml:space="preserve" text-anchor="start" x="149.5" y="-472.73" font-family="Arial" font-size="12.00">transinfras::TravelledWaySegment</text>
<polygon fill="none" stroke="black" points="147.5,-467.88 147.5,-486.12 334.5,-486.12 334.5,-467.88 147.5,-467.88"/>
</g>
<!-- TravelledWaySegment&#45;&gt;transinfras__TravelledWaySegment -->
<g id="edge2" class="edge">
<title>TravelledWaySegment&#45;&gt;transinfras__TravelledWaySegment</title>
<path fill="none" stroke="black" d="M226.1,-395.7C228.77,-410.11 232.69,-431.21 235.83,-448.16"/>
<polygon fill="none" stroke="black" points="232.32,-448.42 237.59,-457.62 239.21,-447.14 232.32,-448.42"/>
</g>
<!-- Invis -->
<!-- TravelledWaySegment&#45;&gt;Invis -->
<!-- TravelCorridorSegment -->
<g id="node5" class="node">
<title>TravelCorridorSegment</title>
<g id="a_node5"><a xlink:href="../_counters/transportnetwork__TravelCorridorSegment.md" xlink:title="&lt;TABLE&gt;">
<polygon fill="lightgray" stroke="none" points="16.75,-270.88 16.75,-287.12 143.25,-287.12 143.25,-270.88 16.75,-270.88"/>
<text xml:space="preserve" text-anchor="start" x="17.75" y="-274.73" font-family="Arial" font-size="12.00">TravelCorridorSegment</text>
<polygon fill="none" stroke="black" points="15.75,-269.88 15.75,-288.12 144.25,-288.12 144.25,-269.88 15.75,-269.88"/>
</a>
</g>
</g>
<!-- TravelledWaySegment&#45;&gt;TravelCorridorSegment -->
<g id="edge8" class="edge">
<title>TravelledWaySegment&#45;&gt;TravelCorridorSegment</title>
<path fill="none" stroke="black" d="M160.59,-361.14C159.05,-360.76 157.51,-360.38 156,-360 122.94,-351.81 102.89,-368.51 81.5,-342 73.94,-332.64 72.7,-319.63 73.69,-307.95"/>
<polygon fill="black" stroke="black" points="77.11,-308.79 75.07,-298.39 70.18,-307.79 77.11,-308.79"/>
<text xml:space="preserve" text-anchor="middle" x="139.25" y="-331.55" font-family="Arial" font-size="11.00"> travelCorridorSegment </text>
<text xml:space="preserve" text-anchor="middle" x="139.25" y="-318.05" font-family="Arial" font-size="11.00"> «only» &#160;</text>
</g>
<!-- TravelledWayLane -->
<g id="node6" class="node">
<title>TravelledWayLane</title>
<g id="a_node6"><a xlink:href="../_counters/transportnetwork__TravelledWayLane.md" xlink:title="&lt;TABLE&gt;">
<polygon fill="lightgray" stroke="none" points="40.75,-171.88 40.75,-188.12 143.25,-188.12 143.25,-171.88 40.75,-171.88"/>
<text xml:space="preserve" text-anchor="start" x="41.75" y="-175.72" font-family="Arial" font-size="12.00">TravelledWayLane</text>
<polygon fill="none" stroke="black" points="39.75,-170.88 39.75,-189.12 144.25,-189.12 144.25,-170.88 39.75,-170.88"/>
</a>
</g>
</g>
<!-- TravelledWaySegment&#45;&gt;TravelledWayLane -->
<g id="edge9" class="edge">
<title>TravelledWaySegment&#45;&gt;TravelledWayLane</title>
<path fill="none" stroke="black" stroke-dasharray="5,2" d="M217.31,-360.11C212.67,-347.3 205.51,-329.49 197,-315 173.04,-274.19 137.98,-232.01 115.07,-206.14"/>
<polygon fill="black" stroke="black" points="117.8,-203.94 108.52,-198.82 112.59,-208.61 117.8,-203.94"/>
<text xml:space="preserve" text-anchor="middle" x="279.25" y="-282.05" font-family="Arial" font-size="11.00"> onProperty: partwhole::hasProperPart </text>
<text xml:space="preserve" text-anchor="middle" x="279.25" y="-268.55" font-family="Arial" font-size="11.00"> «min 1, only» &#160;</text>
</g>
<!-- TravelledWayLink -->
<g id="node7" class="node">
<title>TravelledWayLink</title>
<g id="a_node7"><a xlink:href="../_counters/transportnetwork__TravelledWayLink.md" xlink:title="&lt;TABLE&gt;">
<polygon fill="lightgray" stroke="none" points="44,-98.88 44,-115.12 142,-115.12 142,-98.88 44,-98.88"/>
<text xml:space="preserve" text-anchor="start" x="45" y="-102.72" font-family="Arial" font-size="12.00">TravelledWayLink</text>
<polygon fill="none" stroke="black" points="43,-97.88 43,-116.12 143,-116.12 143,-97.88 43,-97.88"/>
</a>
</g>
</g>
<!-- TravelledWaySegment&#45;&gt;TravelledWayLink -->
<g id="edge13" class="edge">
<title>TravelledWaySegment&#45;&gt;TravelledWayLink</title>
<path fill="none" stroke="black" stroke-dasharray="5,2" d="M282.92,-360.03C337.52,-341.24 405.73,-307.37 378,-261 329.6,-180.08 222.09,-139.49 153.83,-121.14"/>
<polygon fill="black" stroke="black" points="154.83,-117.78 144.27,-118.66 153.07,-124.56 154.83,-117.78"/>
<text xml:space="preserve" text-anchor="middle" x="455.69" y="-232.55" font-family="Arial" font-size="11.00"> onProperty: partwhole::properPartOf </text>
<text xml:space="preserve" text-anchor="middle" x="455.69" y="-219.05" font-family="Arial" font-size="11.00"> «min 1» &#160;</text>
</g>
<!-- N700dc761067241238d4c7ab3ad6eb1bb -->
<g id="node9" class="node">
<title>N700dc761067241238d4c7ab3ad6eb1bb</title>
<polygon fill="lightyellow" stroke="none" points="546.25,-467.88 546.25,-486.12 605.75,-486.12 605.75,-467.88 546.25,-467.88"/>
<text xml:space="preserve" text-anchor="start" x="548.25" y="-472.73" font-family="Arial" font-size="12.00">«unionOf»</text>
<polygon fill="none" stroke="black" points="546.25,-467.88 546.25,-486.12 605.75,-486.12 605.75,-467.88 546.25,-467.88"/>
</g>
<!-- TravelledWaySegment&#45;&gt;N700dc761067241238d4c7ab3ad6eb1bb -->
<g id="edge12" class="edge">
<title>TravelledWaySegment&#45;&gt;N700dc761067241238d4c7ab3ad6eb1bb</title>
<path fill="none" stroke="black" stroke-dasharray="5,2" d="M259.83,-395.91C291.31,-409.76 338.09,-428.98 380.5,-441 432.93,-455.85 495.12,-465.71 535.05,-471.07"/>
<polygon fill="black" stroke="black" points="534.57,-474.54 544.94,-472.37 535.48,-467.6 534.57,-474.54"/>
<text xml:space="preserve" text-anchor="middle" x="471.25" y="-430.55" font-family="Arial" font-size="11.00"> onProperty: partwhole::properPartOf </text>
<text xml:space="preserve" text-anchor="middle" x="471.25" y="-417.05" font-family="Arial" font-size="11.00"> «only» &#160;</text>
</g>
<!-- Invis&#45;&gt;TravelCorridorSegment -->
<!-- TravelCorridorSegment&#45;&gt;TravelledWayLane -->
<!-- TravelledWayLane&#45;&gt;TravelledWayLink -->
<!-- TravelledWaySection -->
<g id="node8" class="node">
<title>TravelledWaySection</title>
<g id="a_node8"><a xlink:href="../_counters/transportnetwork__TravelledWaySection.md" xlink:title="&lt;TABLE&gt;">
<polygon fill="lightgray" stroke="none" points="27,-25.88 27,-42.12 143,-42.12 143,-25.88 27,-25.88"/>
<text xml:space="preserve" text-anchor="start" x="28" y="-29.73" font-family="Arial" font-size="12.00">TravelledWaySection</text>
<polygon fill="none" stroke="black" points="26,-24.88 26,-43.12 144,-43.12 144,-24.88 26,-24.88"/>
</a>
</g>
</g>
<!-- TravelledWayLink&#45;&gt;TravelledWaySection -->
<!-- N700dc761067241238d4c7ab3ad6eb1bb&#45;&gt;TravelledWayLink -->
<g id="edge10" class="edge">
<title>N700dc761067241238d4c7ab3ad6eb1bb&#45;&gt;TravelledWayLink</title>
<path fill="none" stroke="black" stroke-dasharray="1,5" d="M576,-459.18C576,-439.83 576,-407.12 576,-379 576,-379 576,-379 576,-179 576,-136.84 284.16,-117.32 154.18,-110.72"/>
<polygon fill="black" stroke="black" points="154.54,-107.24 144.38,-110.23 154.2,-114.23 154.54,-107.24"/>
<text xml:space="preserve" text-anchor="middle" x="595.88" y="-275.3" font-family="Arial" font-size="11.00">member</text>
</g>
<!-- N700dc761067241238d4c7ab3ad6eb1bb&#45;&gt;TravelledWaySection -->
<g id="edge11" class="edge">
<title>N700dc761067241238d4c7ab3ad6eb1bb&#45;&gt;TravelledWaySection</title>
<path fill="none" stroke="black" stroke-dasharray="1,5" d="M597.52,-459.19C617.44,-441.57 644,-411.91 644,-379 644,-379 644,-379 644,-106 644,-57.26 305.17,-41.38 155.1,-36.73"/>
<polygon fill="black" stroke="black" points="155.38,-33.24 145.28,-36.44 155.17,-40.24 155.38,-33.24"/>
<text xml:space="preserve" text-anchor="middle" x="663.88" y="-225.8" font-family="Arial" font-size="11.00">member</text>
</g>
</g>
</svg>
