<?xml version="1.0" encoding="UTF-8" standalone="no"?>
<!DOCTYPE svg PUBLIC "-//W3C//DTD SVG 1.1//EN"
 "http://www.w3.org/Graphics/SVG/1.1/DTD/svg11.dtd">
<!-- Generated by graphviz version 14.0.2 (20251019.1705)
 -->
<!-- Pages: 1 -->
<svg width="332pt" height="232pt"
 viewBox="0.00 0.00 332.00 232.00" xmlns="http://www.w3.org/2000/svg" xmlns:xlink="http://www.w3.org/1999/xlink">
<g id="graph0" class="graph" transform="scale(1 1) rotate(0) translate(4 228)">
<polygon fill="white" stroke="none" points="-4,4 -4,-228 327.85,-228 327.85,4 -4,4"/>
<g id="clust2" class="cluster">
<title>cluster_associated</title>
</g>
<!-- TravelCorridor -->
<g id="node1" class="node">
<title>TravelCorridor</title>
<g id="a_node1"><a xlink:href="../classes/transportnetwork__TravelCorridor.md" xlink:title="&lt;TABLE&gt;">
<polygon fill="lightgray" stroke="none" points="136.75,-124.88 136.75,-141.12 215.25,-141.12 215.25,-124.88 136.75,-124.88"/>
<text xml:space="preserve" text-anchor="start" x="137.75" y="-128.72" font-family="Arial" font-size="12.00">TravelCorridor</text>
<polygon fill="none" stroke="black" points="135.75,-123.88 135.75,-142.12 216.25,-142.12 216.25,-123.88 135.75,-123.88"/>
</a>
</g>
</g>
<!-- TravelledWay -->
<g id="node2" class="node">
<title>TravelledWay</title>
<g id="a_node2"><a xlink:href="../_counters/transportnetwork__TravelledWay.md" xlink:title="&lt;TABLE&gt;">
<polygon fill="lightgray" stroke="none" points="138.25,-197.88 138.25,-214.12 213.75,-214.12 213.75,-197.88 138.25,-197.88"/>
<text xml:space="preserve" text-anchor="start" x="139.25" y="-201.72" font-family="Arial" font-size="12.00">TravelledWay</text>
<polygon fill="none" stroke="black" points="137.25,-196.88 137.25,-215.12 214.75,-215.12 214.75,-196.88 137.25,-196.88"/>
</a>
</g>
</g>
<!-- TravelCorridor&#45;&gt;TravelledWay -->
<g id="edge1" class="edge">
<title>TravelCorridor&#45;&gt;TravelledWay</title>
<path fill="none" stroke="black" d="M176,-150.71C176,-158.47 176,-167.92 176,-176.74"/>
<polygon fill="none" stroke="black" points="172.5,-176.66 176,-186.66 179.5,-176.66 172.5,-176.66"/>
</g>
<!-- Invis -->
<!-- TravelCorridor&#45;&gt;Invis -->
<!-- TravelCorridorLink -->
<g id="node4" class="node">
<title>TravelCorridorLink</title>
<g id="a_node4"><a xlink:href="../_counters/transportnetwork__TravelCorridorLink.md" xlink:title="&lt;TABLE&gt;">
<polygon fill="lightgray" stroke="none" points="17.5,-25.88 17.5,-42.12 118.5,-42.12 118.5,-25.88 17.5,-25.88"/>
<text xml:space="preserve" text-anchor="start" x="18.5" y="-29.73" font-family="Arial" font-size="12.00">TravelCorridorLink</text>
<polygon fill="none" stroke="black" points="16.5,-24.88 16.5,-43.12 119.5,-43.12 119.5,-24.88 16.5,-24.88"/>
</a>
</g>
</g>
<!-- TravelCorridor&#45;&gt;TravelCorridorLink -->
<g id="edge4" class="edge">
<title>TravelCorridor&#45;&gt;TravelCorridorLink</title>
<path fill="none" stroke="black" stroke-dasharray="5,2" d="M157.19,-115.1C140,-99.66 114.38,-76.66 95.01,-59.26"/>
<polygon fill="black" stroke="black" points="97.5,-56.79 87.72,-52.71 92.82,-62 97.5,-56.79"/>
<text xml:space="preserve" text-anchor="middle" x="229.35" y="-86.55" font-family="Arial" font-size="11.00"> onProperty: partwhole::hasProperPart </text>
<text xml:space="preserve" text-anchor="middle" x="229.35" y="-73.05" font-family="Arial" font-size="11.00"> «min 1, only» &#160;</text>
</g>
<!-- Invis&#45;&gt;TravelCorridorLink -->
</g>
</svg>
