<?xml version="1.0" encoding="UTF-8" standalone="no"?>
<!DOCTYPE svg PUBLIC "-//W3C//DTD SVG 1.1//EN"
 "http://www.w3.org/Graphics/SVG/1.1/DTD/svg11.dtd">
<!-- Generated by graphviz version 14.0.2 (20251019.1705)
 -->
<!-- Pages: 1 -->
<svg width="437pt" height="378pt"
 viewBox="0.00 0.00 437.00 378.00" xmlns="http://www.w3.org/2000/svg" xmlns:xlink="http://www.w3.org/1999/xlink">
<g id="graph0" class="graph" transform="scale(1 1) rotate(0) translate(4 374)">
<polygon fill="white" stroke="none" points="-4,4 -4,-374 432.75,-374 432.75,4 -4,4"/>
<g id="clust2" class="cluster">
<title>cluster_associated</title>
</g>
<!-- MicromobilityPathSection -->
<g id="node1" class="node">
<title>MicromobilityPathSection</title>
<g id="a_node1"><a xlink:href="../classes/transportnetwork__MicromobilityPathSection.md" xlink:title="&lt;TABLE&gt;">
<polygon fill="lightgray" stroke="none" points="181.12,-244.88 181.12,-261.12 318.88,-261.12 318.88,-244.88 181.12,-244.88"/>
<text xml:space="preserve" text-anchor="start" x="182.12" y="-248.72" font-family="Arial" font-size="12.00">MicromobilityPathSection</text>
<polygon fill="none" stroke="black" points="180.12,-243.88 180.12,-262.12 319.88,-262.12 319.88,-243.88 180.12,-243.88"/>
</a>
</g>
</g>
<!-- RoadSection -->
<g id="node2" class="node">
<title>RoadSection</title>
<g id="a_node2"><a xlink:href="../_counters/transportnetwork__RoadSection.md" xlink:title="&lt;TABLE&gt;">
<polygon fill="lightgray" stroke="none" points="61.12,-343.88 61.12,-360.12 132.88,-360.12 132.88,-343.88 61.12,-343.88"/>
<text xml:space="preserve" text-anchor="start" x="62.12" y="-347.73" font-family="Arial" font-size="12.00">RoadSection</text>
<polygon fill="none" stroke="black" points="60.12,-342.88 60.12,-361.12 133.88,-361.12 133.88,-342.88 60.12,-342.88"/>
</a>
</g>
</g>
<!-- MicromobilityPathSection&#45;&gt;RoadSection -->
<g id="edge1" class="edge">
<title>MicromobilityPathSection&#45;&gt;RoadSection</title>
<path fill="none" stroke="black" d="M209.39,-270.84C197.98,-276.13 185.75,-282.35 175,-289 157.09,-300.08 138.58,-314.64 124.08,-326.87"/>
<polygon fill="none" stroke="black" points="122.08,-323.98 116.77,-333.14 126.64,-329.29 122.08,-323.98"/>
</g>
<!-- Invis -->
<!-- MicromobilityPathSection&#45;&gt;Invis -->
<!-- MicromobilityNetwork -->
<g id="node5" class="node">
<title>MicromobilityNetwork</title>
<g id="a_node5"><a xlink:href="../_counters/transportnetwork__MicromobilityNetwork.md" xlink:title="&lt;TABLE&gt;">
<polygon fill="lightgray" stroke="none" points="31.62,-98.88 31.62,-115.12 148.38,-115.12 148.38,-98.88 31.62,-98.88"/>
<text xml:space="preserve" text-anchor="start" x="32.62" y="-102.72" font-family="Arial" font-size="12.00">MicromobilityNetwork</text>
<polygon fill="none" stroke="black" points="30.62,-97.88 30.62,-116.12 149.38,-116.12 149.38,-97.88 30.62,-97.88"/>
</a>
</g>
</g>
<!-- MicromobilityPathSection&#45;&gt;MicromobilityNetwork -->
<g id="edge9" class="edge">
<title>MicromobilityPathSection&#45;&gt;MicromobilityNetwork</title>
<path fill="none" stroke="black" stroke-dasharray="5,2" d="M229.11,-235.04C216.36,-224.55 199.8,-210.71 185.5,-198 161.28,-176.48 134.49,-151.09 115.47,-132.78"/>
<polygon fill="black" stroke="black" points="118.03,-130.38 108.4,-125.95 113.16,-135.42 118.03,-130.38"/>
<text xml:space="preserve" text-anchor="middle" x="276.25" y="-183.05" font-family="Arial" font-size="11.00"> onProperty: partwhole::properPartOf </text>
<text xml:space="preserve" text-anchor="middle" x="276.25" y="-169.55" font-family="Arial" font-size="11.00"> «only» &#160;</text>
</g>
<!-- Ne52bd693536f4a56a4d283d87ca95d73 -->
<g id="node7" class="node">
<title>Ne52bd693536f4a56a4d283d87ca95d73</title>
<polygon fill="lightyellow" stroke="none" points="155.25,-342.88 155.25,-361.12 214.75,-361.12 214.75,-342.88 155.25,-342.88"/>
<text xml:space="preserve" text-anchor="start" x="157.25" y="-347.73" font-family="Arial" font-size="12.00">«unionOf»</text>
<polygon fill="none" stroke="black" points="155.25,-342.88 155.25,-361.12 214.75,-361.12 214.75,-342.88 155.25,-342.88"/>
</g>
<!-- MicromobilityPathSection&#45;&gt;Ne52bd693536f4a56a4d283d87ca95d73 -->
<g id="edge8" class="edge">
<title>MicromobilityPathSection&#45;&gt;Ne52bd693536f4a56a4d283d87ca95d73</title>
<path fill="none" stroke="black" stroke-dasharray="5,2" d="M204.35,-270.98C197.05,-275.7 190.45,-281.63 186,-289 179.93,-299.05 178.85,-311.8 179.61,-323.12"/>
<polygon fill="black" stroke="black" points="176.1,-323.2 180.76,-332.72 183.05,-322.37 176.1,-323.2"/>
<text xml:space="preserve" text-anchor="middle" x="280.5" y="-305.55" font-family="Arial" font-size="11.00"> onProperty: partwhole::hasProperPart </text>
<text xml:space="preserve" text-anchor="middle" x="280.5" y="-292.05" font-family="Arial" font-size="11.00"> «only» &#160;</text>
</g>
<!-- MicromobilityLink -->
<g id="node4" class="node">
<title>MicromobilityLink</title>
<g id="a_node4"><a xlink:href="../_counters/transportnetwork__MicromobilityLink.md" xlink:title="&lt;TABLE&gt;">
<polygon fill="lightgray" stroke="none" points="38.5,-171.88 38.5,-188.12 133.5,-188.12 133.5,-171.88 38.5,-171.88"/>
<text xml:space="preserve" text-anchor="start" x="39.5" y="-175.72" font-family="Arial" font-size="12.00">MicromobilityLink</text>
<polygon fill="none" stroke="black" points="37.5,-170.88 37.5,-189.12 134.5,-189.12 134.5,-170.88 37.5,-170.88"/>
</a>
</g>
</g>
<!-- Invis&#45;&gt;MicromobilityLink -->
<!-- MicromobilityLink&#45;&gt;MicromobilityNetwork -->
<!-- MicromobilityPathSegment -->
<g id="node6" class="node">
<title>MicromobilityPathSegment</title>
<g id="a_node6"><a xlink:href="../_counters/transportnetwork__MicromobilityPathSegment.md" xlink:title="&lt;TABLE&gt;">
<polygon fill="lightgray" stroke="none" points="17.38,-25.88 17.38,-42.12 162.62,-42.12 162.62,-25.88 17.38,-25.88"/>
<text xml:space="preserve" text-anchor="start" x="18.38" y="-29.73" font-family="Arial" font-size="12.00">MicromobilityPathSegment</text>
<polygon fill="none" stroke="black" points="16.38,-24.88 16.38,-43.12 163.62,-43.12 163.62,-24.88 16.38,-24.88"/>
</a>
</g>
</g>
<!-- MicromobilityNetwork&#45;&gt;MicromobilityPathSegment -->
<!-- Ne52bd693536f4a56a4d283d87ca95d73&#45;&gt;MicromobilityLink -->
<g id="edge6" class="edge">
<title>Ne52bd693536f4a56a4d283d87ca95d73&#45;&gt;MicromobilityLink</title>
<path fill="none" stroke="black" stroke-dasharray="1,5" d="M170.91,-334.25C159.4,-320.09 143.14,-298.97 131.25,-279 117.65,-256.14 105.22,-228.51 96.84,-208.42"/>
<polygon fill="black" stroke="black" points="100.11,-207.16 93.09,-199.23 93.63,-209.81 100.11,-207.16"/>
<text xml:space="preserve" text-anchor="middle" x="151.12" y="-249.3" font-family="Arial" font-size="11.00">member</text>
</g>
<!-- Ne52bd693536f4a56a4d283d87ca95d73&#45;&gt;MicromobilityPathSegment -->
<g id="edge7" class="edge">
<title>Ne52bd693536f4a56a4d283d87ca95d73&#45;&gt;MicromobilityPathSegment</title>
<path fill="none" stroke="black" stroke-dasharray="1,5" d="M214.42,-349.45C261.91,-346.34 352.45,-337.67 375,-316 395.37,-296.43 389,-282.25 389,-254 389,-254 389,-254 389,-106 389,-61.72 263.32,-45.02 174.92,-38.74"/>
<polygon fill="black" stroke="black" points="175.25,-35.25 165.04,-38.07 174.78,-42.24 175.25,-35.25"/>
<text xml:space="preserve" text-anchor="middle" x="408.88" y="-176.3" font-family="Arial" font-size="11.00">member</text>
</g>
</g>
</svg>
