<?xml version="1.0" encoding="UTF-8" standalone="no"?>
<!DOCTYPE svg PUBLIC "-//W3C//DTD SVG 1.1//EN"
 "http://www.w3.org/Graphics/SVG/1.1/DTD/svg11.dtd">
<!-- Generated by graphviz version 14.0.2 (20251019.1705)
 -->
<!-- Pages: 1 -->
<svg width="440pt" height="404pt"
 viewBox="0.00 0.00 440.00 404.00" xmlns="http://www.w3.org/2000/svg" xmlns:xlink="http://www.w3.org/1999/xlink">
<g id="graph0" class="graph" transform="scale(1 1) rotate(0) translate(4 400)">
<polygon fill="white" stroke="none" points="-4,4 -4,-400 435.75,-400 435.75,4 -4,4"/>
<g id="clust2" class="cluster">
<title>cluster_associated</title>
</g>
<!-- RailSection -->
<g id="node1" class="node">
<title>RailSection</title>
<g id="a_node1"><a xlink:href="../classes/transportnetwork__RailSection.md" xlink:title="&lt;TABLE&gt;">
<polygon fill="lightgray" stroke="none" points="114.88,-270.88 114.88,-287.12 179.12,-287.12 179.12,-270.88 114.88,-270.88"/>
<text xml:space="preserve" text-anchor="start" x="115.88" y="-274.73" font-family="Arial" font-size="12.00">RailSection</text>
<polygon fill="none" stroke="black" points="113.88,-269.88 113.88,-288.12 180.12,-288.12 180.12,-269.88 113.88,-269.88"/>
</a>
</g>
</g>
<!-- TravelledWaySection -->
<g id="node2" class="node">
<title>TravelledWaySection</title>
<g id="a_node2"><a xlink:href="../_counters/transportnetwork__TravelledWaySection.md" xlink:title="&lt;TABLE&gt;">
<polygon fill="lightgray" stroke="none" points="42,-369.88 42,-386.12 158,-386.12 158,-369.88 42,-369.88"/>
<text xml:space="preserve" text-anchor="start" x="43" y="-373.73" font-family="Arial" font-size="12.00">TravelledWaySection</text>
<polygon fill="none" stroke="black" points="41,-368.88 41,-387.12 159,-387.12 159,-368.88 41,-368.88"/>
</a>
</g>
</g>
<!-- RailSection&#45;&gt;TravelledWaySection -->
<g id="edge1" class="edge">
<title>RailSection&#45;&gt;TravelledWaySection</title>
<path fill="none" stroke="black" d="M127.82,-296.69C122.66,-302.07 117.53,-308.36 114,-315 108.48,-325.37 105.13,-337.84 103.1,-348.87"/>
<polygon fill="none" stroke="black" points="99.66,-348.19 101.6,-358.61 106.58,-349.26 99.66,-348.19"/>
</g>
<!-- Invis -->
<!-- RailSection&#45;&gt;Invis -->
<!-- RailNetwork -->
<g id="node4" class="node">
<title>RailNetwork</title>
<g id="a_node4"><a xlink:href="../_counters/transportnetwork__RailNetwork.md" xlink:title="&lt;TABLE&gt;">
<polygon fill="lightgray" stroke="none" points="26,-171.88 26,-188.12 94,-188.12 94,-171.88 26,-171.88"/>
<text xml:space="preserve" text-anchor="start" x="27" y="-175.72" font-family="Arial" font-size="12.00">RailNetwork</text>
<polygon fill="none" stroke="black" points="25,-170.88 25,-189.12 95,-189.12 95,-170.88 25,-170.88"/>
</a>
</g>
</g>
<!-- RailSection&#45;&gt;RailNetwork -->
<g id="edge9" class="edge">
<title>RailSection&#45;&gt;RailNetwork</title>
<path fill="none" stroke="black" stroke-dasharray="5,2" d="M131.85,-261.1C118.25,-245.94 98.1,-223.48 82.6,-206.2"/>
<polygon fill="black" stroke="black" points="85.27,-203.94 75.99,-198.83 80.06,-208.61 85.27,-203.94"/>
<text xml:space="preserve" text-anchor="middle" x="204.6" y="-232.55" font-family="Arial" font-size="11.00"> onProperty: partwhole::properPartOf </text>
<text xml:space="preserve" text-anchor="middle" x="204.6" y="-219.05" font-family="Arial" font-size="11.00"> «only» &#160;</text>
</g>
<!-- N5859ab67a1e843d59e161237eca545c8 -->
<g id="node7" class="node">
<title>N5859ab67a1e843d59e161237eca545c8</title>
<polygon fill="lightyellow" stroke="none" points="307.25,-368.88 307.25,-387.12 366.75,-387.12 366.75,-368.88 307.25,-368.88"/>
<text xml:space="preserve" text-anchor="start" x="309.25" y="-373.73" font-family="Arial" font-size="12.00">«unionOf»</text>
<polygon fill="none" stroke="black" points="307.25,-368.88 307.25,-387.12 366.75,-387.12 366.75,-368.88 307.25,-368.88"/>
</g>
<!-- RailSection&#45;&gt;N5859ab67a1e843d59e161237eca545c8 -->
<g id="edge8" class="edge">
<title>RailSection&#45;&gt;N5859ab67a1e843d59e161237eca545c8</title>
<path fill="none" stroke="black" stroke-dasharray="5,2" d="M136.55,-296.87C129.58,-310.52 123.44,-329.47 134,-342 154.3,-366.09 242.8,-373.6 296.02,-375.94"/>
<polygon fill="black" stroke="black" points="295.8,-379.44 305.93,-376.33 296.07,-372.44 295.8,-379.44"/>
<text xml:space="preserve" text-anchor="middle" x="228.5" y="-331.55" font-family="Arial" font-size="11.00"> onProperty: partwhole::hasProperPart </text>
<text xml:space="preserve" text-anchor="middle" x="228.5" y="-318.05" font-family="Arial" font-size="11.00"> «only» &#160;</text>
</g>
<!-- Invis&#45;&gt;RailNetwork -->
<!-- TrackLink -->
<g id="node5" class="node">
<title>TrackLink</title>
<g id="a_node5"><a xlink:href="../_counters/transportnetwork__TrackLink.md" xlink:title="&lt;TABLE&gt;">
<polygon fill="lightgray" stroke="none" points="33.12,-98.88 33.12,-115.12 86.88,-115.12 86.88,-98.88 33.12,-98.88"/>
<text xml:space="preserve" text-anchor="start" x="34.12" y="-102.72" font-family="Arial" font-size="12.00">TrackLink</text>
<polygon fill="none" stroke="black" points="32.12,-97.88 32.12,-116.12 87.88,-116.12 87.88,-97.88 32.12,-97.88"/>
</a>
</g>
</g>
<!-- RailNetwork&#45;&gt;TrackLink -->
<!-- TrackSegment -->
<g id="node6" class="node">
<title>TrackSegment</title>
<g id="a_node6"><a xlink:href="../_counters/transportnetwork__TrackSegment.md" xlink:title="&lt;TABLE&gt;">
<polygon fill="lightgray" stroke="none" points="17.38,-25.88 17.38,-42.12 96.62,-42.12 96.62,-25.88 17.38,-25.88"/>
<text xml:space="preserve" text-anchor="start" x="18.38" y="-29.73" font-family="Arial" font-size="12.00">TrackSegment</text>
<polygon fill="none" stroke="black" points="16.38,-24.88 16.38,-43.12 97.62,-43.12 97.62,-24.88 16.38,-24.88"/>
</a>
</g>
</g>
<!-- TrackLink&#45;&gt;TrackSegment -->
<!-- N5859ab67a1e843d59e161237eca545c8&#45;&gt;TrackLink -->
<g id="edge6" class="edge">
<title>N5859ab67a1e843d59e161237eca545c8&#45;&gt;TrackLink</title>
<path fill="none" stroke="black" stroke-dasharray="1,5" d="M337.66,-360.3C338.01,-328.51 334.37,-258.67 299,-216 247.29,-153.62 152,-125.78 98.69,-114.6"/>
<polygon fill="black" stroke="black" points="99.64,-111.22 89.15,-112.7 98.27,-118.09 99.64,-111.22"/>
<text xml:space="preserve" text-anchor="middle" x="335.32" y="-225.8" font-family="Arial" font-size="11.00">member</text>
</g>
<!-- N5859ab67a1e843d59e161237eca545c8&#45;&gt;TrackSegment -->
<g id="edge7" class="edge">
<title>N5859ab67a1e843d59e161237eca545c8&#45;&gt;TrackSegment</title>
<path fill="none" stroke="black" stroke-dasharray="1,5" d="M353.8,-360.05C369.98,-341.87 392,-311.36 392,-280 392,-280 392,-280 392,-106 392,-48.79 202.63,-37.47 108.65,-35.38"/>
<polygon fill="black" stroke="black" points="108.99,-31.88 98.92,-35.19 108.85,-38.88 108.99,-31.88"/>
<text xml:space="preserve" text-anchor="middle" x="411.88" y="-176.3" font-family="Arial" font-size="11.00">member</text>
</g>
</g>
</svg>
