<?xml version="1.0" encoding="UTF-8" standalone="no"?>
<!DOCTYPE svg PUBLIC "-//W3C//DTD SVG 1.1//EN"
 "http://www.w3.org/Graphics/SVG/1.1/DTD/svg11.dtd">
<!-- Generated by graphviz version 14.0.2 (20251019.1705)
 -->
<!-- Pages: 1 -->
<svg width="307pt" height="305pt"
 viewBox="0.00 0.00 307.00 305.00" xmlns="http://www.w3.org/2000/svg" xmlns:xlink="http://www.w3.org/1999/xlink">
<g id="graph0" class="graph" transform="scale(1 1) rotate(0) translate(4 301)">
<polygon fill="white" stroke="none" points="-4,4 -4,-301 302.5,-301 302.5,4 -4,4"/>
<g id="clust2" class="cluster">
<title>cluster_associated</title>
</g>
<!-- PointOnRoute -->
<g id="node1" class="node">
<title>PointOnRoute</title>
<g id="a_node1"><a xlink:href="../classes/transportnetwork__PointOnRoute.md" xlink:title="&lt;TABLE&gt;">
<polygon fill="lightgray" stroke="none" points="106.5,-206 106.5,-222.25 297.5,-222.25 297.5,-206 106.5,-206"/>
<text xml:space="preserve" text-anchor="start" x="164.12" y="-209.85" font-family="Arial" font-size="12.00">PointOnRoute</text>
<text xml:space="preserve" text-anchor="start" x="107.5" y="-193.6" font-family="Arial" font-size="12.00">index: xsd::integer «exactly 1, only»</text>
<polygon fill="none" stroke="black" points="105.5,-188.75 105.5,-223.25 298.5,-223.25 298.5,-188.75 105.5,-188.75"/>
</a>
</g>
</g>
<!-- PublicTransportElement -->
<g id="node2" class="node">
<title>PublicTransportElement</title>
<g id="a_node2"><a xlink:href="../_counters/transportnetwork__PublicTransportElement.md" xlink:title="&lt;TABLE&gt;">
<polygon fill="lightgray" stroke="none" points="136.88,-270.88 136.88,-287.12 267.12,-287.12 267.12,-270.88 136.88,-270.88"/>
<text xml:space="preserve" text-anchor="start" x="137.88" y="-274.73" font-family="Arial" font-size="12.00">PublicTransportElement</text>
<polygon fill="none" stroke="black" points="135.88,-269.88 135.88,-288.12 268.12,-288.12 268.12,-269.88 135.88,-269.88"/>
</a>
</g>
</g>
<!-- PointOnRoute&#45;&gt;PublicTransportElement -->
<g id="edge1" class="edge">
<title>PointOnRoute&#45;&gt;PublicTransportElement</title>
<path fill="none" stroke="black" d="M202,-223.71C202,-231.47 202,-240.92 202,-249.74"/>
<polygon fill="none" stroke="black" points="198.5,-249.66 202,-259.66 205.5,-249.66 198.5,-249.66"/>
</g>
<!-- Invis -->
<!-- PointOnRoute&#45;&gt;Invis -->
<!-- code__Code -->
<g id="node4" class="node">
<title>code__Code</title>
<polygon fill="lightgray" stroke="none" points="17.25,-98.88 17.25,-115.12 80.75,-115.12 80.75,-98.88 17.25,-98.88"/>
<text xml:space="preserve" text-anchor="start" x="18.25" y="-102.72" font-family="Arial" font-size="12.00">code::Code</text>
<polygon fill="none" stroke="black" points="16.25,-97.88 16.25,-116.12 81.75,-116.12 81.75,-97.88 16.25,-97.88"/>
</g>
<!-- PointOnRoute&#45;&gt;code__Code -->
<g id="edge6" class="edge">
<title>PointOnRoute&#45;&gt;code__Code</title>
<path fill="none" stroke="black" d="M136.64,-188.05C124.3,-183.29 111.93,-177.34 101.25,-170 87.52,-160.56 75.32,-146.59 66.17,-134.31"/>
<polygon fill="black" stroke="black" points="69.03,-132.29 60.38,-126.17 63.32,-136.35 69.03,-132.29"/>
<text xml:space="preserve" text-anchor="middle" x="140.62" y="-159.55" font-family="Arial" font-size="11.00"> routePointType </text>
<text xml:space="preserve" text-anchor="middle" x="140.62" y="-146.05" font-family="Arial" font-size="11.00"> «only» &#160;</text>
</g>
<!-- RoutePoint -->
<g id="node5" class="node">
<title>RoutePoint</title>
<g id="a_node5"><a xlink:href="../_counters/transportnetwork__RoutePoint.md" xlink:title="&lt;TABLE&gt;">
<polygon fill="lightgray" stroke="none" points="19,-25.88 19,-42.12 81,-42.12 81,-25.88 19,-25.88"/>
<text xml:space="preserve" text-anchor="start" x="20" y="-29.73" font-family="Arial" font-size="12.00">RoutePoint</text>
<polygon fill="none" stroke="black" points="18,-24.88 18,-43.12 82,-43.12 82,-24.88 18,-24.88"/>
</a>
</g>
</g>
<!-- PointOnRoute&#45;&gt;RoutePoint -->
<g id="edge5" class="edge">
<title>PointOnRoute&#45;&gt;RoutePoint</title>
<path fill="none" stroke="black" d="M198.59,-188.07C195.36,-174.92 189.54,-156.67 180,-143 155.41,-107.76 116.41,-77.5 87.54,-58.05"/>
<polygon fill="black" stroke="black" points="89.71,-55.29 79.43,-52.71 85.86,-61.13 89.71,-55.29"/>
<text xml:space="preserve" text-anchor="middle" x="209.32" y="-110.05" font-family="Arial" font-size="11.00"> point </text>
<text xml:space="preserve" text-anchor="middle" x="209.32" y="-96.55" font-family="Arial" font-size="11.00"> «exactly 1, only» &#160;</text>
</g>
<!-- Invis&#45;&gt;code__Code -->
<!-- code__Code&#45;&gt;RoutePoint -->
</g>
</svg>
