<?xml version="1.0" encoding="UTF-8" standalone="no"?>
<!DOCTYPE svg PUBLIC "-//W3C//DTD SVG 1.1//EN"
 "http://www.w3.org/Graphics/SVG/1.1/DTD/svg11.dtd">
<!-- Generated by graphviz version 14.0.2 (20251019.1705)
 -->
<!-- Pages: 1 -->
<svg width="618pt" height="476pt"
 viewBox="0.00 0.00 618.00 476.00" xmlns="http://www.w3.org/2000/svg" xmlns:xlink="http://www.w3.org/1999/xlink">
<g id="graph0" class="graph" transform="scale(1 1) rotate(0) translate(4 472)">
<polygon fill="white" stroke="none" points="-4,4 -4,-472 614,-472 614,4 -4,4"/>
<g id="clust2" class="cluster">
<title>cluster_associated</title>
</g>
<!-- TransportNetwork -->
<g id="node1" class="node">
<title>TransportNetwork</title>
<g id="a_node1"><a xlink:href="../_counters/transportnetwork__TransportNetwork.md" xlink:title="&lt;TABLE&gt;">
<polygon fill="lightgray" stroke="none" points="21,-342.88 21,-359.12 117.5,-359.12 117.5,-342.88 21,-342.88"/>
<text xml:space="preserve" text-anchor="start" x="22" y="-346.73" font-family="Arial" font-size="12.00">TransportNetwork</text>
<polygon fill="none" stroke="black" points="20,-341.88 20,-360.12 118.5,-360.12 118.5,-341.88 20,-341.88"/>
</a>
</g>
</g>
<!-- TransportNetwork&#45;&gt;TransportNetwork -->
<g id="edge13" class="edge">
<title>TransportNetwork&#45;&gt;TransportNetwork</title>
<path fill="none" stroke="black" stroke-dasharray="5,2" d="M118.21,-358.78C128.81,-358.02 136.5,-355.43 136.5,-351 136.5,-348.37 133.79,-346.39 129.37,-345.06"/>
<polygon fill="black" stroke="black" points="130.14,-341.64 119.71,-343.47 129.01,-348.54 130.14,-341.64"/>
<text xml:space="preserve" text-anchor="middle" x="227.25" y="-354.05" font-family="Arial" font-size="11.00"> onProperty: partwhole::properPartOf </text>
<text xml:space="preserve" text-anchor="middle" x="227.25" y="-340.55" font-family="Arial" font-size="11.00"> «only» &#160;</text>
</g>
<!-- NetworkElement -->
<g id="node2" class="node">
<title>NetworkElement</title>
<g id="a_node2"><a xlink:href="../_counters/transportnetwork__NetworkElement.md" xlink:title="&lt;TABLE&gt;">
<polygon fill="lightgray" stroke="none" points="1,-441.88 1,-458.12 91.5,-458.12 91.5,-441.88 1,-441.88"/>
<text xml:space="preserve" text-anchor="start" x="2" y="-445.73" font-family="Arial" font-size="12.00">NetworkElement</text>
<polygon fill="none" stroke="black" points="0,-440.88 0,-459.12 92.5,-459.12 92.5,-440.88 0,-440.88"/>
</a>
</g>
</g>
<!-- TransportNetwork&#45;&gt;NetworkElement -->
<g id="edge1" class="edge">
<title>TransportNetwork&#45;&gt;NetworkElement</title>
<path fill="none" stroke="black" d="M64.85,-368.71C63.35,-374.49 61.69,-381.02 60.25,-387 57.58,-398.07 54.79,-410.28 52.4,-420.93"/>
<polygon fill="none" stroke="black" points="49,-420.13 50.25,-430.65 55.83,-421.65 49,-420.13"/>
</g>
<!-- Invis -->
<!-- TransportNetwork&#45;&gt;Invis -->
<!-- Ne56f9a3959e44550b9c1f74c3155b0e8 -->
<g id="node8" class="node">
<title>Ne56f9a3959e44550b9c1f74c3155b0e8</title>
<polygon fill="lightyellow" stroke="none" points="335.5,-440.88 335.5,-459.12 395,-459.12 395,-440.88 335.5,-440.88"/>
<text xml:space="preserve" text-anchor="start" x="337.5" y="-445.73" font-family="Arial" font-size="12.00">«unionOf»</text>
<polygon fill="none" stroke="black" points="335.5,-440.88 335.5,-459.12 395,-459.12 395,-440.88 335.5,-440.88"/>
</g>
<!-- TransportNetwork&#45;&gt;Ne56f9a3959e44550b9c1f74c3155b0e8 -->
<g id="edge12" class="edge">
<title>TransportNetwork&#45;&gt;Ne56f9a3959e44550b9c1f74c3155b0e8</title>
<path fill="none" stroke="black" stroke-dasharray="5,2" d="M66,-368.87C64.37,-382.9 64.73,-402.39 76.25,-414 93.4,-431.29 248.47,-442.38 324.11,-446.81"/>
<polygon fill="black" stroke="black" points="323.85,-450.3 334.03,-447.38 324.25,-443.31 323.85,-450.3"/>
<text xml:space="preserve" text-anchor="middle" x="170.75" y="-403.55" font-family="Arial" font-size="11.00"> onProperty: partwhole::hasProperPart </text>
<text xml:space="preserve" text-anchor="middle" x="170.75" y="-390.05" font-family="Arial" font-size="11.00"> «only» &#160;</text>
</g>
<!-- TransportNode -->
<g id="node4" class="node">
<title>TransportNode</title>
<g id="a_node4"><a xlink:href="../_counters/transportnetwork__TransportNode.md" xlink:title="&lt;TABLE&gt;">
<polygon fill="lightgray" stroke="none" points="443.5,-257.38 443.5,-273.62 525,-273.62 525,-257.38 443.5,-257.38"/>
<text xml:space="preserve" text-anchor="start" x="444.5" y="-261.23" font-family="Arial" font-size="12.00">TransportNode</text>
<polygon fill="none" stroke="black" points="442.5,-256.38 442.5,-274.62 526,-274.62 526,-256.38 442.5,-256.38"/>
</a>
</g>
</g>
<!-- Invis&#45;&gt;TransportNode -->
<!-- TravelledWay -->
<g id="node5" class="node">
<title>TravelledWay</title>
<g id="a_node5"><a xlink:href="../_counters/transportnetwork__TravelledWay.md" xlink:title="&lt;TABLE&gt;">
<polygon fill="lightgray" stroke="none" points="439.5,-171.88 439.5,-188.12 515,-188.12 515,-171.88 439.5,-171.88"/>
<text xml:space="preserve" text-anchor="start" x="440.5" y="-175.72" font-family="Arial" font-size="12.00">TravelledWay</text>
<polygon fill="none" stroke="black" points="438.5,-170.88 438.5,-189.12 516,-189.12 516,-170.88 438.5,-170.88"/>
</a>
</g>
</g>
<!-- TransportNode&#45;&gt;TravelledWay -->
<!-- TravelledWayLink -->
<g id="node6" class="node">
<title>TravelledWayLink</title>
<g id="a_node6"><a xlink:href="../_counters/transportnetwork__TravelledWayLink.md" xlink:title="&lt;TABLE&gt;">
<polygon fill="lightgray" stroke="none" points="428.25,-98.88 428.25,-115.12 526.25,-115.12 526.25,-98.88 428.25,-98.88"/>
<text xml:space="preserve" text-anchor="start" x="429.25" y="-102.72" font-family="Arial" font-size="12.00">TravelledWayLink</text>
<polygon fill="none" stroke="black" points="427.25,-97.88 427.25,-116.12 527.25,-116.12 527.25,-97.88 427.25,-97.88"/>
</a>
</g>
</g>
<!-- TravelledWay&#45;&gt;TravelledWayLink -->
<!-- TravelledWaySection -->
<g id="node7" class="node">
<title>TravelledWaySection</title>
<g id="a_node7"><a xlink:href="../_counters/transportnetwork__TravelledWaySection.md" xlink:title="&lt;TABLE&gt;">
<polygon fill="lightgray" stroke="none" points="427.25,-25.88 427.25,-42.12 543.25,-42.12 543.25,-25.88 427.25,-25.88"/>
<text xml:space="preserve" text-anchor="start" x="428.25" y="-29.73" font-family="Arial" font-size="12.00">TravelledWaySection</text>
<polygon fill="none" stroke="black" points="426.25,-24.88 426.25,-43.12 544.25,-43.12 544.25,-24.88 426.25,-24.88"/>
</a>
</g>
</g>
<!-- TravelledWayLink&#45;&gt;TravelledWaySection -->
<!-- Ne56f9a3959e44550b9c1f74c3155b0e8&#45;&gt;TransportNetwork -->
<g id="edge7" class="edge">
<title>Ne56f9a3959e44550b9c1f74c3155b0e8&#45;&gt;TransportNetwork</title>
<path fill="none" stroke="black" stroke-dasharray="1,5" d="M335.71,-438.07C321.83,-432.15 305.51,-423.98 292.5,-414 279.93,-404.36 283.02,-394.82 269.25,-387 226.66,-362.81 171.39,-354.57 129.75,-352.09"/>
<polygon fill="black" stroke="black" points="130.06,-348.6 119.9,-351.61 129.72,-355.59 130.06,-348.6"/>
<text xml:space="preserve" text-anchor="middle" x="312.38" y="-396.8" font-family="Arial" font-size="11.00">member</text>
</g>
<!-- Ne56f9a3959e44550b9c1f74c3155b0e8&#45;&gt;TransportNode -->
<g id="edge8" class="edge">
<title>Ne56f9a3959e44550b9c1f74c3155b0e8&#45;&gt;TransportNode</title>
<path fill="none" stroke="black" stroke-dasharray="1,5" d="M383.08,-432.05C388.32,-426.57 393.83,-420.28 398.25,-414 421.51,-380.97 419.02,-367.82 439.5,-333 447.49,-319.41 457.17,-304.83 465.48,-292.79"/>
<polygon fill="black" stroke="black" points="468.35,-294.8 471.21,-284.6 462.61,-290.79 468.35,-294.8"/>
<text xml:space="preserve" text-anchor="middle" x="459.38" y="-347.3" font-family="Arial" font-size="11.00">member</text>
</g>
<!-- Ne56f9a3959e44550b9c1f74c3155b0e8&#45;&gt;TravelledWay -->
<g id="edge9" class="edge">
<title>Ne56f9a3959e44550b9c1f74c3155b0e8&#45;&gt;TravelledWay</title>
<path fill="none" stroke="black" stroke-dasharray="1,5" d="M369.06,-432.34C375.6,-404.7 389.96,-347.84 407.5,-301.5 416.92,-276.63 420.16,-270.64 433.25,-247.5 440.97,-233.85 450.47,-219.26 458.67,-207.23"/>
<polygon fill="black" stroke="black" points="461.52,-209.27 464.32,-199.06 455.76,-205.29 461.52,-209.27"/>
<text xml:space="preserve" text-anchor="middle" x="427.38" y="-304.55" font-family="Arial" font-size="11.00">member</text>
</g>
<!-- Ne56f9a3959e44550b9c1f74c3155b0e8&#45;&gt;TravelledWayLink -->
<g id="edge10" class="edge">
<title>Ne56f9a3959e44550b9c1f74c3155b0e8&#45;&gt;TravelledWayLink</title>
<path fill="none" stroke="black" stroke-dasharray="1,5" d="M359.86,-432.03C354.24,-412.81 346.25,-380.49 346.25,-352 346.25,-352 346.25,-352 346.25,-179 346.25,-144.34 382.14,-126.51 416.35,-117.39"/>
<polygon fill="black" stroke="black" points="416.99,-120.84 425.88,-115.08 415.34,-114.03 416.99,-120.84"/>
<text xml:space="preserve" text-anchor="middle" x="366.12" y="-261.8" font-family="Arial" font-size="11.00">member</text>
</g>
<!-- Ne56f9a3959e44550b9c1f74c3155b0e8&#45;&gt;TravelledWaySection -->
<g id="edge11" class="edge">
<title>Ne56f9a3959e44550b9c1f74c3155b0e8&#45;&gt;TravelledWaySection</title>
<path fill="none" stroke="black" stroke-dasharray="1,5" d="M394.62,-448.18C451.31,-444.87 570.25,-428.78 570.25,-352 570.25,-352 570.25,-352 570.25,-106 570.25,-84.88 554.6,-68.81 536.73,-57.35"/>
<polygon fill="black" stroke="black" points="538.95,-54.59 528.56,-52.54 535.4,-60.63 538.95,-54.59"/>
<text xml:space="preserve" text-anchor="middle" x="590.12" y="-219.05" font-family="Arial" font-size="11.00">member</text>
</g>
</g>
</svg>
