<?xml version="1.0" encoding="UTF-8" standalone="no"?>
<!DOCTYPE svg PUBLIC "-//W3C//DTD SVG 1.1//EN"
 "http://www.w3.org/Graphics/SVG/1.1/DTD/svg11.dtd">
<!-- Generated by graphviz version 14.0.2 (20251019.1705)
 -->
<!-- Pages: 1 -->
<svg width="332pt" height="318pt"
 viewBox="0.00 0.00 332.00 318.00" xmlns="http://www.w3.org/2000/svg" xmlns:xlink="http://www.w3.org/1999/xlink">
<g id="graph0" class="graph" transform="scale(1 1) rotate(0) translate(4 313.5)">
<polygon fill="white" stroke="none" points="-4,4 -4,-313.5 327.58,-313.5 327.58,4 -4,4"/>
<g id="clust2" class="cluster">
<title>cluster_associated</title>
</g>
<!-- PublicTransportSystem -->
<g id="node1" class="node">
<title>PublicTransportSystem</title>
<g id="a_node1"><a xlink:href="../classes/transportnetwork__PublicTransportSystem.md" xlink:title="&lt;TABLE&gt;">
<polygon fill="lightgray" stroke="none" points="3.25,-184.38 3.25,-200.62 129,-200.62 129,-184.38 3.25,-184.38"/>
<text xml:space="preserve" text-anchor="start" x="4.25" y="-188.22" font-family="Arial" font-size="12.00">PublicTransportSystem</text>
<polygon fill="none" stroke="black" points="2.25,-183.38 2.25,-201.62 130,-201.62 130,-183.38 2.25,-183.38"/>
</a>
</g>
</g>
<!-- PublicTransportElement -->
<g id="node2" class="node">
<title>PublicTransportElement</title>
<g id="a_node2"><a xlink:href="../_counters/transportnetwork__PublicTransportElement.md" xlink:title="&lt;TABLE&gt;">
<polygon fill="lightgray" stroke="none" points="1,-283.38 1,-299.62 131.25,-299.62 131.25,-283.38 1,-283.38"/>
<text xml:space="preserve" text-anchor="start" x="2" y="-287.23" font-family="Arial" font-size="12.00">PublicTransportElement</text>
<polygon fill="none" stroke="black" points="0,-282.38 0,-300.62 132.25,-300.62 132.25,-282.38 0,-282.38"/>
</a>
</g>
</g>
<!-- PublicTransportSystem&#45;&gt;PublicTransportElement -->
<g id="edge1" class="edge">
<title>PublicTransportSystem&#45;&gt;PublicTransportElement</title>
<path fill="none" stroke="black" d="M66.12,-210.2C66.12,-224.47 66.12,-245.3 66.12,-262.17"/>
<polygon fill="none" stroke="black" points="62.63,-262.09 66.13,-272.09 69.63,-262.09 62.63,-262.09"/>
</g>
<!-- Invis -->
<!-- PublicTransportSystem&#45;&gt;Invis -->
<!-- Nc1d7244145c74c7db980aa18dd7451c0 -->
<g id="node6" class="node">
<title>Nc1d7244145c74c7db980aa18dd7451c0</title>
<polygon fill="lightyellow" stroke="none" points="225.38,-282.38 225.38,-300.62 284.88,-300.62 284.88,-282.38 225.38,-282.38"/>
<text xml:space="preserve" text-anchor="start" x="227.38" y="-287.23" font-family="Arial" font-size="12.00">«unionOf»</text>
<polygon fill="none" stroke="black" points="225.38,-282.38 225.38,-300.62 284.88,-300.62 284.88,-282.38 225.38,-282.38"/>
</g>
<!-- PublicTransportSystem&#45;&gt;Nc1d7244145c74c7db980aa18dd7451c0 -->
<g id="edge7" class="edge">
<title>PublicTransportSystem&#45;&gt;Nc1d7244145c74c7db980aa18dd7451c0</title>
<path fill="none" stroke="black" d="M74.13,-210.31C81.74,-224.49 94.54,-244.24 111.38,-255.5 142.14,-276.08 183.81,-284.58 214.37,-288.08"/>
<polygon fill="black" stroke="black" points="213.68,-291.53 223.98,-289.04 214.38,-284.56 213.68,-291.53"/>
<text xml:space="preserve" text-anchor="middle" x="176.25" y="-245.05" font-family="Arial" font-size="11.00"> partwhole::hasProperPart </text>
<text xml:space="preserve" text-anchor="middle" x="176.25" y="-231.55" font-family="Arial" font-size="11.00"> «only» &#160;</text>
</g>
<!-- GroupOfLines -->
<g id="node4" class="node">
<title>GroupOfLines</title>
<g id="a_node4"><a xlink:href="../_counters/transportnetwork__GroupOfLines.md" xlink:title="&lt;TABLE&gt;">
<polygon fill="lightgray" stroke="none" points="183,-98.88 183,-115.12 259.25,-115.12 259.25,-98.88 183,-98.88"/>
<text xml:space="preserve" text-anchor="start" x="184" y="-102.72" font-family="Arial" font-size="12.00">GroupOfLines</text>
<polygon fill="none" stroke="black" points="182,-97.88 182,-116.12 260.25,-116.12 260.25,-97.88 182,-97.88"/>
</a>
</g>
</g>
<!-- Invis&#45;&gt;GroupOfLines -->
<!-- PublicTransportLine -->
<g id="node5" class="node">
<title>PublicTransportLine</title>
<g id="a_node5"><a xlink:href="../_counters/transportnetwork__PublicTransportLine.md" xlink:title="&lt;TABLE&gt;">
<polygon fill="lightgray" stroke="none" points="166.5,-25.88 166.5,-42.12 275.75,-42.12 275.75,-25.88 166.5,-25.88"/>
<text xml:space="preserve" text-anchor="start" x="167.5" y="-29.73" font-family="Arial" font-size="12.00">PublicTransportLine</text>
<polygon fill="none" stroke="black" points="165.5,-24.88 165.5,-43.12 276.75,-43.12 276.75,-24.88 165.5,-24.88"/>
</a>
</g>
</g>
<!-- GroupOfLines&#45;&gt;PublicTransportLine -->
<!-- Nc1d7244145c74c7db980aa18dd7451c0&#45;&gt;GroupOfLines -->
<g id="edge5" class="edge">
<title>Nc1d7244145c74c7db980aa18dd7451c0&#45;&gt;GroupOfLines</title>
<path fill="none" stroke="black" stroke-dasharray="1,5" d="M251.99,-273.66C246.13,-242.22 233.48,-174.31 226.33,-135.92"/>
<polygon fill="black" stroke="black" points="229.8,-135.48 224.53,-126.29 222.92,-136.76 229.8,-135.48"/>
<text xml:space="preserve" text-anchor="middle" x="261.38" y="-188.8" font-family="Arial" font-size="11.00">member</text>
</g>
<!-- Nc1d7244145c74c7db980aa18dd7451c0&#45;&gt;PublicTransportLine -->
<g id="edge6" class="edge">
<title>Nc1d7244145c74c7db980aa18dd7451c0&#45;&gt;PublicTransportLine</title>
<path fill="none" stroke="black" stroke-dasharray="1,5" d="M264.39,-273.65C271.65,-259.43 281.17,-238.29 285.12,-218.5 288.96,-199.32 286.93,-193.97 285.12,-174.5 281.55,-136.01 286.14,-123.71 269.12,-89 263.91,-78.36 256,-68.21 248.1,-59.65"/>
<polygon fill="black" stroke="black" points="250.85,-57.45 241.36,-52.74 245.84,-62.34 250.85,-57.45"/>
<text xml:space="preserve" text-anchor="middle" x="303.71" y="-146.05" font-family="Arial" font-size="11.00">member</text>
</g>
</g>
</svg>
