<?xml version="1.0" encoding="UTF-8" standalone="no"?>
<!DOCTYPE svg PUBLIC "-//W3C//DTD SVG 1.1//EN"
 "http://www.w3.org/Graphics/SVG/1.1/DTD/svg11.dtd">
<!-- Generated by graphviz version 14.0.2 (20251019.1705)
 -->
<!-- Pages: 1 -->
<svg width="405pt" height="503pt"
 viewBox="0.00 0.00 405.00 503.00" xmlns="http://www.w3.org/2000/svg" xmlns:xlink="http://www.w3.org/1999/xlink">
<g id="graph0" class="graph" transform="scale(1 1) rotate(0) translate(4 499)">
<polygon fill="white" stroke="none" points="-4,4 -4,-499 400.88,-499 400.88,4 -4,4"/>
<g id="clust2" class="cluster">
<title>cluster_associated</title>
</g>
<!-- PublicTransportLine -->
<g id="node1" class="node">
<title>PublicTransportLine</title>
<g id="a_node1"><a xlink:href="../classes/transportnetwork__PublicTransportLine.md" xlink:title="&lt;TABLE&gt;">
<polygon fill="lightgray" stroke="none" points="44.5,-369.88 44.5,-386.12 153.75,-386.12 153.75,-369.88 44.5,-369.88"/>
<text xml:space="preserve" text-anchor="start" x="45.5" y="-373.73" font-family="Arial" font-size="12.00">PublicTransportLine</text>
<polygon fill="none" stroke="black" points="43.5,-368.88 43.5,-387.12 154.75,-387.12 154.75,-368.88 43.5,-368.88"/>
</a>
</g>
</g>
<!-- PublicTransportElement -->
<g id="node2" class="node">
<title>PublicTransportElement</title>
<g id="a_node2"><a xlink:href="../_counters/transportnetwork__PublicTransportElement.md" xlink:title="&lt;TABLE&gt;">
<polygon fill="lightgray" stroke="none" points="1,-468.88 1,-485.12 131.25,-485.12 131.25,-468.88 1,-468.88"/>
<text xml:space="preserve" text-anchor="start" x="2" y="-472.73" font-family="Arial" font-size="12.00">PublicTransportElement</text>
<polygon fill="none" stroke="black" points="0,-467.88 0,-486.12 132.25,-486.12 132.25,-467.88 0,-467.88"/>
</a>
</g>
</g>
<!-- PublicTransportLine&#45;&gt;PublicTransportElement -->
<g id="edge1" class="edge">
<title>PublicTransportLine&#45;&gt;PublicTransportElement</title>
<path fill="none" stroke="black" d="M88.87,-395.65C85.72,-401.31 82.46,-407.79 80.12,-414 76.05,-424.85 72.96,-437.23 70.73,-448.06"/>
<polygon fill="none" stroke="black" points="67.35,-447.09 68.93,-457.57 74.23,-448.39 67.35,-447.09"/>
</g>
<!-- Invis -->
<!-- PublicTransportLine&#45;&gt;Invis -->
<!-- code__Code -->
<g id="node4" class="node">
<title>code__Code</title>
<polygon fill="lightgray" stroke="none" points="264.38,-270.88 264.38,-287.12 327.88,-287.12 327.88,-270.88 264.38,-270.88"/>
<text xml:space="preserve" text-anchor="start" x="265.38" y="-274.73" font-family="Arial" font-size="12.00">code::Code</text>
<polygon fill="none" stroke="black" points="263.38,-269.88 263.38,-288.12 328.88,-288.12 328.88,-269.88 263.38,-269.88"/>
</g>
<!-- PublicTransportLine&#45;&gt;code__Code -->
<g id="edge7" class="edge">
<title>PublicTransportLine&#45;&gt;code__Code</title>
<path fill="none" stroke="black" d="M101.22,-360.21C103.9,-346.04 109.93,-326.3 123.38,-315 142.51,-298.91 207.6,-289.1 252.18,-284.11"/>
<polygon fill="black" stroke="black" points="252.52,-287.6 262.09,-283.05 251.77,-280.64 252.52,-287.6"/>
<text xml:space="preserve" text-anchor="middle" x="168.75" y="-331.55" font-family="Arial" font-size="11.00"> allowedDirections </text>
<text xml:space="preserve" text-anchor="middle" x="168.75" y="-318.05" font-family="Arial" font-size="11.00"> «min 1, only» &#160;</text>
</g>
<!-- PublicTransportRoute -->
<g id="node6" class="node">
<title>PublicTransportRoute</title>
<g id="a_node6"><a xlink:href="../_counters/transportnetwork__PublicTransportRoute.md" xlink:title="&lt;TABLE&gt;">
<polygon fill="lightgray" stroke="none" points="207,-98.88 207,-115.12 325.25,-115.12 325.25,-98.88 207,-98.88"/>
<text xml:space="preserve" text-anchor="start" x="208" y="-102.72" font-family="Arial" font-size="12.00">PublicTransportRoute</text>
<polygon fill="none" stroke="black" points="206,-97.88 206,-116.12 326.25,-116.12 326.25,-97.88 206,-97.88"/>
</a>
</g>
</g>
<!-- PublicTransportLine&#45;&gt;PublicTransportRoute -->
<g id="edge8" class="edge">
<title>PublicTransportLine&#45;&gt;PublicTransportRoute</title>
<path fill="none" stroke="black" d="M97.36,-360.46C94.91,-329.54 93.61,-261.96 122.38,-216 146.09,-178.11 188.25,-148.82 220.8,-130.36"/>
<polygon fill="black" stroke="black" points="222.16,-133.61 229.23,-125.71 218.79,-127.47 222.16,-133.61"/>
<text xml:space="preserve" text-anchor="middle" x="187.25" y="-232.55" font-family="Arial" font-size="11.00"> partwhole::hasProperPart </text>
<text xml:space="preserve" text-anchor="middle" x="187.25" y="-219.05" font-family="Arial" font-size="11.00"> «min 1, only» &#160;</text>
</g>
<!-- Nd1265cae752c47e4bb000e9a8c8db5e3 -->
<g id="node8" class="node">
<title>Nd1265cae752c47e4bb000e9a8c8db5e3</title>
<polygon fill="lightyellow" stroke="none" points="206.38,-467.88 206.38,-486.12 265.88,-486.12 265.88,-467.88 206.38,-467.88"/>
<text xml:space="preserve" text-anchor="start" x="208.38" y="-472.73" font-family="Arial" font-size="12.00">«unionOf»</text>
<polygon fill="none" stroke="black" points="206.38,-467.88 206.38,-486.12 265.88,-486.12 265.88,-467.88 206.38,-467.88"/>
</g>
<!-- PublicTransportLine&#45;&gt;Nd1265cae752c47e4bb000e9a8c8db5e3 -->
<g id="edge11" class="edge">
<title>PublicTransportLine&#45;&gt;Nd1265cae752c47e4bb000e9a8c8db5e3</title>
<path fill="none" stroke="black" d="M94.22,-395.83C91.34,-409.45 89.97,-428.39 99.88,-441 105.89,-448.66 157.3,-460.36 195.2,-468.09"/>
<polygon fill="black" stroke="black" points="194.49,-471.52 204.98,-470.06 195.87,-464.66 194.49,-471.52"/>
<text xml:space="preserve" text-anchor="middle" x="161" y="-430.55" font-family="Arial" font-size="11.00"> partwhole::properPartOf </text>
<text xml:space="preserve" text-anchor="middle" x="161" y="-417.05" font-family="Arial" font-size="11.00"> «only» &#160;</text>
</g>
<!-- Invis&#45;&gt;code__Code -->
<!-- GroupOfLines -->
<g id="node5" class="node">
<title>GroupOfLines</title>
<g id="a_node5"><a xlink:href="../_counters/transportnetwork__GroupOfLines.md" xlink:title="&lt;TABLE&gt;">
<polygon fill="lightgray" stroke="none" points="228,-171.88 228,-188.12 304.25,-188.12 304.25,-171.88 228,-171.88"/>
<text xml:space="preserve" text-anchor="start" x="229" y="-175.72" font-family="Arial" font-size="12.00">GroupOfLines</text>
<polygon fill="none" stroke="black" points="227,-170.88 227,-189.12 305.25,-189.12 305.25,-170.88 227,-170.88"/>
</a>
</g>
</g>
<!-- code__Code&#45;&gt;GroupOfLines -->
<!-- GroupOfLines&#45;&gt;PublicTransportRoute -->
<!-- PublicTransportSystem -->
<g id="node7" class="node">
<title>PublicTransportSystem</title>
<g id="a_node7"><a xlink:href="../_counters/transportnetwork__PublicTransportSystem.md" xlink:title="&lt;TABLE&gt;">
<polygon fill="lightgray" stroke="none" points="205.25,-25.88 205.25,-42.12 331,-42.12 331,-25.88 205.25,-25.88"/>
<text xml:space="preserve" text-anchor="start" x="206.25" y="-29.73" font-family="Arial" font-size="12.00">PublicTransportSystem</text>
<polygon fill="none" stroke="black" points="204.25,-24.88 204.25,-43.12 332,-43.12 332,-24.88 204.25,-24.88"/>
</a>
</g>
</g>
<!-- PublicTransportRoute&#45;&gt;PublicTransportSystem -->
<!-- Nd1265cae752c47e4bb000e9a8c8db5e3&#45;&gt;GroupOfLines -->
<g id="edge9" class="edge">
<title>Nd1265cae752c47e4bb000e9a8c8db5e3&#45;&gt;GroupOfLines</title>
<path fill="none" stroke="black" stroke-dasharray="1,5" d="M237.15,-459.24C239.46,-422.99 245.53,-334.66 254.12,-261 256.14,-243.72 259.02,-224.43 261.45,-209.12"/>
<polygon fill="black" stroke="black" points="264.89,-209.74 263.03,-199.31 257.98,-208.62 264.89,-209.74"/>
<text xml:space="preserve" text-anchor="middle" x="268.29" y="-324.8" font-family="Arial" font-size="11.00">member</text>
</g>
<!-- Nd1265cae752c47e4bb000e9a8c8db5e3&#45;&gt;PublicTransportSystem -->
<g id="edge10" class="edge">
<title>Nd1265cae752c47e4bb000e9a8c8db5e3&#45;&gt;PublicTransportSystem</title>
<path fill="none" stroke="black" stroke-dasharray="1,5" d="M265.72,-466.83C301.55,-453.66 357.12,-425.71 357.12,-379 357.12,-379 357.12,-379 357.12,-106 357.12,-84.81 341.51,-68.91 323.36,-57.59"/>
<polygon fill="black" stroke="black" points="325.15,-54.58 314.72,-52.68 321.68,-60.66 325.15,-54.58"/>
<text xml:space="preserve" text-anchor="middle" x="377" y="-225.8" font-family="Arial" font-size="11.00">member</text>
</g>
</g>
</svg>
