<?xml version="1.0" encoding="UTF-8" standalone="no"?>
<!DOCTYPE svg PUBLIC "-//W3C//DTD SVG 1.1//EN"
 "http://www.w3.org/Graphics/SVG/1.1/DTD/svg11.dtd">
<!-- Generated by graphviz version 14.0.2 (20251019.1705)
 -->
<!-- Pages: 1 -->
<svg width="360pt" height="139pt"
 viewBox="0.00 0.00 360.00 139.00" xmlns="http://www.w3.org/2000/svg" xmlns:xlink="http://www.w3.org/1999/xlink">
<g id="graph0" class="graph" transform="scale(1 1) rotate(0) translate(4 135.38)">
<polygon fill="white" stroke="none" points="-4,4 -4,-135.38 355.75,-135.38 355.75,4 -4,4"/>
<g id="clust2" class="cluster">
<title>cluster_associated</title>
</g>
<!-- RoutePoint -->
<g id="node1" class="node">
<title>RoutePoint</title>
<g id="a_node1"><a xlink:href="../classes/transportnetwork__RoutePoint.md" xlink:title="&lt;TABLE&gt;">
<polygon fill="lightgray" stroke="none" points="1,-42.12 1,-58.38 262.5,-58.38 262.5,-42.12 1,-42.12"/>
<text xml:space="preserve" text-anchor="start" x="101.75" y="-45.98" font-family="Arial" font-size="12.00">RoutePoint</text>
<text xml:space="preserve" text-anchor="start" x="2" y="-29.73" font-family="Arial" font-size="12.00">isBorderCrossing: xsd::boolean «exactly 1, only»</text>
<text xml:space="preserve" text-anchor="start" x="2" y="-13.47" font-family="Arial" font-size="12.00">isViaPoint: xsd::boolean «max 1, only»</text>
<polygon fill="none" stroke="black" points="0,-8.62 0,-59.38 263.5,-59.38 263.5,-8.62 0,-8.62"/>
</a>
</g>
</g>
<!-- PublicTransportElement -->
<g id="node2" class="node">
<title>PublicTransportElement</title>
<g id="a_node2"><a xlink:href="../_counters/transportnetwork__PublicTransportElement.md" xlink:title="&lt;TABLE&gt;">
<polygon fill="lightgray" stroke="none" points="3.62,-105.25 3.62,-121.5 133.88,-121.5 133.88,-105.25 3.62,-105.25"/>
<text xml:space="preserve" text-anchor="start" x="4.62" y="-109.1" font-family="Arial" font-size="12.00">PublicTransportElement</text>
<polygon fill="none" stroke="black" points="2.62,-104.25 2.62,-122.5 134.88,-122.5 134.88,-104.25 2.62,-104.25"/>
</a>
</g>
</g>
<!-- RoutePoint&#45;&gt;PublicTransportElement -->
<g id="edge1" class="edge">
<title>RoutePoint&#45;&gt;PublicTransportElement</title>
<path fill="none" stroke="black" d="M112.13,-59.1C104.97,-67.89 96.86,-77.85 89.6,-86.77"/>
<polygon fill="none" stroke="black" points="86.98,-84.45 83.38,-94.41 92.4,-88.87 86.98,-84.45"/>
</g>
<!-- TransportNode -->
<g id="node3" class="node">
<title>TransportNode</title>
<g id="a_node3"><a xlink:href="../_counters/transportnetwork__TransportNode.md" xlink:title="&lt;TABLE&gt;">
<polygon fill="lightgray" stroke="none" points="154,-105.25 154,-121.5 235.5,-121.5 235.5,-105.25 154,-105.25"/>
<text xml:space="preserve" text-anchor="start" x="155" y="-109.1" font-family="Arial" font-size="12.00">TransportNode</text>
<polygon fill="none" stroke="black" points="153,-104.25 153,-122.5 236.5,-122.5 236.5,-104.25 153,-104.25"/>
</a>
</g>
</g>
<!-- RoutePoint&#45;&gt;TransportNode -->
<g id="edge2" class="edge">
<title>RoutePoint&#45;&gt;TransportNode</title>
<path fill="none" stroke="black" d="M151.37,-59.1C158.53,-67.89 166.64,-77.85 173.9,-86.77"/>
<polygon fill="none" stroke="black" points="171.1,-88.87 180.12,-94.41 176.52,-84.45 171.1,-88.87"/>
</g>
<!-- Invis -->
</g>
</svg>
