<?xml version="1.0" encoding="UTF-8" standalone="no"?>
<!DOCTYPE svg PUBLIC "-//W3C//DTD SVG 1.1//EN"
 "http://www.w3.org/Graphics/SVG/1.1/DTD/svg11.dtd">
<!-- Generated by graphviz version 14.0.2 (20251019.1705)
 -->
<!-- Pages: 1 -->
<svg width="506pt" height="404pt"
 viewBox="0.00 0.00 506.00 404.00" xmlns="http://www.w3.org/2000/svg" xmlns:xlink="http://www.w3.org/1999/xlink">
<g id="graph0" class="graph" transform="scale(1 1) rotate(0) translate(4 400)">
<polygon fill="white" stroke="none" points="-4,4 -4,-400 501.75,-400 501.75,4 -4,4"/>
<g id="clust2" class="cluster">
<title>cluster_associated</title>
</g>
<!-- MicromobilityNetwork -->
<g id="node1" class="node">
<title>MicromobilityNetwork</title>
<g id="a_node1"><a xlink:href="../classes/transportnetwork__MicromobilityNetwork.md" xlink:title="&lt;TABLE&gt;">
<polygon fill="lightgray" stroke="none" points="172.62,-270.88 172.62,-287.12 289.38,-287.12 289.38,-270.88 172.62,-270.88"/>
<text xml:space="preserve" text-anchor="start" x="173.62" y="-274.73" font-family="Arial" font-size="12.00">MicromobilityNetwork</text>
<polygon fill="none" stroke="black" points="171.62,-269.88 171.62,-288.12 290.38,-288.12 290.38,-269.88 171.62,-269.88"/>
</a>
</g>
</g>
<!-- RoadNetwork -->
<g id="node2" class="node">
<title>RoadNetwork</title>
<g id="a_node2"><a xlink:href="../_counters/transportnetwork__RoadNetwork.md" xlink:title="&lt;TABLE&gt;">
<polygon fill="lightgray" stroke="none" points="77.25,-369.88 77.25,-386.12 152.75,-386.12 152.75,-369.88 77.25,-369.88"/>
<text xml:space="preserve" text-anchor="start" x="78.25" y="-373.73" font-family="Arial" font-size="12.00">RoadNetwork</text>
<polygon fill="none" stroke="black" points="76.25,-368.88 76.25,-387.12 153.75,-387.12 153.75,-368.88 76.25,-368.88"/>
</a>
</g>
</g>
<!-- MicromobilityNetwork&#45;&gt;RoadNetwork -->
<g id="edge1" class="edge">
<title>MicromobilityNetwork&#45;&gt;RoadNetwork</title>
<path fill="none" stroke="black" d="M190.61,-296.9C183.15,-299.77 175.39,-302.6 168,-305 150.98,-310.53 141.47,-302.17 129,-315 120.35,-323.9 116.6,-336.96 115.11,-348.79"/>
<polygon fill="none" stroke="black" points="111.64,-348.28 114.39,-358.51 118.62,-348.8 111.64,-348.28"/>
</g>
<!-- Invis -->
<!-- MicromobilityNetwork&#45;&gt;Invis -->
<!-- MicromobilityLink -->
<g id="node4" class="node">
<title>MicromobilityLink</title>
<g id="a_node4"><a xlink:href="../_counters/transportnetwork__MicromobilityLink.md" xlink:title="&lt;TABLE&gt;">
<polygon fill="lightgray" stroke="none" points="59.5,-171.88 59.5,-188.12 154.5,-188.12 154.5,-171.88 59.5,-171.88"/>
<text xml:space="preserve" text-anchor="start" x="60.5" y="-175.72" font-family="Arial" font-size="12.00">MicromobilityLink</text>
<polygon fill="none" stroke="black" points="58.5,-170.88 58.5,-189.12 155.5,-189.12 155.5,-170.88 58.5,-170.88"/>
</a>
</g>
</g>
<!-- MicromobilityNetwork&#45;&gt;MicromobilityLink -->
<g id="edge10" class="edge">
<title>MicromobilityNetwork&#45;&gt;MicromobilityLink</title>
<path fill="none" stroke="black" stroke-dasharray="5,2" d="M171.79,-261.52C154.47,-255.75 138.45,-249.18 132,-243 122.47,-233.88 116.48,-220.63 112.75,-208.72"/>
<polygon fill="black" stroke="black" points="116.21,-208.1 110.23,-199.36 109.45,-209.92 116.21,-208.1"/>
<text xml:space="preserve" text-anchor="middle" x="226.5" y="-232.55" font-family="Arial" font-size="11.00"> onProperty: partwhole::hasProperPart </text>
<text xml:space="preserve" text-anchor="middle" x="226.5" y="-219.05" font-family="Arial" font-size="11.00"> «min 1» &#160;</text>
</g>
<!-- N3d83386fc07e4cf4a00c3d82920f3104 -->
<g id="node7" class="node">
<title>N3d83386fc07e4cf4a00c3d82920f3104</title>
<polygon fill="lightyellow" stroke="none" points="356.25,-368.88 356.25,-387.12 415.75,-387.12 415.75,-368.88 356.25,-368.88"/>
<text xml:space="preserve" text-anchor="start" x="358.25" y="-373.73" font-family="Arial" font-size="12.00">«unionOf»</text>
<polygon fill="none" stroke="black" points="356.25,-368.88 356.25,-387.12 415.75,-387.12 415.75,-368.88 356.25,-368.88"/>
</g>
<!-- MicromobilityNetwork&#45;&gt;N3d83386fc07e4cf4a00c3d82920f3104 -->
<g id="edge9" class="edge">
<title>MicromobilityNetwork&#45;&gt;N3d83386fc07e4cf4a00c3d82920f3104</title>
<path fill="none" stroke="black" stroke-dasharray="5,2" d="M188.66,-296.92C169.29,-304.86 150.31,-313.01 149,-315 142.39,-325.01 141.16,-332.92 149,-342 173.84,-370.78 284.06,-376.3 345.06,-377.11"/>
<polygon fill="black" stroke="black" points="345.01,-380.61 355.04,-377.2 345.08,-373.61 345.01,-380.61"/>
<text xml:space="preserve" text-anchor="middle" x="243.5" y="-331.55" font-family="Arial" font-size="11.00"> onProperty: partwhole::hasProperPart </text>
<text xml:space="preserve" text-anchor="middle" x="243.5" y="-318.05" font-family="Arial" font-size="11.00"> «only» &#160;</text>
</g>
<!-- Invis&#45;&gt;MicromobilityLink -->
<!-- MicromobilityPath -->
<g id="node5" class="node">
<title>MicromobilityPath</title>
<g id="a_node5"><a xlink:href="../_counters/transportnetwork__MicromobilityPath.md" xlink:title="&lt;TABLE&gt;">
<polygon fill="lightgray" stroke="none" points="57.38,-98.88 57.38,-115.12 154.62,-115.12 154.62,-98.88 57.38,-98.88"/>
<text xml:space="preserve" text-anchor="start" x="58.38" y="-102.72" font-family="Arial" font-size="12.00">MicromobilityPath</text>
<polygon fill="none" stroke="black" points="56.38,-97.88 56.38,-116.12 155.62,-116.12 155.62,-97.88 56.38,-97.88"/>
</a>
</g>
</g>
<!-- MicromobilityLink&#45;&gt;MicromobilityPath -->
<!-- MicromobilityPathSection -->
<g id="node6" class="node">
<title>MicromobilityPathSection</title>
<g id="a_node6"><a xlink:href="../_counters/transportnetwork__MicromobilityPathSection.md" xlink:title="&lt;TABLE&gt;">
<polygon fill="lightgray" stroke="none" points="17.12,-25.88 17.12,-42.12 154.88,-42.12 154.88,-25.88 17.12,-25.88"/>
<text xml:space="preserve" text-anchor="start" x="18.12" y="-29.73" font-family="Arial" font-size="12.00">MicromobilityPathSection</text>
<polygon fill="none" stroke="black" points="16.12,-24.88 16.12,-43.12 155.88,-43.12 155.88,-24.88 16.12,-24.88"/>
</a>
</g>
</g>
<!-- MicromobilityPath&#45;&gt;MicromobilityPathSection -->
<!-- N3d83386fc07e4cf4a00c3d82920f3104&#45;&gt;MicromobilityLink -->
<g id="edge6" class="edge">
<title>N3d83386fc07e4cf4a00c3d82920f3104&#45;&gt;MicromobilityLink</title>
<path fill="none" stroke="black" stroke-dasharray="1,5" d="M376.43,-360.21C368.49,-345.85 357.25,-324.47 349.25,-305 333.49,-266.61 352.4,-243.14 321,-216 298.4,-196.46 221.57,-187.7 166.44,-183.86"/>
<polygon fill="black" stroke="black" points="166.75,-180.37 156.54,-183.21 166.29,-187.36 166.75,-180.37"/>
<text xml:space="preserve" text-anchor="middle" x="369.12" y="-275.3" font-family="Arial" font-size="11.00">member</text>
</g>
<!-- N3d83386fc07e4cf4a00c3d82920f3104&#45;&gt;MicromobilityPath -->
<g id="edge7" class="edge">
<title>N3d83386fc07e4cf4a00c3d82920f3104&#45;&gt;MicromobilityPath</title>
<path fill="none" stroke="black" stroke-dasharray="1,5" d="M390.58,-360.09C395.99,-336.79 402.65,-293.94 389,-261 378.18,-234.87 367.25,-232.1 344,-216 288.05,-177.25 215.96,-146.83 165.85,-128.29"/>
<polygon fill="black" stroke="black" points="167.2,-125.06 156.61,-124.92 164.8,-131.63 167.2,-125.06"/>
<text xml:space="preserve" text-anchor="middle" x="398.78" y="-225.8" font-family="Arial" font-size="11.00">member</text>
</g>
<!-- N3d83386fc07e4cf4a00c3d82920f3104&#45;&gt;MicromobilityPathSection -->
<g id="edge8" class="edge">
<title>N3d83386fc07e4cf4a00c3d82920f3104&#45;&gt;MicromobilityPathSection</title>
<path fill="none" stroke="black" stroke-dasharray="1,5" d="M409.18,-360.14C430.23,-342.69 458,-313.35 458,-280 458,-280 458,-280 458,-106 458,-47.18 276.29,-35.9 166.87,-34.44"/>
<polygon fill="black" stroke="black" points="167.08,-30.94 157.05,-34.33 167.01,-37.94 167.08,-30.94"/>
<text xml:space="preserve" text-anchor="middle" x="477.88" y="-176.3" font-family="Arial" font-size="11.00">member</text>
</g>
</g>
</svg>
