<?xml version="1.0" encoding="UTF-8" standalone="no"?>
<!DOCTYPE svg PUBLIC "-//W3C//DTD SVG 1.1//EN"
 "http://www.w3.org/Graphics/SVG/1.1/DTD/svg11.dtd">
<!-- Generated by graphviz version 14.0.2 (20251019.1705)
 -->
<!-- Pages: 1 -->
<svg width="340pt" height="305pt"
 viewBox="0.00 0.00 340.00 305.00" xmlns="http://www.w3.org/2000/svg" xmlns:xlink="http://www.w3.org/1999/xlink">
<g id="graph0" class="graph" transform="scale(1 1) rotate(0) translate(4 301)">
<polygon fill="white" stroke="none" points="-4,4 -4,-301 336.37,-301 336.37,4 -4,4"/>
<g id="clust2" class="cluster">
<title>cluster_associated</title>
</g>
<!-- GroupOfLines -->
<g id="node1" class="node">
<title>GroupOfLines</title>
<g id="a_node1"><a xlink:href="../classes/transportnetwork__GroupOfLines.md" xlink:title="&lt;TABLE&gt;">
<polygon fill="lightgray" stroke="none" points="160.88,-197.88 160.88,-214.12 237.12,-214.12 237.12,-197.88 160.88,-197.88"/>
<text xml:space="preserve" text-anchor="start" x="161.88" y="-201.72" font-family="Arial" font-size="12.00">GroupOfLines</text>
<polygon fill="none" stroke="black" points="159.88,-196.88 159.88,-215.12 238.12,-215.12 238.12,-196.88 159.88,-196.88"/>
</a>
</g>
</g>
<!-- PublicTransportElement -->
<g id="node2" class="node">
<title>PublicTransportElement</title>
<g id="a_node2"><a xlink:href="../_counters/transportnetwork__PublicTransportElement.md" xlink:title="&lt;TABLE&gt;">
<polygon fill="lightgray" stroke="none" points="133.88,-270.88 133.88,-287.12 264.12,-287.12 264.12,-270.88 133.88,-270.88"/>
<text xml:space="preserve" text-anchor="start" x="134.88" y="-274.73" font-family="Arial" font-size="12.00">PublicTransportElement</text>
<polygon fill="none" stroke="black" points="132.88,-269.88 132.88,-288.12 265.12,-288.12 265.12,-269.88 132.88,-269.88"/>
</a>
</g>
</g>
<!-- GroupOfLines&#45;&gt;PublicTransportElement -->
<g id="edge1" class="edge">
<title>GroupOfLines&#45;&gt;PublicTransportElement</title>
<path fill="none" stroke="black" d="M199,-223.71C199,-231.47 199,-240.92 199,-249.74"/>
<polygon fill="none" stroke="black" points="195.5,-249.66 199,-259.66 202.5,-249.66 195.5,-249.66"/>
</g>
<!-- Invis -->
<!-- GroupOfLines&#45;&gt;Invis -->
<!-- PublicTransportLine -->
<g id="node4" class="node">
<title>PublicTransportLine</title>
<g id="a_node4"><a xlink:href="../_counters/transportnetwork__PublicTransportLine.md" xlink:title="&lt;TABLE&gt;">
<polygon fill="lightgray" stroke="none" points="25.38,-98.88 25.38,-115.12 134.62,-115.12 134.62,-98.88 25.38,-98.88"/>
<text xml:space="preserve" text-anchor="start" x="26.38" y="-102.72" font-family="Arial" font-size="12.00">PublicTransportLine</text>
<polygon fill="none" stroke="black" points="24.38,-97.88 24.38,-116.12 135.62,-116.12 135.62,-97.88 24.38,-97.88"/>
</a>
</g>
</g>
<!-- GroupOfLines&#45;&gt;PublicTransportLine -->
<g id="edge5" class="edge">
<title>GroupOfLines&#45;&gt;PublicTransportLine</title>
<path fill="none" stroke="black" d="M160.16,-189.43C158.76,-188.94 157.37,-188.46 156,-188 127.68,-178.5 111.38,-192.07 91.25,-170 82.96,-160.91 79.78,-147.83 78.82,-136.03"/>
<polygon fill="black" stroke="black" points="82.33,-136.26 78.54,-126.36 75.33,-136.46 82.33,-136.26"/>
<text xml:space="preserve" text-anchor="middle" x="156.12" y="-159.55" font-family="Arial" font-size="11.00"> partwhole::hasProperPart </text>
<text xml:space="preserve" text-anchor="middle" x="156.12" y="-146.05" font-family="Arial" font-size="11.00"> «min 1, only» &#160;</text>
</g>
<!-- PublicTransportSystem -->
<g id="node5" class="node">
<title>PublicTransportSystem</title>
<g id="a_node5"><a xlink:href="../_counters/transportnetwork__PublicTransportSystem.md" xlink:title="&lt;TABLE&gt;">
<polygon fill="lightgray" stroke="none" points="17.12,-25.88 17.12,-42.12 142.88,-42.12 142.88,-25.88 17.12,-25.88"/>
<text xml:space="preserve" text-anchor="start" x="18.12" y="-29.73" font-family="Arial" font-size="12.00">PublicTransportSystem</text>
<polygon fill="none" stroke="black" points="16.12,-24.88 16.12,-43.12 143.88,-43.12 143.88,-24.88 16.12,-24.88"/>
</a>
</g>
</g>
<!-- GroupOfLines&#45;&gt;PublicTransportSystem -->
<g id="edge6" class="edge">
<title>GroupOfLines&#45;&gt;PublicTransportSystem</title>
<path fill="none" stroke="black" d="M212.13,-188.25C220.41,-175.52 228.28,-157.75 221,-143 201.76,-104.04 160.98,-75.24 128.2,-57.23"/>
<polygon fill="black" stroke="black" points="130.13,-54.29 119.65,-52.7 126.85,-60.47 130.13,-54.29"/>
<text xml:space="preserve" text-anchor="middle" x="271.25" y="-110.05" font-family="Arial" font-size="11.00"> partwhole::properPartOf </text>
<text xml:space="preserve" text-anchor="middle" x="271.25" y="-96.55" font-family="Arial" font-size="11.00"> «only» &#160;</text>
</g>
<!-- Invis&#45;&gt;PublicTransportLine -->
<!-- PublicTransportLine&#45;&gt;PublicTransportSystem -->
</g>
</svg>
