<?xml version="1.0" encoding="UTF-8" standalone="no"?>
<!DOCTYPE svg PUBLIC "-//W3C//DTD SVG 1.1//EN"
 "http://www.w3.org/Graphics/SVG/1.1/DTD/svg11.dtd">
<!-- Generated by graphviz version 14.0.2 (20251019.1705)
 -->
<!-- Pages: 1 -->
<svg width="320pt" height="232pt"
 viewBox="0.00 0.00 320.00 232.00" xmlns="http://www.w3.org/2000/svg" xmlns:xlink="http://www.w3.org/1999/xlink">
<g id="graph0" class="graph" transform="scale(1 1) rotate(0) translate(4 228)">
<polygon fill="white" stroke="none" points="-4,4 -4,-228 316.49,-228 316.49,4 -4,4"/>
<g id="clust2" class="cluster">
<title>cluster_associated</title>
</g>
<!-- FootpathLane -->
<g id="node1" class="node">
<title>FootpathLane</title>
<g id="a_node1"><a xlink:href="../classes/transportnetwork__FootpathLane.md" xlink:title="&lt;TABLE&gt;">
<polygon fill="lightgray" stroke="none" points="132.88,-124.88 132.88,-141.12 209.12,-141.12 209.12,-124.88 132.88,-124.88"/>
<text xml:space="preserve" text-anchor="start" x="133.88" y="-128.72" font-family="Arial" font-size="12.00">FootpathLane</text>
<polygon fill="none" stroke="black" points="131.88,-123.88 131.88,-142.12 210.12,-142.12 210.12,-123.88 131.88,-123.88"/>
</a>
</g>
</g>
<!-- TravelledWayLane -->
<g id="node2" class="node">
<title>TravelledWayLane</title>
<g id="a_node2"><a xlink:href="../_counters/transportnetwork__TravelledWayLane.md" xlink:title="&lt;TABLE&gt;">
<polygon fill="lightgray" stroke="none" points="119.75,-197.88 119.75,-214.12 222.25,-214.12 222.25,-197.88 119.75,-197.88"/>
<text xml:space="preserve" text-anchor="start" x="120.75" y="-201.72" font-family="Arial" font-size="12.00">TravelledWayLane</text>
<polygon fill="none" stroke="black" points="118.75,-196.88 118.75,-215.12 223.25,-215.12 223.25,-196.88 118.75,-196.88"/>
</a>
</g>
</g>
<!-- FootpathLane&#45;&gt;TravelledWayLane -->
<g id="edge1" class="edge">
<title>FootpathLane&#45;&gt;TravelledWayLane</title>
<path fill="none" stroke="black" d="M171,-150.71C171,-158.47 171,-167.92 171,-176.74"/>
<polygon fill="none" stroke="black" points="167.5,-176.66 171,-186.66 174.5,-176.66 167.5,-176.66"/>
</g>
<!-- Invis -->
<!-- FootpathLane&#45;&gt;Invis -->
<!-- FootpathSegment -->
<g id="node4" class="node">
<title>FootpathSegment</title>
<g id="a_node4"><a xlink:href="../_counters/transportnetwork__FootpathSegment.md" xlink:title="&lt;TABLE&gt;">
<polygon fill="lightgray" stroke="none" points="17.38,-25.88 17.38,-42.12 114.62,-42.12 114.62,-25.88 17.38,-25.88"/>
<text xml:space="preserve" text-anchor="start" x="18.38" y="-29.73" font-family="Arial" font-size="12.00">FootpathSegment</text>
<polygon fill="none" stroke="black" points="16.38,-24.88 16.38,-43.12 115.62,-43.12 115.62,-24.88 16.38,-24.88"/>
</a>
</g>
</g>
<!-- FootpathLane&#45;&gt;FootpathSegment -->
<g id="edge4" class="edge">
<title>FootpathLane&#45;&gt;FootpathSegment</title>
<path fill="none" stroke="black" stroke-dasharray="5,2" d="M152.71,-115.1C136.07,-99.73 111.32,-76.86 92.51,-59.49"/>
<polygon fill="black" stroke="black" points="94.91,-56.94 85.19,-52.73 90.16,-62.09 94.91,-56.94"/>
<text xml:space="preserve" text-anchor="middle" x="221.74" y="-86.55" font-family="Arial" font-size="11.00"> onProperty: partwhole::properPartOf </text>
<text xml:space="preserve" text-anchor="middle" x="221.74" y="-73.05" font-family="Arial" font-size="11.00"> «min 1, only» &#160;</text>
</g>
<!-- Invis&#45;&gt;FootpathSegment -->
</g>
</svg>
