<?xml version="1.0" encoding="UTF-8" standalone="no"?>
<!DOCTYPE svg PUBLIC "-//W3C//DTD SVG 1.1//EN"
 "http://www.w3.org/Graphics/SVG/1.1/DTD/svg11.dtd">
<!-- Generated by graphviz version 14.0.2 (20251019.1705)
 -->
<!-- Pages: 1 -->
<svg width="1621pt" height="477pt"
 viewBox="0.00 0.00 1621.00 477.00" xmlns="http://www.w3.org/2000/svg" xmlns:xlink="http://www.w3.org/1999/xlink">
<g id="graph0" class="graph" transform="scale(1 1) rotate(0) translate(4 473)">
<polygon fill="white" stroke="none" points="-4,4 -4,-473 1616.5,-473 1616.5,4 -4,4"/>
<g id="clust2" class="cluster">
<title>cluster_associated</title>
</g>
<!-- Alert -->
<g id="node1" class="node">
<title>Alert</title>
<g id="a_node1"><a xlink:href="../_counters/transportnetwork__Alert.md" xlink:title="&lt;TABLE&gt;">
<polygon fill="lightgray" stroke="none" points="762.62,-369.88 762.62,-386.12 789.38,-386.12 789.38,-369.88 762.62,-369.88"/>
<text xml:space="preserve" text-anchor="start" x="763.62" y="-373.73" font-family="Arial" font-size="12.00">Alert</text>
<polygon fill="none" stroke="black" points="761.62,-368.88 761.62,-387.12 790.38,-387.12 790.38,-368.88 761.62,-368.88"/>
</a>
</g>
</g>
<!-- Alert&#45;&gt;Alert -->
<g id="edge20" class="edge">
<title>Alert&#45;&gt;Alert</title>
<path fill="none" stroke="black" d="M802.79,-384.83C812.78,-385.05 821,-382.78 821,-378 821,-375.24 818.25,-373.31 814.01,-372.22"/>
<polygon fill="black" stroke="black" points="814.58,-368.76 804.3,-371.31 813.93,-375.73 814.58,-368.76"/>
<text xml:space="preserve" text-anchor="middle" x="861.12" y="-381.05" font-family="Arial" font-size="11.00"> referencedAlert </text>
<text xml:space="preserve" text-anchor="middle" x="861.12" y="-367.55" font-family="Arial" font-size="11.00"> «only» &#160;</text>
</g>
<!-- ITSThing -->
<g id="node2" class="node">
<title>ITSThing</title>
<g id="a_node2"><a xlink:href="../_counters/transportnetwork__ITSThing.md" xlink:title="&lt;TABLE&gt;">
<polygon fill="lightgray" stroke="none" points="750.25,-442.88 750.25,-459.12 801.75,-459.12 801.75,-442.88 750.25,-442.88"/>
<text xml:space="preserve" text-anchor="start" x="751.25" y="-446.73" font-family="Arial" font-size="12.00">ITSThing</text>
<polygon fill="none" stroke="black" points="749.25,-441.88 749.25,-460.12 802.75,-460.12 802.75,-441.88 749.25,-441.88"/>
</a>
</g>
</g>
<!-- Alert&#45;&gt;ITSThing -->
<g id="edge1" class="edge">
<title>Alert&#45;&gt;ITSThing</title>
<path fill="none" stroke="black" d="M776,-395.71C776,-403.47 776,-412.92 776,-421.74"/>
<polygon fill="none" stroke="black" points="772.5,-421.66 776,-431.66 779.5,-421.66 772.5,-421.66"/>
</g>
<!-- Invis -->
<!-- Alert&#45;&gt;Invis -->
<!-- activity__Activity -->
<g id="node4" class="node">
<title>activity__Activity</title>
<polygon fill="lightgray" stroke="none" points="17.5,-270.88 17.5,-287.12 100.5,-287.12 100.5,-270.88 17.5,-270.88"/>
<text xml:space="preserve" text-anchor="start" x="18.5" y="-274.73" font-family="Arial" font-size="12.00">activity::Activity</text>
<polygon fill="none" stroke="black" points="16.5,-269.88 16.5,-288.12 101.5,-288.12 101.5,-269.88 16.5,-269.88"/>
</g>
<!-- Alert&#45;&gt;activity__Activity -->
<g id="edge7" class="edge">
<title>Alert&#45;&gt;activity__Activity</title>
<path fill="none" stroke="black" d="M749.35,-376.52C624.73,-374.17 104.39,-363.11 77.5,-342 67.25,-333.96 62.5,-320.48 60.35,-308.15"/>
<polygon fill="black" stroke="black" points="63.85,-307.9 59.19,-298.38 56.9,-308.73 63.85,-307.9"/>
<text xml:space="preserve" text-anchor="middle" x="100.75" y="-331.55" font-family="Arial" font-size="11.00"> activities </text>
<text xml:space="preserve" text-anchor="middle" x="100.75" y="-318.05" font-family="Arial" font-size="11.00"> «only» &#160;</text>
</g>
<!-- code__Code -->
<g id="node5" class="node">
<title>code__Code</title>
<polygon fill="lightgray" stroke="none" points="37.25,-171.88 37.25,-188.12 100.75,-188.12 100.75,-171.88 37.25,-171.88"/>
<text xml:space="preserve" text-anchor="start" x="38.25" y="-175.72" font-family="Arial" font-size="12.00">code::Code</text>
<polygon fill="none" stroke="black" points="36.25,-170.88 36.25,-189.12 101.75,-189.12 101.75,-170.88 36.25,-170.88"/>
</g>
<!-- Alert&#45;&gt;code__Code -->
<g id="edge9" class="edge">
<title>Alert&#45;&gt;code__Code</title>
<path fill="none" stroke="black" d="M749.1,-376.52C655.59,-374.65 345.14,-366.69 249,-342 203.16,-330.23 188.95,-327.18 152.5,-297 122.1,-271.82 97.24,-233.14 82.77,-207.46"/>
<polygon fill="black" stroke="black" points="86,-206.07 78.12,-198.99 79.86,-209.44 86,-206.07"/>
<text xml:space="preserve" text-anchor="middle" x="196.75" y="-282.05" font-family="Arial" font-size="11.00"> category </text>
<text xml:space="preserve" text-anchor="middle" x="196.75" y="-268.55" font-family="Arial" font-size="11.00"> «exactly 1, only» &#160;</text>
</g>
<!-- Alert&#45;&gt;code__Code -->
<g id="edge10" class="edge">
<title>Alert&#45;&gt;code__Code</title>
<path fill="none" stroke="black" d="M749.25,-377.2C664.43,-377.49 402.62,-375.56 326,-342 278.2,-321.06 283.86,-290.76 241,-261 200.43,-232.83 148.36,-210.21 112.19,-196.3"/>
<polygon fill="black" stroke="black" points="113.51,-193.06 102.92,-192.8 111.04,-199.61 113.51,-193.06"/>
<text xml:space="preserve" text-anchor="middle" x="295.92" y="-282.05" font-family="Arial" font-size="11.00"> cause </text>
<text xml:space="preserve" text-anchor="middle" x="295.92" y="-268.55" font-family="Arial" font-size="11.00"> «only» &#160;</text>
</g>
<!-- Alert&#45;&gt;code__Code -->
<g id="edge11" class="edge">
<title>Alert&#45;&gt;code__Code</title>
<path fill="none" stroke="black" d="M749.01,-377.71C690.79,-378.48 549.66,-376.31 438,-342 397.61,-329.59 388.21,-322.15 354.25,-297 336,-283.49 337.08,-273.31 318,-261 270.84,-230.56 253.41,-233.27 200,-216 171.12,-206.66 138.11,-197.85 112.45,-191.41"/>
<polygon fill="black" stroke="black" points="113.59,-188.09 103.04,-189.07 111.9,-194.88 113.59,-188.09"/>
<text xml:space="preserve" text-anchor="middle" x="392.12" y="-282.05" font-family="Arial" font-size="11.00"> certainty </text>
<text xml:space="preserve" text-anchor="middle" x="392.12" y="-268.55" font-family="Arial" font-size="11.00"> «max 1, only» &#160;</text>
</g>
<!-- Alert&#45;&gt;code__Code -->
<g id="edge13" class="edge">
<title>Alert&#45;&gt;code__Code</title>
<path fill="none" stroke="black" d="M749.23,-374.96C708.33,-371.33 628.17,-362.13 563,-342 517.79,-328.03 505.36,-324.01 466.5,-297 447.79,-284 449.81,-272.25 430,-261 360.92,-221.77 334.55,-233.28 257,-216 207.96,-205.07 151.2,-194.83 112.98,-188.29"/>
<polygon fill="black" stroke="black" points="113.68,-184.86 103.24,-186.63 112.51,-191.76 113.68,-184.86"/>
<text xml:space="preserve" text-anchor="middle" x="510.75" y="-282.05" font-family="Arial" font-size="11.00"> distribution </text>
<text xml:space="preserve" text-anchor="middle" x="510.75" y="-268.55" font-family="Arial" font-size="11.00"> «exactly 1, only» &#160;</text>
</g>
<!-- Alert&#45;&gt;code__Code -->
<g id="edge14" class="edge">
<title>Alert&#45;&gt;code__Code</title>
<path fill="none" stroke="black" d="M749,-374.04C720.48,-370.03 674.88,-361.05 640,-342 614.19,-327.9 612.75,-317.33 591.5,-297 575.04,-281.25 575.08,-271.76 555,-261 468.57,-214.68 435.69,-232.32 339,-216 259.54,-202.59 166.16,-191.52 112.65,-185.62"/>
<polygon fill="black" stroke="black" points="113.36,-182.18 103.04,-184.57 112.6,-189.13 113.36,-182.18"/>
<text xml:space="preserve" text-anchor="middle" x="611.75" y="-282.05" font-family="Arial" font-size="11.00"> effect </text>
<text xml:space="preserve" text-anchor="middle" x="611.75" y="-268.55" font-family="Arial" font-size="11.00"> «only» &#160;</text>
</g>
<!-- Alert&#45;&gt;code__Code -->
<g id="edge19" class="edge">
<title>Alert&#45;&gt;code__Code</title>
<path fill="none" stroke="black" d="M751.11,-360.23C728.62,-344.7 694.98,-320.53 667.75,-297 650.69,-282.26 651.68,-272.01 632,-261 542.77,-211.07 229.35,-189.57 112.95,-183.17"/>
<polygon fill="black" stroke="black" points="113.36,-179.69 103.19,-182.65 112.98,-186.68 113.36,-179.69"/>
<text xml:space="preserve" text-anchor="middle" x="710.88" y="-282.05" font-family="Arial" font-size="11.00"> recommendation </text>
<text xml:space="preserve" text-anchor="middle" x="710.88" y="-268.55" font-family="Arial" font-size="11.00"> «only» &#160;</text>
</g>
<!-- Alert&#45;&gt;code__Code -->
<g id="edge21" class="edge">
<title>Alert&#45;&gt;code__Code</title>
<path fill="none" stroke="black" d="M778.1,-360.19C780.24,-335.01 780.15,-287.6 754,-261 708.89,-215.12 256.57,-189.88 112.7,-182.97"/>
<polygon fill="black" stroke="black" points="112.98,-179.48 102.82,-182.5 112.65,-186.47 112.98,-179.48"/>
<text xml:space="preserve" text-anchor="middle" x="811.08" y="-282.05" font-family="Arial" font-size="11.00"> severity </text>
<text xml:space="preserve" text-anchor="middle" x="811.08" y="-268.55" font-family="Arial" font-size="11.00"> «max 1, only» &#160;</text>
</g>
<!-- Alert&#45;&gt;code__Code -->
<g id="edge22" class="edge">
<title>Alert&#45;&gt;code__Code</title>
<path fill="none" stroke="black" d="M801.39,-360.02C832.97,-336.81 879.69,-294.29 853,-261 806.35,-202.81 270.41,-185.71 112.52,-181.92"/>
<polygon fill="black" stroke="black" points="112.98,-178.43 102.9,-181.69 112.82,-185.43 112.98,-178.43"/>
<text xml:space="preserve" text-anchor="middle" x="905.17" y="-282.05" font-family="Arial" font-size="11.00"> status </text>
<text xml:space="preserve" text-anchor="middle" x="905.17" y="-268.55" font-family="Arial" font-size="11.00"> «exactly 1, only» &#160;</text>
</g>
<!-- Alert&#45;&gt;code__Code -->
<g id="edge23" class="edge">
<title>Alert&#45;&gt;code__Code</title>
<path fill="none" stroke="black" d="M802.89,-371.37C862.88,-357.6 998.89,-319.1 953,-261 900.42,-194.43 284.23,-183.19 112.94,-181.35"/>
<polygon fill="black" stroke="black" points="113.16,-177.85 103.13,-181.25 113.09,-184.85 113.16,-177.85"/>
<text xml:space="preserve" text-anchor="middle" x="1000.16" y="-282.05" font-family="Arial" font-size="11.00"> urgency </text>
<text xml:space="preserve" text-anchor="middle" x="1000.16" y="-268.55" font-family="Arial" font-size="11.00"> «max 1, only» &#160;</text>
</g>
<!-- geo__Geometry -->
<g id="node6" class="node">
<title>geo__Geometry</title>
<polygon fill="lightgray" stroke="none" points="21,-98.88 21,-115.12 101,-115.12 101,-98.88 21,-98.88"/>
<text xml:space="preserve" text-anchor="start" x="22" y="-102.72" font-family="Arial" font-size="12.00">geo::Geometry</text>
<polygon fill="none" stroke="black" points="20,-97.88 20,-116.12 102,-116.12 102,-97.88 20,-97.88"/>
</g>
<!-- Alert&#45;&gt;geo__Geometry -->
<g id="edge18" class="edge">
<title>Alert&#45;&gt;geo__Geometry</title>
<path fill="none" stroke="black" d="M802.93,-375.37C882.53,-369.57 1107.13,-345.49 1042,-261 927.57,-112.56 299.68,-105.91 113.22,-107.27"/>
<polygon fill="black" stroke="black" points="113.33,-103.77 103.36,-107.35 113.39,-110.76 113.33,-103.77"/>
<text xml:space="preserve" text-anchor="middle" x="1044.76" y="-232.55" font-family="Arial" font-size="11.00"> location </text>
<text xml:space="preserve" text-anchor="middle" x="1044.76" y="-219.05" font-family="Arial" font-size="11.00"> «only» &#160;</text>
</g>
<!-- time__Instant -->
<g id="node7" class="node">
<title>time__Instant</title>
<polygon fill="lightgray" stroke="none" points="35.12,-25.88 35.12,-42.12 100.88,-42.12 100.88,-25.88 35.12,-25.88"/>
<text xml:space="preserve" text-anchor="start" x="36.12" y="-29.73" font-family="Arial" font-size="12.00">time::Instant</text>
<polygon fill="none" stroke="black" points="34.12,-24.88 34.12,-43.12 101.88,-43.12 101.88,-24.88 34.12,-24.88"/>
</g>
<!-- Alert&#45;&gt;time__Instant -->
<g id="edge8" class="edge">
<title>Alert&#45;&gt;time__Instant</title>
<path fill="none" stroke="black" d="M802.8,-376.09C860.46,-373.7 994.17,-365.68 1032,-342 1081.58,-310.96 1104.5,-263.24 1070,-216 954.91,-58.4 293.02,-38.01 113.12,-35.39"/>
<polygon fill="black" stroke="black" points="113.3,-31.89 103.25,-35.25 113.2,-38.89 113.3,-31.89"/>
<text xml:space="preserve" text-anchor="middle" x="1091.07" y="-183.05" font-family="Arial" font-size="11.00"> beginTime </text>
<text xml:space="preserve" text-anchor="middle" x="1091.07" y="-169.55" font-family="Arial" font-size="11.00"> «max 1, only» &#160;</text>
</g>
<!-- Alert&#45;&gt;time__Instant -->
<g id="edge12" class="edge">
<title>Alert&#45;&gt;time__Instant</title>
<path fill="none" stroke="black" d="M802.72,-376.53C894.76,-374.21 1193,-360.46 1193,-280 1193,-280 1193,-280 1193,-106 1193,-50.93 322.96,-37.81 113.13,-35.45"/>
<polygon fill="black" stroke="black" points="113.22,-31.95 103.18,-35.34 113.14,-38.95 113.22,-31.95"/>
<text xml:space="preserve" text-anchor="middle" x="1237.25" y="-183.05" font-family="Arial" font-size="11.00"> creationTime </text>
<text xml:space="preserve" text-anchor="middle" x="1237.25" y="-169.55" font-family="Arial" font-size="11.00"> «exactly 1, only» &#160;</text>
</g>
<!-- Alert&#45;&gt;time__Instant -->
<g id="edge15" class="edge">
<title>Alert&#45;&gt;time__Instant</title>
<path fill="none" stroke="black" d="M802.9,-376.95C865.26,-376.3 1024.24,-371.61 1153,-342 1229.35,-324.45 1318,-358.34 1318,-280 1318,-280 1318,-280 1318,-106 1318,-44.37 336.75,-36.21 113.03,-35.16"/>
<polygon fill="black" stroke="black" points="113.29,-31.66 103.27,-35.11 113.26,-38.66 113.29,-31.66"/>
<text xml:space="preserve" text-anchor="middle" x="1355.88" y="-183.05" font-family="Arial" font-size="11.00"> endTime </text>
<text xml:space="preserve" text-anchor="middle" x="1355.88" y="-169.55" font-family="Arial" font-size="11.00"> «max 1, only» &#160;</text>
</g>
<!-- Alert&#45;&gt;time__Instant -->
<g id="edge16" class="edge">
<title>Alert&#45;&gt;time__Instant</title>
<path fill="none" stroke="black" d="M802.96,-377.3C875.2,-377.59 1078.84,-375.17 1244,-342 1329.43,-324.84 1430,-367.14 1430,-280 1430,-280 1430,-280 1430,-106 1430,-38.47 348.24,-34.92 112.86,-34.94"/>
<polygon fill="black" stroke="black" points="113.18,-31.44 103.18,-34.94 113.18,-38.44 113.18,-31.44"/>
<text xml:space="preserve" text-anchor="middle" x="1458.88" y="-183.05" font-family="Arial" font-size="11.00"> expiryTime </text>
<text xml:space="preserve" text-anchor="middle" x="1458.88" y="-169.55" font-family="Arial" font-size="11.00"> «only» &#160;</text>
</g>
<!-- Alert&#45;&gt;time__Instant -->
<g id="edge17" class="edge">
<title>Alert&#45;&gt;time__Instant</title>
<path fill="none" stroke="black" d="M802.95,-376.32C901.21,-373.7 1240.05,-363.28 1346,-342 1428.13,-325.5 1524,-363.77 1524,-280 1524,-280 1524,-280 1524,-106 1524,-33.56 358.93,-33.91 113.17,-34.79"/>
<polygon fill="black" stroke="black" points="113.35,-31.28 103.36,-34.82 113.37,-38.28 113.35,-31.28"/>
<text xml:space="preserve" text-anchor="middle" x="1568.25" y="-183.05" font-family="Arial" font-size="11.00"> lastUpdateTime </text>
<text xml:space="preserve" text-anchor="middle" x="1568.25" y="-169.55" font-family="Arial" font-size="11.00"> «exactly 1, only» &#160;</text>
</g>
<!-- Invis&#45;&gt;activity__Activity -->
<!-- activity__Activity&#45;&gt;code__Code -->
<!-- code__Code&#45;&gt;geo__Geometry -->
<!-- geo__Geometry&#45;&gt;time__Instant -->
</g>
</svg>
