<?xml version="1.0" encoding="UTF-8" standalone="no"?>
<!DOCTYPE svg PUBLIC "-//W3C//DTD SVG 1.1//EN"
 "http://www.w3.org/Graphics/SVG/1.1/DTD/svg11.dtd">
<!-- Generated by graphviz version 14.0.2 (20251019.1705)
 -->
<!-- Pages: 1 -->
<svg width="339pt" height="258pt"
 viewBox="0.00 0.00 339.00 258.00" xmlns="http://www.w3.org/2000/svg" xmlns:xlink="http://www.w3.org/1999/xlink">
<g id="graph0" class="graph" transform="scale(1 1) rotate(0) translate(4 254)">
<polygon fill="white" stroke="none" points="-4,4 -4,-254 335.2,-254 335.2,4 -4,4"/>
<g id="clust2" class="cluster">
<title>cluster_associated</title>
</g>
<!-- TravelCorridorSegment -->
<g id="node1" class="node">
<title>TravelCorridorSegment</title>
<g id="a_node1"><a xlink:href="../classes/transportnetwork__TravelCorridorSegment.md" xlink:title="&lt;TABLE&gt;">
<polygon fill="lightgray" stroke="none" points="136.75,-124.88 136.75,-141.12 263.25,-141.12 263.25,-124.88 136.75,-124.88"/>
<text xml:space="preserve" text-anchor="start" x="137.75" y="-128.72" font-family="Arial" font-size="12.00">TravelCorridorSegment</text>
<polygon fill="none" stroke="black" points="135.75,-123.88 135.75,-142.12 264.25,-142.12 264.25,-123.88 135.75,-123.88"/>
</a>
</g>
</g>
<!-- TravelledWaySegment -->
<g id="node2" class="node">
<title>TravelledWaySegment</title>
<g id="a_node2"><a xlink:href="../_counters/transportnetwork__TravelledWaySegment.md" xlink:title="&lt;TABLE&gt;">
<polygon fill="lightgray" stroke="none" points="137.25,-223.88 137.25,-240.12 260.75,-240.12 260.75,-223.88 137.25,-223.88"/>
<text xml:space="preserve" text-anchor="start" x="138.25" y="-227.72" font-family="Arial" font-size="12.00">TravelledWaySegment</text>
<polygon fill="none" stroke="black" points="136.25,-222.88 136.25,-241.12 261.75,-241.12 261.75,-222.88 136.25,-222.88"/>
</a>
</g>
</g>
<!-- TravelCorridorSegment&#45;&gt;TravelledWaySegment -->
<g id="edge1" class="edge">
<title>TravelCorridorSegment&#45;&gt;TravelledWaySegment</title>
<path fill="none" stroke="black" d="M198.27,-150.72C197.75,-156.5 197.26,-163.03 197,-169 196.53,-180.1 196.76,-192.32 197.2,-202.96"/>
<polygon fill="none" stroke="black" points="193.69,-202.83 197.7,-212.64 200.68,-202.48 193.69,-202.83"/>
</g>
<!-- TravelCorridorSegment&#45;&gt;TravelledWaySegment -->
<g id="edge4" class="edge">
<title>TravelCorridorSegment&#45;&gt;TravelledWaySegment</title>
<path fill="none" stroke="black" d="M199.83,-150.7C199.68,-164.97 199.47,-185.8 199.29,-202.67"/>
<polygon fill="black" stroke="black" points="195.79,-202.55 199.19,-212.59 202.79,-202.63 195.79,-202.55"/>
<text xml:space="preserve" text-anchor="middle" x="240.87" y="-185.55" font-family="Arial" font-size="11.00"> corridorElement </text>
<text xml:space="preserve" text-anchor="middle" x="240.87" y="-172.05" font-family="Arial" font-size="11.00"> «min 1, only» &#160;</text>
</g>
<!-- Invis -->
<!-- TravelCorridorSegment&#45;&gt;Invis -->
<!-- TravelCorridorLink -->
<g id="node4" class="node">
<title>TravelCorridorLink</title>
<g id="a_node4"><a xlink:href="../_counters/transportnetwork__TravelCorridorLink.md" xlink:title="&lt;TABLE&gt;">
<polygon fill="lightgray" stroke="none" points="17.5,-25.88 17.5,-42.12 118.5,-42.12 118.5,-25.88 17.5,-25.88"/>
<text xml:space="preserve" text-anchor="start" x="18.5" y="-29.73" font-family="Arial" font-size="12.00">TravelCorridorLink</text>
<polygon fill="none" stroke="black" points="16.5,-24.88 16.5,-43.12 119.5,-43.12 119.5,-24.88 16.5,-24.88"/>
</a>
</g>
</g>
<!-- TravelCorridorSegment&#45;&gt;TravelCorridorLink -->
<g id="edge5" class="edge">
<title>TravelCorridorSegment&#45;&gt;TravelCorridorLink</title>
<path fill="none" stroke="black" stroke-dasharray="5,2" d="M177.01,-115.1C155.62,-99.39 123.56,-75.83 99.74,-58.32"/>
<polygon fill="black" stroke="black" points="102.08,-55.7 91.95,-52.6 97.93,-61.34 102.08,-55.7"/>
<text xml:space="preserve" text-anchor="middle" x="240.45" y="-86.55" font-family="Arial" font-size="11.00"> onProperty: partwhole::properPartOf </text>
<text xml:space="preserve" text-anchor="middle" x="240.45" y="-73.05" font-family="Arial" font-size="11.00"> «only» &#160;</text>
</g>
<!-- Invis&#45;&gt;TravelCorridorLink -->
</g>
</svg>
