<?xml version="1.0" encoding="UTF-8" standalone="no"?>
<!DOCTYPE svg PUBLIC "-//W3C//DTD SVG 1.1//EN"
 "http://www.w3.org/Graphics/SVG/1.1/DTD/svg11.dtd">
<!-- Generated by graphviz version 14.0.2 (20251019.1705)
 -->
<!-- Pages: 1 -->
<svg width="641pt" height="518pt"
 viewBox="0.00 0.00 641.00 518.00" xmlns="http://www.w3.org/2000/svg" xmlns:xlink="http://www.w3.org/1999/xlink">
<g id="graph0" class="graph" transform="scale(1 1) rotate(0) translate(4 513.75)">
<polygon fill="white" stroke="none" points="-4,4 -4,-513.75 636.75,-513.75 636.75,4 -4,4"/>
<g id="clust2" class="cluster">
<title>cluster_associated</title>
</g>
<!-- RoadSegment -->
<g id="node1" class="node">
<title>RoadSegment</title>
<g id="a_node1"><a xlink:href="../classes/transportnetwork__RoadSegment.md" xlink:title="&lt;TABLE&gt;">
<polygon fill="lightgray" stroke="none" points="106.88,-393.5 106.88,-409.75 393.12,-409.75 393.12,-393.5 106.88,-393.5"/>
<text xml:space="preserve" text-anchor="start" x="211.38" y="-397.35" font-family="Arial" font-size="12.00">RoadSegment</text>
<text xml:space="preserve" text-anchor="start" x="107.88" y="-381.1" font-family="Arial" font-size="12.00">numLanes: xsd::nonNegativeInteger «exactly 1, only»</text>
<text xml:space="preserve" text-anchor="start" x="107.88" y="-364.85" font-family="Arial" font-size="12.00">width: xsd::nonNegativeInteger «exactly 1, only»</text>
<polygon fill="none" stroke="black" points="105.88,-360 105.88,-410.75 394.12,-410.75 394.12,-360 105.88,-360"/>
</a>
</g>
</g>
<!-- transinfras__RoadSegment -->
<g id="node2" class="node">
<title>transinfras__RoadSegment</title>
<polygon fill="lightgray" stroke="none" points="33.62,-483.62 33.62,-499.88 174.38,-499.88 174.38,-483.62 33.62,-483.62"/>
<text xml:space="preserve" text-anchor="start" x="34.62" y="-487.48" font-family="Arial" font-size="12.00">transinfras::RoadSegment</text>
<polygon fill="none" stroke="black" points="32.62,-482.62 32.62,-500.88 175.38,-500.88 175.38,-482.62 32.62,-482.62"/>
</g>
<!-- RoadSegment&#45;&gt;transinfras__RoadSegment -->
<g id="edge1" class="edge">
<title>RoadSegment&#45;&gt;transinfras__RoadSegment</title>
<path fill="none" stroke="black" d="M215.99,-410.69C192.09,-427.77 160.31,-450.5 136.7,-467.37"/>
<polygon fill="none" stroke="black" points="134.79,-464.44 128.69,-473.1 138.86,-470.13 134.79,-464.44"/>
</g>
<!-- TravelledWaySegment -->
<g id="node3" class="node">
<title>TravelledWaySegment</title>
<g id="a_node3"><a xlink:href="../_counters/transportnetwork__TravelledWaySegment.md" xlink:title="&lt;TABLE&gt;">
<polygon fill="lightgray" stroke="none" points="194.25,-483.62 194.25,-499.88 317.75,-499.88 317.75,-483.62 194.25,-483.62"/>
<text xml:space="preserve" text-anchor="start" x="195.25" y="-487.48" font-family="Arial" font-size="12.00">TravelledWaySegment</text>
<polygon fill="none" stroke="black" points="193.25,-482.62 193.25,-500.88 318.75,-500.88 318.75,-482.62 193.25,-482.62"/>
</a>
</g>
</g>
<!-- RoadSegment&#45;&gt;TravelledWaySegment -->
<g id="edge2" class="edge">
<title>RoadSegment&#45;&gt;TravelledWaySegment</title>
<path fill="none" stroke="black" d="M251.39,-410.49C252.29,-426.15 253.46,-446.6 254.4,-462.94"/>
<polygon fill="none" stroke="black" points="250.88,-462.69 254.95,-472.47 257.87,-462.28 250.88,-462.69"/>
</g>
<!-- Invis -->
<!-- RoadSegment&#45;&gt;Invis -->
<!-- code__Code -->
<g id="node5" class="node">
<title>code__Code</title>
<polygon fill="lightgray" stroke="none" points="17.25,-270.88 17.25,-287.12 80.75,-287.12 80.75,-270.88 17.25,-270.88"/>
<text xml:space="preserve" text-anchor="start" x="18.25" y="-274.73" font-family="Arial" font-size="12.00">code::Code</text>
<polygon fill="none" stroke="black" points="16.25,-269.88 16.25,-288.12 81.75,-288.12 81.75,-269.88 16.25,-269.88"/>
</g>
<!-- RoadSegment&#45;&gt;code__Code -->
<g id="edge8" class="edge">
<title>RoadSegment&#45;&gt;code__Code</title>
<path fill="none" stroke="black" d="M105.99,-360.16C77.68,-354.06 55.18,-347.64 50.5,-342 42.81,-332.74 41.55,-319.75 42.57,-308.05"/>
<polygon fill="black" stroke="black" points="45.99,-308.87 43.98,-298.47 39.06,-307.85 45.99,-308.87"/>
<text xml:space="preserve" text-anchor="middle" x="88.75" y="-331.55" font-family="Arial" font-size="11.00"> pavementType </text>
<text xml:space="preserve" text-anchor="middle" x="88.75" y="-318.05" font-family="Arial" font-size="11.00"> «max 1, only» &#160;</text>
</g>
<!-- RoadLane -->
<g id="node6" class="node">
<title>RoadLane</title>
<g id="a_node6"><a xlink:href="../_counters/transportnetwork__RoadLane.md" xlink:title="&lt;TABLE&gt;">
<polygon fill="lightgray" stroke="none" points="30.88,-171.88 30.88,-188.12 89.12,-188.12 89.12,-171.88 30.88,-171.88"/>
<text xml:space="preserve" text-anchor="start" x="31.88" y="-175.72" font-family="Arial" font-size="12.00">RoadLane</text>
<polygon fill="none" stroke="black" points="29.88,-170.88 29.88,-189.12 90.12,-189.12 90.12,-170.88 29.88,-170.88"/>
</a>
</g>
</g>
<!-- RoadSegment&#45;&gt;RoadLane -->
<g id="edge9" class="edge">
<title>RoadSegment&#45;&gt;RoadLane</title>
<path fill="none" stroke="black" stroke-dasharray="5,2" d="M209.81,-360.15C185.46,-344.2 154.8,-321.75 132,-297 106.96,-269.82 85.71,-232.71 72.93,-207.86"/>
<polygon fill="black" stroke="black" points="76.12,-206.42 68.5,-199.05 69.86,-209.56 76.12,-206.42"/>
<text xml:space="preserve" text-anchor="middle" x="226.5" y="-282.05" font-family="Arial" font-size="11.00"> onProperty: partwhole::hasProperPart </text>
<text xml:space="preserve" text-anchor="middle" x="226.5" y="-268.55" font-family="Arial" font-size="11.00"> «min 1, only» &#160;</text>
</g>
<!-- RoadLink -->
<g id="node7" class="node">
<title>RoadLink</title>
<g id="a_node7"><a xlink:href="../_counters/transportnetwork__RoadLink.md" xlink:title="&lt;TABLE&gt;">
<polygon fill="lightgray" stroke="none" points="35.12,-98.88 35.12,-115.12 88.88,-115.12 88.88,-98.88 35.12,-98.88"/>
<text xml:space="preserve" text-anchor="start" x="36.12" y="-102.72" font-family="Arial" font-size="12.00">RoadLink</text>
<polygon fill="none" stroke="black" points="34.12,-97.88 34.12,-116.12 89.88,-116.12 89.88,-97.88 34.12,-97.88"/>
</a>
</g>
</g>
<!-- RoadSegment&#45;&gt;RoadLink -->
<g id="edge13" class="edge">
<title>RoadSegment&#45;&gt;RoadLink</title>
<path fill="none" stroke="black" stroke-dasharray="5,2" d="M280.48,-360.06C307.76,-335.2 340.66,-295.45 321,-261 273.33,-177.48 160.24,-134.95 100.51,-117.66"/>
<polygon fill="black" stroke="black" points="101.68,-114.35 91.11,-115.03 99.8,-121.09 101.68,-114.35"/>
<text xml:space="preserve" text-anchor="middle" x="399.99" y="-232.55" font-family="Arial" font-size="11.00"> onProperty: partwhole::properPartOf </text>
<text xml:space="preserve" text-anchor="middle" x="399.99" y="-219.05" font-family="Arial" font-size="11.00"> «exactly 1» &#160;</text>
</g>
<!-- N379a62d5f98f4442a803dfa6e198d726 -->
<g id="node9" class="node">
<title>N379a62d5f98f4442a803dfa6e198d726</title>
<polygon fill="lightyellow" stroke="none" points="495.25,-482.62 495.25,-500.88 554.75,-500.88 554.75,-482.62 495.25,-482.62"/>
<text xml:space="preserve" text-anchor="start" x="497.25" y="-487.48" font-family="Arial" font-size="12.00">«unionOf»</text>
<polygon fill="none" stroke="black" points="495.25,-482.62 495.25,-500.88 554.75,-500.88 554.75,-482.62 495.25,-482.62"/>
</g>
<!-- RoadSegment&#45;&gt;N379a62d5f98f4442a803dfa6e198d726 -->
<g id="edge12" class="edge">
<title>RoadSegment&#45;&gt;N379a62d5f98f4442a803dfa6e198d726</title>
<path fill="none" stroke="black" stroke-dasharray="5,2" d="M271.22,-410.71C286.01,-426.07 307.04,-444.97 329.5,-455.75 379.16,-479.57 442.96,-487.29 483.92,-489.73"/>
<polygon fill="black" stroke="black" points="483.67,-493.22 493.84,-490.23 484.03,-486.23 483.67,-493.22"/>
<text xml:space="preserve" text-anchor="middle" x="420.25" y="-445.3" font-family="Arial" font-size="11.00"> onProperty: partwhole::properPartOf </text>
<text xml:space="preserve" text-anchor="middle" x="420.25" y="-431.8" font-family="Arial" font-size="11.00"> «only» &#160;</text>
</g>
<!-- Invis&#45;&gt;code__Code -->
<!-- code__Code&#45;&gt;RoadLane -->
<!-- RoadLane&#45;&gt;RoadLink -->
<!-- RoadSection -->
<g id="node8" class="node">
<title>RoadSection</title>
<g id="a_node8"><a xlink:href="../_counters/transportnetwork__RoadSection.md" xlink:title="&lt;TABLE&gt;">
<polygon fill="lightgray" stroke="none" points="17.12,-25.88 17.12,-42.12 88.88,-42.12 88.88,-25.88 17.12,-25.88"/>
<text xml:space="preserve" text-anchor="start" x="18.12" y="-29.73" font-family="Arial" font-size="12.00">RoadSection</text>
<polygon fill="none" stroke="black" points="16.12,-24.88 16.12,-43.12 89.88,-43.12 89.88,-24.88 16.12,-24.88"/>
</a>
</g>
</g>
<!-- RoadLink&#45;&gt;RoadSection -->
<!-- N379a62d5f98f4442a803dfa6e198d726&#45;&gt;RoadLink -->
<g id="edge10" class="edge">
<title>N379a62d5f98f4442a803dfa6e198d726&#45;&gt;RoadLink</title>
<path fill="none" stroke="black" stroke-dasharray="1,5" d="M525,-473.76C525,-453.1 525,-417.18 525,-386.38 525,-386.38 525,-386.38 525,-179 525,-136.24 212.44,-115.81 100.94,-109.89"/>
<polygon fill="black" stroke="black" points="101.26,-106.4 91.09,-109.38 100.89,-113.39 101.26,-106.4"/>
<text xml:space="preserve" text-anchor="middle" x="544.88" y="-275.3" font-family="Arial" font-size="11.00">member</text>
</g>
<!-- N379a62d5f98f4442a803dfa6e198d726&#45;&gt;RoadSection -->
<g id="edge11" class="edge">
<title>N379a62d5f98f4442a803dfa6e198d726&#45;&gt;RoadSection</title>
<path fill="none" stroke="black" stroke-dasharray="1,5" d="M544.67,-474.09C564.75,-455.1 593,-422.06 593,-386.38 593,-386.38 593,-386.38 593,-106 593,-56.61 233.27,-40.54 101.03,-36.31"/>
<polygon fill="black" stroke="black" points="101.31,-32.82 91.2,-36 101.09,-39.81 101.31,-32.82"/>
<text xml:space="preserve" text-anchor="middle" x="612.88" y="-225.8" font-family="Arial" font-size="11.00">member</text>
</g>
</g>
</svg>
