<?xml version="1.0" encoding="UTF-8" standalone="no"?>
<!DOCTYPE svg PUBLIC "-//W3C//DTD SVG 1.1//EN"
 "http://www.w3.org/Graphics/SVG/1.1/DTD/svg11.dtd">
<!-- Generated by graphviz version 14.0.2 (20251019.1705)
 -->
<!-- Pages: 1 -->
<svg width="409pt" height="477pt"
 viewBox="0.00 0.00 409.00 477.00" xmlns="http://www.w3.org/2000/svg" xmlns:xlink="http://www.w3.org/1999/xlink">
<g id="graph0" class="graph" transform="scale(1 1) rotate(0) translate(4 473)">
<polygon fill="white" stroke="none" points="-4,4 -4,-473 404.5,-473 404.5,4 -4,4"/>
<g id="clust2" class="cluster">
<title>cluster_associated</title>
</g>
<!-- RoadLinkUserType -->
<g id="node1" class="node">
<title>RoadLinkUserType</title>
<g id="a_node1"><a xlink:href="../classes/transportnetwork__RoadLinkUserType.md" xlink:title="&lt;TABLE&gt;">
<polygon fill="lightgray" stroke="none" points="133.25,-369.88 133.25,-386.12 238.75,-386.12 238.75,-369.88 133.25,-369.88"/>
<text xml:space="preserve" text-anchor="start" x="134.25" y="-373.73" font-family="Arial" font-size="12.00">RoadLinkUserType</text>
<polygon fill="none" stroke="black" points="132.25,-368.88 132.25,-387.12 239.75,-387.12 239.75,-368.88 132.25,-368.88"/>
</a>
</g>
</g>
<!-- ITSThing -->
<g id="node2" class="node">
<title>ITSThing</title>
<g id="a_node2"><a xlink:href="../_counters/transportnetwork__ITSThing.md" xlink:title="&lt;TABLE&gt;">
<polygon fill="lightgray" stroke="none" points="160.25,-442.88 160.25,-459.12 211.75,-459.12 211.75,-442.88 160.25,-442.88"/>
<text xml:space="preserve" text-anchor="start" x="161.25" y="-446.73" font-family="Arial" font-size="12.00">ITSThing</text>
<polygon fill="none" stroke="black" points="159.25,-441.88 159.25,-460.12 212.75,-460.12 212.75,-441.88 159.25,-441.88"/>
</a>
</g>
</g>
<!-- RoadLinkUserType&#45;&gt;ITSThing -->
<g id="edge1" class="edge">
<title>RoadLinkUserType&#45;&gt;ITSThing</title>
<path fill="none" stroke="black" d="M186,-395.71C186,-403.47 186,-412.92 186,-421.74"/>
<polygon fill="none" stroke="black" points="182.5,-421.66 186,-431.66 189.5,-421.66 182.5,-421.66"/>
</g>
<!-- Invis -->
<!-- RoadLinkUserType&#45;&gt;Invis -->
<!-- cityunits__Duration -->
<g id="node4" class="node">
<title>cityunits__Duration</title>
<polygon fill="lightgray" stroke="none" points="17.38,-270.88 17.38,-287.12 114.62,-287.12 114.62,-270.88 17.38,-270.88"/>
<text xml:space="preserve" text-anchor="start" x="18.38" y="-274.73" font-family="Arial" font-size="12.00">cityunits::Duration</text>
<polygon fill="none" stroke="black" points="16.38,-269.88 16.38,-288.12 115.62,-288.12 115.62,-269.88 16.38,-269.88"/>
</g>
<!-- RoadLinkUserType&#45;&gt;cityunits__Duration -->
<g id="edge8" class="edge">
<title>RoadLinkUserType&#45;&gt;cityunits__Duration</title>
<path fill="none" stroke="black" d="M132.28,-361.26C100.89,-352.05 67.39,-342.18 67.25,-342 60.02,-332.54 58.81,-319.68 59.76,-308.13"/>
<polygon fill="black" stroke="black" points="63.22,-308.65 61.16,-298.26 56.29,-307.67 63.22,-308.65"/>
<text xml:space="preserve" text-anchor="middle" x="105.12" y="-331.55" font-family="Arial" font-size="11.00"> travelTime </text>
<text xml:space="preserve" text-anchor="middle" x="105.12" y="-318.05" font-family="Arial" font-size="11.00"> «max 1, only» &#160;</text>
</g>
<!-- cityunits__Speed -->
<g id="node5" class="node">
<title>cityunits__Speed</title>
<polygon fill="lightgray" stroke="none" points="28.62,-171.88 28.62,-188.12 115.38,-188.12 115.38,-171.88 28.62,-171.88"/>
<text xml:space="preserve" text-anchor="start" x="29.62" y="-175.72" font-family="Arial" font-size="12.00">cityunits::Speed</text>
<polygon fill="none" stroke="black" points="27.62,-170.88 27.62,-189.12 116.38,-189.12 116.38,-170.88 27.62,-170.88"/>
</g>
<!-- RoadLinkUserType&#45;&gt;cityunits__Speed -->
<g id="edge7" class="edge">
<title>RoadLinkUserType&#45;&gt;cityunits__Speed</title>
<path fill="none" stroke="black" d="M177.83,-360.19C166.58,-337.36 145.4,-295.46 125,-261 114.14,-242.65 100.89,-222.66 90.36,-207.25"/>
<polygon fill="black" stroke="black" points="93.3,-205.34 84.74,-199.09 87.53,-209.31 93.3,-205.34"/>
<text xml:space="preserve" text-anchor="middle" x="182.54" y="-282.05" font-family="Arial" font-size="11.00"> speedLimit </text>
<text xml:space="preserve" text-anchor="middle" x="182.54" y="-268.55" font-family="Arial" font-size="11.00"> «max 1, only» &#160;</text>
</g>
<!-- code__Code -->
<g id="node6" class="node">
<title>code__Code</title>
<polygon fill="lightgray" stroke="none" points="51.25,-98.88 51.25,-115.12 114.75,-115.12 114.75,-98.88 51.25,-98.88"/>
<text xml:space="preserve" text-anchor="start" x="52.25" y="-102.72" font-family="Arial" font-size="12.00">code::Code</text>
<polygon fill="none" stroke="black" points="50.25,-97.88 50.25,-116.12 115.75,-116.12 115.75,-97.88 50.25,-97.88"/>
</g>
<!-- RoadLinkUserType&#45;&gt;code__Code -->
<g id="edge9" class="edge">
<title>RoadLinkUserType&#45;&gt;code__Code</title>
<path fill="none" stroke="black" d="M198.79,-360.27C214.52,-337.54 237.57,-295.74 224,-261 202.41,-205.71 150.45,-158.36 115.99,-131.54"/>
<polygon fill="black" stroke="black" points="118.49,-129.04 108.42,-125.77 114.25,-134.61 118.49,-129.04"/>
<text xml:space="preserve" text-anchor="middle" x="259.26" y="-232.55" font-family="Arial" font-size="11.00"> userCategory </text>
<text xml:space="preserve" text-anchor="middle" x="259.26" y="-219.05" font-family="Arial" font-size="11.00"> «exactly 1, only» &#160;</text>
</g>
<!-- RoadLink -->
<g id="node7" class="node">
<title>RoadLink</title>
<g id="a_node7"><a xlink:href="../_counters/transportnetwork__RoadLink.md" xlink:title="&lt;TABLE&gt;">
<polygon fill="lightgray" stroke="none" points="60.12,-25.88 60.12,-42.12 113.88,-42.12 113.88,-25.88 60.12,-25.88"/>
<text xml:space="preserve" text-anchor="start" x="61.12" y="-29.73" font-family="Arial" font-size="12.00">RoadLink</text>
<polygon fill="none" stroke="black" points="59.12,-24.88 59.12,-43.12 114.88,-43.12 114.88,-24.88 59.12,-24.88"/>
</a>
</g>
</g>
<!-- RoadLinkUserType&#45;&gt;RoadLink -->
<g id="edge10" class="edge">
<title>RoadLinkUserType&#45;&gt;RoadLink</title>
<path fill="none" stroke="black" d="M239.63,-369.94C290.75,-359.84 360,-335.86 360,-280 360,-280 360,-280 360,-106 360,-58.24 201.5,-42.04 126.04,-37.03"/>
<polygon fill="black" stroke="black" points="126.39,-33.55 116.19,-36.42 125.95,-40.54 126.39,-33.55"/>
<text xml:space="preserve" text-anchor="middle" x="380.25" y="-183.05" font-family="Arial" font-size="11.00"> uses </text>
<text xml:space="preserve" text-anchor="middle" x="380.25" y="-169.55" font-family="Arial" font-size="11.00"> «only» &#160;</text>
</g>
<!-- Invis&#45;&gt;cityunits__Duration -->
<!-- cityunits__Duration&#45;&gt;cityunits__Speed -->
<!-- cityunits__Speed&#45;&gt;code__Code -->
<!-- code__Code&#45;&gt;RoadLink -->
</g>
</svg>
